<?xml version="1.0" standalone="no"?>
<!DOCTYPE svg PUBLIC "-//W3C//DTD SVG 1.1//EN" "http://www.w3.org/Graphics/SVG/1.1/DTD/svg11.dtd" >
<svg xmlns="http://www.w3.org/2000/svg">
<metadata></metadata>
<defs>
<font id="malgecitoregular" horiz-adv-x="1419" >
<font-face units-per-em="2048" ascent="1638" descent="-410" />
<missing-glyph horiz-adv-x="507" />
<glyph horiz-adv-x="2048" />
<glyph horiz-adv-x="2048" />
<glyph unicode="&#xd;" horiz-adv-x="2048" />
<glyph unicode=" "  horiz-adv-x="507" />
<glyph unicode="&#x09;" horiz-adv-x="507" />
<glyph unicode="&#xa0;" horiz-adv-x="507" />
<glyph unicode="!" horiz-adv-x="423" d="M-20 86v80q0 150 233 196q231 -46 231 -196v-68q0 -56 -45 -65l13 -13v-20q-40 -64 -146 -111l-10 11l-55 -11q-162 0 -221 197zM-20 1169v23l12 10v12h-12q38 209 210 209h43q211 0 211 -243q-65 -750 -178 -750l-53 -10q-126 0 -156 176l11 10v10l-33 101h10l-43 231 h10l33 -22h23v12h-33v23q0 20 65 20l-10 12v23l10 10v10l-32 13l12 -13v-32h-12l-33 12l-23 -23h-20v23l10 10q-22 55 -22 143zM25 1092h10v22h-10v-22zM35 1124h10v23h-10v-23zM45 903l12 -10h11v10l-11 12h-12v-12zM45 1104h23l12 10v10l-35 -10v-10zM68 827h12l10 11v12 h-10l-12 -12v-11zM80 76l10 10h23l12 -10h10v10l-45 35h-10v-45zM80 639l20 -23v23h-20zM100 1081l45 -12l-32 35h-13v-23zM113 121h12l10 10v12h-10l-12 -12v-10zM125 850h43v10l-43 10v-20zM125 926q65 0 65 -23q50 21 56 45h-23v-22l-65 12h-33v-12zM135 948h10l13 33 h-23v-33zM223 121l23 -23l10 11v12h-33zM279 948l32 13v10h-22l-10 -10v-13z" />
<glyph unicode="&#x22;" horiz-adv-x="632" d="M43 1225q24 110 113 110h10q78 0 113 -84l18 -84q-30 -219 -199 -219q-51 9 -51 51q0 47 96 68q27 21 27 49l-33 -6q-85 0 -94 115zM166 1190q22 0 41 -19h4l-12 48v16h-11q-7 0 -22 -45zM336 1194v47q0 68 100 94h29q62 0 100 -84l-35 -26l19 -13q9 33 16 33h4l13 -55 h-4l4 -6v-23q0 -145 -129 -203l-68 -10q-25 0 -45 33v25q0 38 102 65l23 45l-39 -6q-90 18 -90 84z" />
<glyph unicode="#" horiz-adv-x="720" d="M-20 502q0 54 63 63h86l31 172v21h-8q0 -43 -15 -43h-39q-71 9 -71 65v6q0 66 63 66h86q21 278 94 278h25q70 -12 70 -57l-31 -221h108l17 12v58l30 8v8h-22q0 192 108 192q44 0 64 -36v-21q0 -83 -33 -221h86q47 -30 47 -66q-9 -71 -69 -71h-72q-19 0 -31 -150h64 q61 -6 61 -71q-9 -66 -69 -66h-78q-12 -106 -25 -106l8 -7q-12 -94 -22 -94l6 -6v-14q-24 0 -39 -35l-39 -14q-78 12 -78 49l31 227h-125v-6q-9 -264 -94 -264l-23 -6q-63 18 -63 34v23q0 95 31 219h-62q-59 0 -71 74zM113 258h8v21h-8v-21zM160 801h8v14h-8v-14zM287 565 h125l22 150h-125zM451 680h8v35h-8v-35zM459 209h8v35h-8v-35zM459 522h8v23h-8v-23zM459 594h14v20h-14v-20zM459 743q14 -14 14 -63h8v29l-8 43h-14v-9zM473 502h8v12h-8v-12zM481 465q25 -36 25 -107l-8 -22h14v92l-14 23v20l14 23h-23zM481 522h8v35h-8v-35zM489 821h9 v17h-9v-17zM498 686h8v23h-8v-23z" />
<glyph unicode="$" horiz-adv-x="980" d="M0 354v80l8 43h27l-17 -26l25 -9l-8 -8v-8l-8 8h-19v-35l19 -18h16l18 18v9h-8l-26 -9v9q0 20 34 26l-8 8v9h17l-9 10v8q0 16 27 16l-8 11v8h16v8l-8 10v8l27 19l8 -10v-17h-19l11 -10l-11 -8v-19h11v19l8 -8h8v34l-8 9v10h45l-18 -27h8l26 8v-18h9v18q50 -33 53 -53h-19 v-8q37 0 107 -70l88 -45v142l8 8l-8 8v61l8 11v8q-115 35 -115 61h-8v-16l-61 16q0 22 280 142l19 -80h10v26l-18 70l96 37q334 -105 334 -291h-9l25 -72l-8 -8h8l-8 -8v-8l8 -10q0 -193 -281 -308l-131 -16h-16l-10 -45l10 -27q0 -88 -63 -88h-17q-14 0 -26 35h-19l8 45 l-16 19v51q-27 0 -27 18l-8 -8h-18l10 8v8l-80 27l-27 -27q-16 0 -16 27l-10 8l-53 -8l18 18l-8 9v16l8 10l-27 35l-16 -35l16 -26h-16l-10 -9l-8 9v26h-9v-18h-10l-51 45v8h16v8h-16v10l-10 -10h-17l-35 80l9 8h-27zM8 926v26q0 312 414 377q0 80 70 80h10l24 -16l11 8 l8 -8v-11l-19 -26l11 -43h8v26h10q0 -25 129 -34q264 -108 264 -195l-235 -123q-86 86 -158 96l-10 -8v-8l10 -37h-18v19h-11v-27l29 -8l-10 -142l-115 -61l-35 8l8 -8v-8l-200 -123q-71 30 -99 61l11 9q-72 0 -107 176zM35 354l18 -16v-10l-10 -9v-8l18 -18l9 8h10l8 -8h8 v18l-35 8l9 9v10l-35 24v-8zM43 461v24l10 11v8l-10 8h18l-8 -51h-10zM61 512v10h19v-10h-19zM70 354l10 -8h8v8l-8 8h-10v-8zM150 451l18 -17l8 8v9h-26zM150 1094h8v24h-8v-24zM158 1128h10l8 9v10h-8l-10 -10v-9zM168 293h8v18h-8v-18zM168 715h8v18h-8v-18zM176 750h8 l9 34v19h-9zM184 451h19l-10 -9v-8h10l8 8v19h-27v-10zM184 477h9l10 27h-19v-27zM193 864h10v35h-10v-35zM193 1006q18 0 18 -27h8v16l-8 11h16l-16 16zM219 170h27v-16h-8zM227 231l37 -26v8l-26 18h-11zM227 346h11v16h-11v-16zM299 1006q0 -29 35 -70l-8 -10l96 -27v195 h-8q-115 -21 -115 -88zM307 143h35l-16 -16zM518 143l8 -8h11l-11 70h-8v-62zM518 715h8v35h-8v-35zM526 522h11v27h-11v-27zM526 600l11 8h8l-8 37h-11v-45zM537 1102h8v35h-8v-35zM545 512l10 -43v-123l6 8l10 -8h9q98 34 98 88v51q0 39 -123 80zM561 733l19 -18v26h-19 v-8zM571 293l9 -8h10v43h-10zM772 1083h10l9 11v16h-9zM809 952l43 9v-9l-16 -16h-11zM836 477l53 27v8h-29zM852 971l80 35v-11l-43 -43h-19zM905 381l27 -27v8l-19 19h-8zM924 522l16 -18h18v18l-18 17z" />
<glyph unicode="%" horiz-adv-x="1277" d="M-20 776v103q27 227 165 227v-8h7q0 24 24 24l72 8q233 -30 233 -212l8 -56v-69q0 -221 -202 -267h-72q-169 0 -227 181zM66 909q6 -23 38 -39v9zM129 840l16 -17v8l-16 17v-8zM145 926h15v16h-15v-16zM145 1059h31l-8 24h-8l-15 -16v-8zM160 823q0 -164 71 -164 q24 0 56 -38h14q0 22 -22 22l-9 8v8q39 56 39 150l-8 45h8q0 141 -78 141q-71 0 -71 -172zM309 72q0 56 305 643q197 446 244 446l47 8q64 -27 64 -63q-12 -86 -39 -86h-8l8 -8v-8q-456 -947 -496 -979l-39 -9h-30q-38 18 -56 56zM451 338l8 -39h14v55h-22v-16zM473 385 l25 -16h14v47l-23 -15l-8 7v-7l-8 -8v-8zM528 338l9 -8h8v8l-8 8h-9v-8zM788 313v80q0 197 148 250q37 16 88 16h61q181 0 211 -243v-109q0 -225 -258 -252q-226 0 -250 258zM811 401q31 0 55 -24h8l-16 63v23h-16q-13 0 -31 -62zM889 1092h16v14zM969 360q0 -172 86 -172 q61 0 61 172q0 166 -69 166h-9q-69 0 -69 -166z" />
<glyph unicode="&#x26;" horiz-adv-x="1153" d="M-20 416q0 217 282 346v10q-127 157 -127 254q0 200 238 283l116 10q188 0 283 -127v-10h-16v-11h16l10 11l19 -45l-10 -11q36 0 36 -90q0 -152 -235 -301l135 -174h-18v-8h18l8 8l47 -45h9q64 193 108 193h74q43 -22 63 -66v-45q0 -68 -90 -227v-11q191 -147 191 -208 q-24 -109 -109 -109q-59 3 -227 145q-149 -111 -238 -127v9q-33 -18 -145 -27q-298 0 -412 236q-26 45 -26 137zM154 326h8l18 26h-10zM180 571h10l19 45v19h-10l-19 -45v-19zM209 170h8v18h-8v-18zM209 653h8l8 37l-8 27h-8v-64zM217 416q0 -156 209 -191l111 19l-19 -29 l53 -8l11 8v10l-11 8h-8l-8 -8l-10 8v27q20 0 92 66h8l-264 301q-164 -83 -164 -201v-10zM362 1044q0 -53 101 -172q155 76 155 183q0 78 -129 108q-127 -30 -127 -119zM518 698l8 11h11l18 -19l8 27l-8 8v29l8 8l-8 10v72l8 47l-8 8h-10l-8 -55l8 -8v-19zM526 606h19l-8 29 h-11v-29zM537 498h8l18 37h-18zM545 553h18v27h-18v-27zM545 672l10 -82h8v45h19l10 -8h8q0 26 -37 26v19h-18zM563 434h8v19h-8v-19zM735 1036l21 19h-21v-19zM745 1145h19l-19 18v-18zM756 1090h16l-8 -9l8 -45h19l-9 45l9 9h-19l10 10v10h-10l-8 -10l-8 10v-20zM1073 106 h10v27h-10v-27zM1092 162h18v16z" />
<glyph unicode="'" horiz-adv-x="317" d="M31 1231q0 77 96 112h31q72 0 106 -106l6 -59q-21 -203 -186 -203q-31 0 -49 41q0 54 96 69q23 23 23 43v7l-33 -7q-75 0 -90 103zM211 1075h4v10h-4v-10z" />
<glyph unicode="(" horiz-adv-x="444" d="M41 492v81q0 285 135 629q59 74 109 74h30q106 0 115 -131q-88 -406 -88 -580q0 -166 66 -465h-19q0 25 -33 25l-8 -8v-8l19 -17l16 17q41 -35 41 -107q-15 -137 -139 -137h-9q-168 0 -235 627zM342 141h14l11 9l8 -9v17h-8l-25 -8v-9z" />
<glyph unicode=")" horiz-adv-x="444" d="M41 76q86 374 86 524v55l-16 189q16 6 188 360h6q111 -285 111 -485v-133q0 -219 -125 -557q-57 -78 -113 -78h-12q-116 0 -125 125zM53 1157v31q15 119 117 119h8q38 0 74 -25q-126 -342 -133 -344l-33 39l6 22h-6q-11 0 -14 72l8 8q-27 0 -27 78zM92 938l8 6h11l8 -39 l-19 -14zM111 1008h8v16h-8v-16zM139 680l11 -25h28l-20 25h-19zM158 500h12l8 22h-8zM178 639h39v33l-39 -25v-8zM205 686h12v8h-12v-8zM344 492h8v14h-8v-14z" />
<glyph unicode="*" horiz-adv-x="886" d="M-61 844v8h10l24 -27v-8h-8zM-51 879l24 8l11 -35zM0 844v8h18v-8h-18zM18 870h17l18 -18l-10 -8h-8zM43 825l37 19l8 -8v8q35 0 35 -45h8l-8 -27q-67 24 -80 53zM80 870l8 9h8v-27zM106 371v16h9v-16h-9zM123 483v19h8v-19h-8zM141 756l17 16l10 -8v-16zM158 836v16h10 v-16h-10zM176 729v8h27v-8h-27zM176 879h17v-19h18q0 19 35 19v16l80 -16l24 69l-8 8l61 238q38 0 115 -238l27 -51l78 -10v18h18q16 0 16 -26l11 -8h8l-19 34l80 9v-17l8 8h11l8 -8h8q0 27 115 27h8v-10l-131 -105q-26 -26 -62 -26q0 -29 -69 -89v-8h24v-26h-16v-35l8 8h8 l45 -113l-10 -10q20 0 29 -43h-37l27 -26h10v26h6l18 -53v-8h-18v16h-6v-16l6 -8h-6l-123 69v8l8 9v10h-8l-29 -10q-83 71 -120 71l-46 -45h-8v19h-16l6 -35l-51 -45h-27v18l-8 -8h-8l16 -37l-26 -16l-9 8q0 -34 -79 -80v10q9 62 26 62l19 -19v19l-19 26l8 9l-8 8l53 227 h-10q-17 0 -35 53l11 35v19l-45 -9l-9 43q19 0 19 -26h8l16 18q-51 39 -51 62zM281 510l34 -8v26h-34v-18zM281 598q0 -18 53 -27v19l-27 24h-26v-16zM291 625h16v8h-16v-8zM307 713h8v16h-8v-16zM307 956h19v-16zM342 518h8v19h-8v-19zM342 563h8v17h-8v-17zM342 721h18 l-10 8l10 8v19l-18 -19v-16zM342 782h18v17zM360 764l9 -8h10l6 26h-6zM369 737h16v11h-16v-11zM379 940h16v16zM403 1202v19h19v-19h-19zM414 737l16 -16h8v16h-24zM414 895q0 -40 43 -86v27h8v-19l18 19l-18 24l8 10h-24l8 9v26h-8l-11 -10h-8l-16 18v-18zM473 905h19v27 h-19v-27zM500 684q9 -25 53 -25l-18 43h-17l8 -8v-16l-8 6h-18zM500 913l18 19h-18v-19zM561 721l37 -8v16h-37v-8zM569 510h19v27h-19v-27zM569 836l11 -11h8v27zM580 571l26 -8v8h-8l8 9v18l-26 -8v-19zM580 606l18 19h-18v-19zM588 870h18v9h-18v-9zM598 641h8v18h-8v-18 zM606 844h8v16h-8v-16zM614 614h9l10 45l-19 -18h9l-9 -8v-19zM641 502l35 -27v27h-35zM676 817h8v19h-8v-19zM684 791h8l19 26h-9zM756 764h16v-16zM764 729v8l16 -16v-8zM772 684v18h8v-18h-8zM825 817v19h9v-19h-9zM965 809v27h10v-27h-10z" />
<glyph unicode="+" horiz-adv-x="798" d="M-20 629q0 79 102 94h219v139q0 17 25 17v8h-25v61q0 31 41 78l39 -22v8l-16 14v8l55 8q77 0 86 -133v-186h156l8 -8l8 8h55q86 -15 86 -88v-31q0 -74 -110 -86h-9l-8 8l-6 -8h-47l-8 8l-8 -8h-95l-8 8h-8l-6 -8v-196l-8 -9l8 -8v-6q-24 -94 -94 -94h-9q-102 9 -102 100 v213h-203q-118 0 -118 111zM317 737h9v31h-9v-31zM342 612l6 -8h8v8l-8 9h-6v-9zM442 438h17v8h-17v-8zM442 588h9v16h-9v-16zM467 981l14 -16v16h-14zM489 690h9v17h-9v-17zM584 621l8 -9h6v9l-6 8h-8v-8zM614 604l17 17l-8 8h-9v-25zM645 580l33 16v25h-8v-17h-8l-9 8h-8 v-32z" />
<glyph unicode="," horiz-adv-x="294" d="M16 125v14q18 111 103 111h8l23 -17v9l-9 8h9q110 -21 110 -166v-14h-16l16 -25v-16h-16l8 -6v-9q-9 -82 -111 -174l-61 -30l-8 8v-8q-56 15 -56 63q0 13 103 102l16 48q-119 21 -119 102z" />
<glyph unicode="-" horiz-adv-x="1005" d="M-20 641v51l43 76v27h602l14 -27l14 27h316q55 -52 55 -154q-29 0 -29 -76l-14 -26h-555v51h-12v-51h-377zM598 641h12l43 27v24h-28l-15 -24v51l15 24v25h-15l-12 -25v-102z" />
<glyph unicode="." horiz-adv-x="354" d="M41 115v51q27 123 121 123h18q146 -18 146 -123v-51q0 -100 -156 -121q-129 40 -129 121zM193 248h10v20h-10v-20zM203 94h10v21h-10v-21zM221 63l33 11v20l-10 10v-10z" />
<glyph unicode="/" horiz-adv-x="512" d="M47 37v20l33 164h8v-92l-8 -51h18v-62l11 -51h-11q-51 15 -51 72zM109 201l12 41l-12 82l163 684l11 10l-11 10v10q77 348 134 348h30q83 0 103 -51v-71q-258 -1106 -318 -1278l-61 -29l-31 8l10 10v23l-10 8l92 174h-8q-43 -61 -84 -61l-8 10v51l8 10v11h-20zM293 1018 h10l10 10v10l-10 31h-10v-10l10 -31zM303 979h10v18h-10v-18zM334 1028l20 21h-20v-21z" />
<glyph unicode="0" horiz-adv-x="1056" d="M-2 567q0 9 4 103l6 65l23 160h18l-6 10q120 393 492 393q53 0 67 -2q363 -35 451 -422l12 -77l-21 -19q27 -3 27 -92q0 -6 -0.5 -17.5t-1.5 -33t-2 -39.5h-10l10 -10q-21 -213 -119 -363l8 -10q-165 -219 -428 -219q-5 0 -59 4q-235 21 -375 205q-96 140 -96 364z M109 680l18 -2v8l-18 2v-8zM154 215l24 -31l12 11l3 36l-17 21l-20 -16zM281 1112l8 -8l37 -4l2 10l-47 12v-10zM299 893l18 -2v8l-18 2v-8zM367 905l57 -14l-49 -225q-6 -61 -6 -113q0 -250 127 -262h8q126 0 135 112q22 0 49 244l4 58l-8 10l2 10l8 -2l-8 125h21v8 q-30 3 -39 90q-39 45 -101 66h-10q-72 0 -131 -92l-57 -7zM512 1026l8 -2l2 20h-10v-18zM514 1055l27 -13h10l2 9l-39 14v-10zM668 954l37 -12l153 6l2 19l-31 -17l-104 11l-8 10l-49 -6v-11zM750 469l20 18l-18 2zM801 829l65 5l2 8l-57 6l-10 -10v-9zM862 891l10 -2l11 8 v10h-9l-10 -8zM950 690h19l2 8l-21 2v-10z" />
<glyph unicode="1" horiz-adv-x="657" d="M-25 889q0 143 144 143q135 26 209 94q117 172 190 172h21q103 0 143 -94v-18h-20v-68l-11 -10l11 -8v-21l-19 -28v-37h19v-21l-11 11h-8v-19l29 -10v18h10v-37h-20l10 -86l-10 -39l10 -8v-10l-10 -29l10 11h10v-162l-20 -58l20 -75v-11h-20v-20h20v-76l-10 -37l10 -10 v-8l-10 -10l10 -47v-50l-10 11h-10l-11 -11l21 -75v-11q0 -59 -47 -94q0 -39 -144 -57l-114 49l10 27l-10 28l-11 -10h-10q-37 0 -37 68h-10l10 10l-10 47v68l10 -11h19v11q-29 0 -29 18l10 39l-10 8v10l10 9l-10 96v305h-190q-134 9 -134 123zM281 842h10v28h-10v-28z M299 881h10v26h-10v-26zM309 424h10v27h-10v-27zM309 928h10v65h-10v-65zM377 98l18 -65h19l12 47l-12 -10h-19v28h-18zM377 260h8v21h-8v-21zM385 109h10v18h-10v-18zM414 109l39 -21v10l-27 21h-12v-10zM463 88h18v10h-18v-10zM598 442h6v19h-6v-19zM643 145h8v39h-8v-39z M643 889h8v18h-8v-18zM672 1014v104h10v-104h-10z" />
<glyph unicode="2" horiz-adv-x="989" d="M-25 174q0 170 258 326l342 256q29 44 50 125q-27 133 -125 133h-58q-72 0 -161 -201q-38 -47 -123 -47q-162 21 -162 141v68q0 191 303 313l182 21q376 0 496 -267l18 -124v-29q0 -171 -114 -256l-19 18h-8l8 -10v-8h-8l8 -10v-19q-153 -114 -399 -258v-8h135l6 -10 l10 10h29l8 -10l11 10h182q170 0 170 -135v-47q0 -133 -144 -133h-65l8 10v10l-55 -20h-39l-10 10h-9l-10 -10v10l-8 -10h-68v20l-28 -20h-277l-86 10l-65 -10h-39q-114 0 -144 151zM-4 195l55 -11v11l-37 8h-18v-8zM170 1204h6l10 8v11h-10l-6 -11v-8zM244 156h26v10h-26 v-10zM414 70h143l-8 10v8l-68 -8l-39 8l-28 -8v-10zM567 80l37 8v10h-29l-8 -10v-8zM662 784h10v21h-10v-21zM823 252l39 8v21l-8 8v10l-31 -10v-37zM823 633l11 -10h10l-10 28h-11v-18zM899 975h21l10 10v8l-31 -8v-10z" />
<glyph unicode="3" horiz-adv-x="970" d="M-25 432q0 201 195 266v11q-166 30 -166 237l21 58l-11 10l29 37v10l-10 8q137 229 438 229t438 -143q0 -50 -161 -295h-19l-10 10q-95 154 -201 154v-10q-151 0 -151 -107q0 -55 47 -102q219 0 219 -117v-26q0 -47 -66 -107q-211 0 -211 -104q18 -152 70 -152h6 l-133 -256h-18v18l-11 -10l-26 29q-31 0 -31 18l-18 -18h-9q-211 105 -211 352zM51 1042h21v9h-21v-9zM262 203h8v20h-8v-20zM309 23q0 42 162 258h68q88 0 123 65q53 154 161 154q172 -30 172 -162v-39l-10 -10h10q0 -111 -182 -228q-45 0 -45 -18l-49 8l-29 -8l-39 18 l-8 -10h-68l-8 10l-39 -10v-8l76 -20v10l78 -10v-11l-143 -18l-27 8l-12 -8l-11 8h-8l-10 -8l-152 29h-10zM356 709h50v10h-50v-10zM406 51l8 -28h18v20zM463 23h18l-10 38h-8v-38zM489 43h11l12 8l-12 37h-11v-45zM500 680l18 18h-18v-18zM682 33l37 10v-20l-29 -11v11z M834 842v18l114 191h19v-76q0 -83 -123 -133h-10z" />
<glyph unicode="4" horiz-adv-x="1077" d="M-16 453q0 96 112 237l8 10h11v-8l55 25l10 -10l-2 28h-8l-47 -14l-2 18q21 3 178 256q213 315 307 324l37 2q6 2 29 2q135 0 182 -127l-6 -10h-10l-23 16l-16 -20l10 -8l2 -11l45 25l10 -10l15 -170l-2 -76l16 -76l4 -49q0 -28 -92 -37v-8q95 0 98 -21l10 -123l-8 -10 v-10q8 2 33 2q151 0 160 -129q-3 -143 -111 -152l-47 -4l-4 -59l10 -27q2 -6 2 -26q0 -149 -153 -189l-39 -2l-21 17l-8 -11h-10q-119 34 -131 189l-4 57l8 10v11l-125 -13l-8 -10l-10 10l-324 -28q-97 0 -137 149zM106 672l3 -8l28 2l-2 8zM184 545l2 -10l11 2l8 10v8h-10z M195 430l18 2v21zM240 465l18 18h-18v-18zM256 494l10 2l-2 18l-8 -2v-18zM268 360l21 -16l-2 29l-19 -2v-11zM291 555l10 -29h10l-2 21l246 20l-14 191l8 10l-10 8l-4 39l8 10l-17 95l-86 -113l-28 -2l-39 6l-29 -12l-8 8v-10h104zM301 633h21l-3 10l-18 -2v-8zM555 788 l12 -28l11 2l-3 18l11 -10l18 2v10l-20 19zM557 997l2 -18l8 2l-2 18zM580 741l2 -18l10 2l16 18zM590 512l2 -18l10 -9l8 2l-12 27zM598 313l12 -37h11l-5 48l-10 -11h-8zM643 328l21 2v8l-21 -2v-8zM645 528l2 -10l29 -6l16 39h-10l-6 -31l-10 10zM653 442l2 -18h11l-2 18 h-11zM686 63l2 -20l10 2l9 10h10l8 -8v29l-29 -23zM713 543l10 -8h8l19 20l10 -8l-15 37q-29 -13 -32 -41zM743 612l11 2l8 11l-2 18l-8 -2zM770 80l23 -17l16 29v10zM778 1190l31 2l-2 18l-29 -2v-18zM803 694l2 -10l18 2l-2 10zM813 905l2 -18l29 12l-2 8zM829 936l2 -8 h19v10zM864 432l21 -16v18zM889 272l2 -18h8l-2 18h-8zM932 553l8 -8h10l-2 28zM1034 457l21 2l-2 10l-19 -2v-10z" />
<glyph unicode="5" horiz-adv-x="952" d="M-25 242v18q24 154 172 154v-11l11 11q53 0 198 -115l58 -10h18q166 0 166 180q-41 154 -172 154l-231 -68h-76q-133 35 -133 133v68q0 18 47 18v10h-37q37 486 190 486l58 10l8 -10h86l8 10l10 -10h420q108 0 123 -152q0 -143 -170 -143h-401v-29q0 -47 -19 -47l10 -10 l-10 -66v-18q101 55 248 55v-8l10 8q280 0 400 -285l10 -124q0 -297 -295 -408v8l-78 -28l-6 10q0 -33 -203 -39v8l-10 -8q-360 53 -360 162q-50 0 -50 86zM51 756h21l37 10l10 -10l8 10v8l96 -18l39 10v-10l76 18v10l-29 11l-209 -21v21h-39v-11h29q0 -18 -39 -18v-10z M186 870h9l10 11v8h-10l-9 -8v-11zM432 756h21l10 28h-10l-21 -18v-10zM489 633l115 -58l10 9l-10 104h10l19 31l-29 47h21l8 -10h10v10l-10 8v10q57 12 57 29l-39 18q0 -23 -37 -26l-10 -10v-11l-6 11h-23l39 -68v-18q0 -21 -28 -21l-37 10l-60 -47v-18zM604 43h10l29 8v10 h-10l-29 -10v-8zM672 61l18 19l-8 8h-10v-27zM682 670h18v10h-18v-10zM719 688h18v10h-18v-10zM729 127l8 10h11l10 -10h10v10l-31 19l-8 -11v-18zM729 375l8 -29h11v19l-11 10h-8zM737 88h21v21h-21v-21zM768 745l8 -8v-10q44 17 47 39h-18v-21h-10l-27 11v-11z" />
<glyph unicode="6" horiz-adv-x="1019" d="M-25 584l11 10l-11 10v94q0 167 58 191l495 420h21q418 -34 418 -240v-18q0 -117 -162 -144q-51 0 -219 125l-37 10q-193 0 -193 -237v-49q121 86 248 86q333 0 428 -305l10 -105q0 -344 -391 -430l-123 -8q-333 46 -333 125l-9 -10h-10q-201 189 -201 475zM4 889v10 q56 214 191 305q81 67 231 94v-10zM176 489l19 -20v20h-19zM244 508h8l10 10v8h-10l-8 -8v-10zM244 719h18v18zM270 774l11 -8h10v8l-10 10h-11v-10zM367 424q34 -143 145 -143h6q139 0 154 161q-21 142 -123 142h-37q-145 -18 -145 -142v-18zM414 242h18v18zM463 213h8v18 h-8v-18zM549 252l18 -21l8 11v10h-26zM643 299l8 8h21v-18h10l8 39l-8 -11h-10l-10 11h-11l-8 -11v-18zM690 231l10 -8h9v8l-9 11h-10v-11zM709 307l20 -37h19v11l-11 26h-28z" />
<glyph unicode="7" horiz-adv-x="1009" d="M-14 1153q0 14 2 18l2 27q9 121 155 121q29 0 37 -2l541 -47l14 -49l-10 -11l-2 -8l10 -2l2 10l35 -22l10 8l2 10l-10 11l12 8v18l-18 2l-10 -8l-27 12v19l133 -11v-2q0 -21 45 -30l2 18q113 -40 113 -123l-2 -49q-9 -87 -143 -209v-8l-21 2l2 29h-8q-3 -55 -111 -172 q-203 -341 -221 -545q-58 -162 -207 -162h-26q-137 61 -137 170v14q21 265 407 730q40 43 59 43h2l3 10l-504 43q-131 21 -131 137zM182 1210h19l2 9l-21 2v-11zM369 1042l18 -2l2 19zM373 535h8l2 18l-10 2v-20zM449 1083l10 -2v21h-8zM461 1110h8l16 66h-10l-14 -56v-10z M473 1053l10 -13h9l2 11l-9 10h-10zM492 1241h8l4 39h-10zM760 1133l24 -23l2 10l-26 23v-10zM819 840h10l2 28h-10zM823 1212l19 -2l2 11l-19 20v-10l9 -10zM825 926l11 -2l6 57h-11zM827 1051l11 -2l2 28h-11zM834 1124q16 0 16 -32v-17l8 -8l8 -2q-6 67 -20 70h-10z M846 1038h8l12 9v10h-10l-8 -8zM877 1055h10v18h-8z" />
<glyph unicode="8" horiz-adv-x="1019" d="M-25 393q0 222 195 287q-156 114 -156 238v67q0 204 305 303h9l10 -8q0 20 125 29l8 -11l10 11h94l11 -11v11q191 -27 248 -76q117 -70 151 -164h-8q29 -37 29 -84v-39q0 -163 -152 -266h8q180 -79 180 -277l-28 -151q-129 -258 -502 -258l-221 29q-316 105 -316 370z M356 424q0 -154 144 -154h86v11q76 52 76 133v10q-21 151 -144 151q-162 -21 -162 -151zM367 918q0 -134 145 -134q139 0 139 134q-12 124 -133 124q-151 0 -151 -124zM385 1194h10v18h-10v-18zM471 1147h10v18h-10v-18zM672 70l10 -9h8v9l-8 10h-10v-10zM737 88l21 21h-21 v-21zM834 156h20l-10 39h-10v-39zM891 870l29 -10h10l8 10v11l-8 -11l-31 11h-8v-11zM909 928h21l8 10l18 -20v20l-8 8l-39 -8v-10zM948 1042l8 -10h11l-11 29h-8v-19z" />
<glyph unicode="9" horiz-adv-x="1028" d="M-25 852q0 317 334 428l180 18q398 0 517 -352q27 -65 47 -276q0 -576 -467 -668l-133 -8q-134 0 -134 49l-28 -20q-65 0 -68 38l-10 -10h-8q-154 71 -154 180v11q15 141 144 141v10q78 0 231 -112l37 -21l8 10h10l8 -10q136 0 183 219l-10 10v37l10 11v10h-10 q-104 -78 -181 -78h-172l-18 20l-10 -10h-19l8 10v11l-8 -11h-10q-118 0 -238 199zM291 745h18v11h-18v-11zM346 852q0 -128 154 -143q115 0 162 151q-35 154 -150 154l-12 10h-11q-119 0 -143 -154v-18zM356 203h11v20h-11v-20zM395 156h11l8 10v8h-8l-11 -8v-10zM406 1165 h8v21h-8v-21zM471 500h10l8 8v10h-8l-10 -10v-8zM500 1061h12v18h-12v-18zM567 526h19v29h-19l8 -8v-10zM662 584l10 -9h10l8 48l58 -19v19h-19v18h39v29h-20l10 10v18l-29 11l8 -11v-28h-8l-10 10h-10v-10l10 -47l-10 10h-9zM700 356h19v9h-19v-9zM700 584h9v20h-9v-20z M748 709h10l10 10v8h-10l-10 -8v-10zM786 967l19 18h-19v-18zM795 918l28 -11v11l-10 10h-18v-10zM844 852l26 8v10h-16l-10 -10v-8zM854 899h16v8h-16v-8zM862 946h8q0 29 21 29v10h-21l-8 -10v-29zM881 870h39v11h-39v-11z" />
<glyph unicode=":" horiz-adv-x="299" d="M-20 352v25q0 128 172 155q135 0 165 -172q0 -114 -141 -163h-39q-97 0 -149 116zM-20 840h8l-8 8v6q0 106 157 141h23q122 0 157 -164q-30 -172 -172 -172q-157 27 -157 142zM-4 862l8 -8h6l8 8v8l-14 17h-8l8 -8v-9zM43 283l14 -17v17h-14zM57 754h17v14h-17v-14z M82 723h16q0 -25 15 -25l-9 31h-22v-6zM152 707l8 -25h8v16l-8 9h-8zM152 762h16v6h-16v-6z" />
<glyph unicode=";" horiz-adv-x="305" d="M-20 63q0 57 149 103q23 30 23 53v8l-7 -8h-47q-41 0 -41 33h-6v-16h-8q-63 42 -63 108v55q0 96 149 133h16q147 0 181 -202h-9l9 -8v-9q0 -147 -47 -147v-8h16v-8q-77 -158 -238 -158h-6q-71 12 -71 71zM-20 793v61l30 41l-6 6v17q42 53 78 69h22l-14 -14l8 -8v-17 l-8 -8v-6l8 -8h6q3 30 17 30l-8 9v16q0 14 24 14q118 0 164 -100l16 -80q0 -25 -22 -47l-8 -23l8 -8l-64 -55l-86 -23q-92 0 -157 103l8 6v25h-16zM-12 809h16v6h-16v-6zM18 887h25l-16 14h-9v-14zM51 879h6l9 8v8l8 -8h16v8h-16v6l8 8v9l-31 -9l6 -8v-6l-6 -8v-8zM98 352 l6 -22l25 8l31 -16v16q-31 0 -31 39h-8q0 -25 -23 -25zM98 377l23 6v8h-17l-6 -8v-6zM113 133h16v8h-16v-8zM113 729h16v8h-16v-8zM145 854l15 16l-8 9v8l8 8h-15v-41zM152 494h8l16 16h-8zM160 455h8v16h-8v-16zM160 745l8 -30h8v22l-8 8l8 9h-8zM168 213l8 -25l8 9h9l8 -9 h6v9q-14 0 -14 22zM176 313l25 -14h14l-8 23l-6 -9h-8l-9 25h-8v-25zM193 698h14v9h-14v-9zM207 715h16v8h-16v-8zM215 227h8v17h-8v-17zM215 291l16 -17h17l-17 17h-16zM215 801l16 -17h9l14 17l-31 8h-8v-8z" />
<glyph unicode="&#x3c;" horiz-adv-x="784" d="M-20 629q0 81 243 164q429 211 469 211h33v-78h8l15 69h16q0 -15 31 -30l8 -64q0 -43 -47 -70v56l-17 -17l9 -47l-9 -8h-6l-8 80q-16 0 -16 -86l-439 -180v-8q525 -205 525 -238l8 -61q0 -51 -64 -78v14l9 8v8h-9l-6 -30h-8q-77 0 -369 147q-368 153 -368 197zM670 831 l22 9v30h-14zM670 879h8v22h-8v-22zM717 313h8l8 31l-8 64h-8v-95zM748 940h8v16h-8v-16z" />
<glyph unicode="=" horiz-adv-x="1261" d="M-20 934q24 0 24 39h258l8 8l47 -8v-8q-47 0 -47 -25v-6h25l47 14v8l-8 9v8h22l9 -8l8 8h8l14 -17q-23 0 -39 -16h-8l25 -53h-17v-17h17l14 -16v-14h-6l-25 14l-30 -39h16v-6q-33 -6 -33 -47h8q17 0 17 39l39 8h22q3 -33 25 -33l6 8v-16h25v16h-17v9q25 0 25 22h-17v8 l-30 -14l-9 22l9 9l47 -9v9l8 -9h14v31l-30 8l-9 -8v8l9 9v8l8 -8l47 8q0 -25 22 -25v-8h-16v-6q25 0 25 -17q-31 0 -31 -30h-17v-8h17v-9l-33 -8v-8l8 -6v-8h-14v-25h14v-22h-61q0 22 39 22v16h-8q-39 0 -39 -38h-56l-8 8h-6l-8 -8v16h-17l9 -8v-8h-64l-8 8l-6 -8h-244v116 l6 8q-6 82 -30 103zM-4 330l8 8v180h619l-17 -24v-15q36 9 39 31l72 -16v16l39 -8v16h63l8 -8l9 8h6l24 -16h8v16h134v-8h-17v-16h8l9 8h8l22 -8v8l-8 8v8h25v-24l-8 -9l8 -6v-166l-8 -30l8 -31h-713q0 31 -16 31h-9v-17l-8 8h-8v-22h-297v70zM4 987v8h14v-8h-14zM104 879h9 l24 8v8h-8l-25 -8v-8zM137 715h15v8h-15v-8zM160 762h16l17 31v8h-17l-16 -33v-6zM176 266h17v8h-17v-8zM176 446l8 9h17l-8 -9v-14h14l16 14v9l-47 8v-17zM215 416l16 -17l31 17l33 -17v17l-33 16h-8l8 -8v-8h-8l-23 8l-8 -8l-8 8v-8zM215 815l8 -6h8l9 6l-9 8v17h17v22 q-33 -9 -33 -47zM215 879l39 -9h25v9q-56 18 -56 47h-8v-17l16 -14h-16v-16zM231 784h9v17h-9v-17zM240 754h8l31 39l-9 22h-22l14 -22q0 -25 -22 -25v-14zM295 784h6v17h-6v-17zM334 479h14v6h-14v-6zM334 745h8v17h-8v-17zM334 887h8l14 14h-8l-6 -6v23h-8v-31zM342 815 l6 25l17 -17v-8h-23zM348 313h17l8 9l8 -9h14v17h-30zM365 266q47 0 47 39h-9l-8 -6l-30 6v-39zM381 934v14h6v-14h-6zM395 840v14h17v-14h-17zM395 870v9h17v-9h-17zM395 965v8h56q-3 -24 -39 -33l-9 8v8l9 9h-17zM451 291l8 -8h8v8l-8 8h-8v-8zM459 848v6h14v-6h-14z M467 948v17h6v-17h-6zM473 809h16v6h-16v-6zM489 723v6h17l-8 47h14v-14q16 0 16 39q17 0 17 -33l14 16l8 -8h17q0 18 -64 33v14l55 8q0 -19 31 -22v14l39 -8v-14h-14v-8q31 -3 31 -31l-17 -17q-14 0 -14 23h-17l9 -6v-8h-25v-9l16 -16h17l-8 8v8h16q0 -30 23 -30v-8h-156z M520 383l17 -14l8 8v6h-25zM520 754l17 -17v17h-17zM520 901v25h8v-25h-8zM528 862v25h9v-25h-9zM537 391h16l-16 17v-17zM537 895l8 31h8v-17q14 0 14 39h31l8 -22zM537 934v14l8 25h22l31 -8l25 8l-17 -25l-39 17zM545 737h14v8h-14v-8zM553 840v14h6v-14h-6zM559 360h8 l39 17l-8 6v25l41 16l6 -8q0 16 25 16l8 23h-16v-17q-17 0 -17 25h-6q0 -40 -72 -55v-17h25v-8l-33 -6v-17zM559 729l16 -14l9 22zM559 854v16h8v-16h-8zM592 784h6v17h-6v-17zM598 870v31q55 12 55 33l-8 6l8 8v17h-14v8h31l-8 -8v-9h30v17h47l49 -8l23 8v-8l8 8h39 q72 -25 72 -39l-8 -8l8 -8h6v16q25 0 25 14h-39v25h8q39 0 39 -25h8l6 8l25 -16q30 9 30 33h9l8 -8h8l-8 -39v-25h-17l-47 17v16h-14v-8l14 -25l-8 -6l8 -8h-8l-22 8v-16h-17l-8 22q-50 0 -109 -47h39v-14l-47 -9v-30l17 -17l6 9h8l8 -9v-8q-22 0 -22 -14h6l8 6h8l8 -6 l-8 -8v-17l16 -14l56 22l-17 23l31 -6v-8q0 -17 -22 -17l8 -8v-6l6 6h25v-14l-87 -8l-8 8l-8 -8h-39l8 47h-8v-17l-24 8l32 48q-32 0 -32 16l16 14l-8 8l-8 -8h-23q0 31 -39 31l-8 -6l-8 6l-8 -6v14l-23 -14h-8l8 6v16q-24 0 -24 25l-31 -16l-8 8v-17h-25zM614 940v16h17 v-16h-17zM670 918l16 -17h6v17l-22 8v-8zM670 934h16v6h-16v-6zM678 463q31 0 31 -17l30 9v16l-6 -8h-33v8h17l-8 8v6l-31 -6v-16zM678 723h14v-16zM700 768l25 8l23 -8l-15 -14h-16zM700 831v17h9v-17h-9zM700 870h9v17h-9v-17zM700 901h25v8h-25v-8zM709 707v8l16 14h8v-6 l-16 -16h-8zM717 424h16v8h-16v-8zM717 823h16v-14zM717 918h16v8h-16v-8zM725 784v17h8v-17h-8zM733 729v8h39v-8h-39zM733 1137v8h15v-8h-15zM739 809h17l16 -16v-9zM756 768v16l16 -16h-16zM819 424h31v8h-31v-8zM842 815v8h24l8 -8v-6zM858 416h16v16h-16v-16zM874 737 v17h9v-17h-9zM883 754v8h14v-8h-14zM897 768v8h16v-8h-16zM897 854l8 25l47 -17l9 8l16 -22v-8l-8 8h-25v-17h47l8 39l-8 9l17 16h8q14 0 14 -25h8v17l17 -17v-108q3 -39 14 -39l-14 -41q0 -18 61 -70l-6 -8h-8l-72 64q-14 39 -53 39l6 8v14h-22l8 25h8l6 -9h8v9l-8 8h16 l-8 6v16l8 -8h9v17h-17l-39 -31h-8v6l17 25q-18 0 -39 69zM905 823v8h8l17 -16v-6h-8zM913 424h17v8h-17v-8zM999 299h17v14h-17v-14zM1016 737h8v17h-8v-17zM1024 926h14v8h-14v-8zM1133 612v17l16 -17h-16zM1133 723v14q38 -8 38 -22v-25h-8l-22 8v9h14q0 16 -22 16z M1163 659v17l17 14l8 -8h6l-6 -31zM1188 651h6q27 -9 33 -30h-17v14q-22 0 -22 16zM1210 668v14h39l-8 -39h-14l8 8v25l-8 -8h-17zM1219 588v24h16v-24h-16zM1249 565v15h8l23 -23v-8z" />
<glyph unicode="&#x3e;" horiz-adv-x="776" d="M-20 322v22q0 82 251 158q52 33 281 119v8q-412 156 -422 180v31q23 0 23 14h-9l9 25v39h-9q0 -37 -14 -48l8 -22l-8 6h-8q0 -45 -16 -45q-86 41 -86 92v25q0 51 55 78h63v-39h6l9 30l626 -280q56 -35 56 -80v-23q0 -80 -258 -166q0 -13 -424 -194l-62 -8q-56 0 -71 78z M90 305q39 14 39 47v31h-8q0 -61 -31 -61v-17zM104 934h9v14h-9v-14zM121 446l8 -47h8l8 25q-16 0 -16 22h-8zM145 848h7v14h-7v-14zM553 643l22 -8l9 8l22 -22h8q-15 86 -30 86q-10 0 -31 -64z" />
<glyph unicode="?" horiz-adv-x="927" d="M49 952v37q0 167 248 301q119 29 190 29q239 0 359 -182l-37 -37h8l-8 -29h-18v19l-37 -9v-10q43 0 82 -45l10 8h16l-16 -35l16 -18l10 8h9l10 -26q0 -141 -285 -375q-42 -42 -63 -174q-42 -45 -101 -45q-100 21 -100 100v55q0 147 264 346q47 71 47 119q0 121 -174 148 q-145 0 -200 -174q-30 -111 -109 -111h-10q-111 24 -111 100zM68 999l18 -18v18h-18zM104 981h19l-19 18v-18zM131 1026h10l9 8v10h-9l-10 -10v-8zM141 944h19q0 19 26 19l-8 8v10l-8 -10h-10l-10 10h-9v-37zM324 186q30 117 118 117h19q129 -21 129 -117v-10 q-18 -127 -121 -127h-27q-100 0 -118 137zM709 1018h16v8h-16v-8zM772 1034h27v10h-27v-10zM825 1108l11 8h10l8 -26l-8 -9h-10z" />
<glyph unicode="@" horiz-adv-x="1220" d="M31 664q0 326 313 516q139 65 215 65v-33h10q0 33 19 33l41 8q178 -12 198 -32l-73 -134l-125 17q-242 0 -375 -250q-41 -84 -41 -174v-57q0 -267 291 -383l125 -17h55q99 0 227 58l9 -58v-35l-9 -8v-8l9 -8h8v92l-8 41l63 25q37 0 61 -41v-17q0 -58 -108 -117l-8 9 q0 -47 -244 -82h-72q-100 0 -100 24l-25 -8q-456 150 -456 574zM297 571v52q0 286 291 356h24q72 -3 72 -16q-85 -199 -147 -199q-58 -52 -58 -184l-76 -134h9l67 125h17q9 -57 73 -57h33q122 0 143 158q-9 116 -108 116h-25v9l101 157q21 -4 82 -65q0 74 63 74h21v-25h8 l8 25q47 -18 47 -68l-41 -283q-14 0 -14 35h-17l17 -67v-17l-8 -57l32 -17q84 0 125 191v76q0 223 -250 331l68 125h16q324 -145 324 -442q0 -315 -340 -438l-68 -10q-92 12 -92 75q-87 -75 -182 -75q-86 0 -141 67q13 0 24 33h-10l-23 -33q-65 83 -65 182zM512 922h6v24h-6 v-24zM545 1180h10v22h-10v-22zM569 813h11v25h-11v-25zM858 563h12v41h-12v-41zM870 389h9v17h-9v-17zM870 465h17v14l-17 19v-33zM870 870l17 -16h24v8l-41 17v-9zM870 1180l9 -52h8l8 52l-8 8h-8zM895 381h6v49h-6v-49z" />
<glyph unicode="A" horiz-adv-x="1112" d="M-20 184v17l16 14h39v-14h8q-3 -39 -47 -39zM35 -4q0 90 125 377q12 2 71 164q215 255 367 407q47 47 64 47q27 0 118 -186q62 -136 62 -166q80 -127 80 -172q18 0 39 -102q53 -142 163 -267l9 -55q0 -94 -134 -109l-22 9v-9q-79 0 -158 236l-127 -16h-125l-47 8l-8 -8 h-6q-37 16 -86 16h-55v23l55 8v-8l22 8v8l-30 6q-52 0 -111 -109q0 -47 -39 -47v-16l33 -39v-14q-44 -72 -55 -72v8l-80 -32q-73 0 -125 88v14zM240 -10h14v14zM262 625l80 249l-8 9v8q25 85 92 164q0 21 119 39l8 -9v9q73 -30 100 -70v-16q-302 -277 -352 -383l-31 -25z M387 373q124 -31 266 -31h39q-56 115 -164 424h-16v-25l-92 -235q-24 -47 -33 -133z" />
<glyph unicode="B" horiz-adv-x="1259" d="M-49 252l6 70h-6l31 77l-9 9l9 55v16l-9 47l25 62l-16 71l22 95v14l-14 94q22 28 22 64l-8 61l16 17v86l-8 8l8 8v22l-8 72l17 31l-9 80q14 0 23 53l47 55q-70 0 -70 25q0 22 142 117h14l8 -9h9v9l24 -9l78 9l94 -17l31 8l102 -16v8l56 -22l30 14l39 -6h17l8 6l47 -14h14 v8q163 -15 172 -39h33l8 6l86 -47v8q86 -42 158 -117q65 -71 92 -196v-31l-31 -55q9 -55 31 -55q-22 -124 -61 -181l-64 -55h-6v-14q134 -113 172 -299v-9l-16 -47l16 -16h-8l8 -6v-25q-21 -108 -41 -108l8 -25q-9 -63 -94 -133q-14 -56 -117 -100l-188 -64l-94 23l-9 -6 l-38 6h-78l-8 8l-9 -8l-454 32l-31 -8q-92 12 -158 78l-47 103zM90 252h8v14l72 -69l-47 -86v-9l94 48l70 -78l-8 94q15 31 55 31l8 -9v9l-8 8l33 8v6l-103 25l-8 94l-63 -86l-23 6l-8 -6l-8 6v-6l8 -8l-8 -8h-9q0 38 -55 38v-22zM106 141h9l8 9v8h-8l-9 -8v-9zM154 213v14 h8v-14h-8zM311 158h6v22h-6v-22zM453 377l55 -8h211q100 9 100 77v48q-14 44 -147 47h-180l-9 8h-8zM483 1020q0 -47 72 -47l156 -8l30 8v-8q60 21 64 39v55q-20 39 -64 39v-8l-102 24v-8l-100 14v-6l-9 6h-38l-9 -39v-61zM827 1458h17v8h-17v-8zM1190 879h6v22h-6v-22z" />
<glyph unicode="C" horiz-adv-x="1105" d="M-20 758q6 47 16 47l-8 6v8l8 8v9l-8 30l8 8v9l-8 8v6l16 47l-8 8v9l14 47v8l-6 8v6q12 0 94 174q170 164 250 164q0 26 172 47l64 -8l8 8q140 0 313 -117q79 -70 125 -174l-6 -22l6 -8v-9q0 -37 -86 -108q0 -16 -39 -16q-50 14 -86 69v17l39 77q-15 72 -63 72l-47 8 q-20 -3 -56 -39h-6q-94 21 -94 39l-8 -8h-17q-47 0 -47 31h-8l-6 -39h-55q-36 0 -156 -111h-33l33 -30q-47 -71 -47 -134h6l-6 -8v-22l6 -9l-14 -38l8 -9v-8l-8 -8l30 -164l-16 -39q47 -18 47 -30v-48q26 0 41 -41l-8 -8q47 -27 92 -78q72 -28 72 -69l-9 -8l39 -17 q103 15 103 56l14 16h8l17 -16q153 35 172 69q41 41 88 230q10 0 31 55l47 14q101 0 116 -149q-24 -189 -86 -189l-22 -47h8l-25 -31h-30l-8 9h-9v-25q25 0 25 -22l-41 -31h-6l-17 14h9l-17 25q-69 -26 -69 -103l-97 -22v8l-86 -33l-39 17l-30 -9h-9q-16 0 -16 31h-14l8 -31 l-41 -16l-86 25l-6 -9h-8q-111 9 -291 189q0 17 -78 164zM113 442l8 -8h8v8l-8 9h-8v-9zM152 1077h8v25h-8v-25zM207 639h8v16h-8v-16zM301 459h16v8h-16v-8zM334 1346l8 -25l23 33zM387 270h8v17h-8v-17zM451 1251h8l8 9v6h-8l-8 -6v-9zM473 201l25 -25l8 8v25zM575 223h17 v8h-17v-8zM584 1227l8 -8h6l16 16l-16 16zM606 193h17v8h-17v-8zM662 1227l8 -8h8l8 8v8h-8l-8 -8l-8 8v-8zM717 1149v31h47v-23l-39 -16zM836 537l6 24h16l16 -16v-8l-16 -15h-8zM874 1030l9 -6h14l-8 23zM874 1102h15v8h-15v-8zM913 317l17 17l-8 8h-9v-25z" />
<glyph unicode="D" horiz-adv-x="1249" d="M-88 1044v17l8 8l-8 6v8q3 78 94 166l391 -471l-164 17l211 -189l-108 -252h6l236 142l243 -211l211 -250v-17l-203 -86l-30 15l-25 -23h-39l-8 8h-6l6 9v14h-6l-49 -55h-70l-8 -6l-8 6h-15q-139 -47 -274 -47l-25 8l-22 -8q-110 0 -180 196v33q0 57 -17 100l8 31l-30 86 l6 72q-30 0 -100 518zM117 1288h14q16 0 16 -22h31l-8 6v16q0 48 448 78h87q22 0 22 33h25q13 0 22 -47q77 -3 275 -150q23 0 38 -63q60 -54 119 -211l-8 -33q8 -37 39 -61q31 -140 31 -220v-102q0 -308 -197 -455h-6q-15 35 -33 39l-8 -22h-6l-250 344q-33 95 -33 172 l228 127v14q-283 9 -283 39l-55 252h-7q-99 -252 -110 -252zM461 168h8l6 6v25h-6zM492 104l16 -16v33zM563 121l8 -25h15v17zM586 229h16l-16 17v-17zM641 2v-31h8v31h-8zM657 213h15v8h-15v-8zM672 66h16v8h-16v-8zM688 2v-8h8l9 8v8h-9zM688 168q25 0 25 31l-8 8h-9 l-8 -8v-9l8 -8v-8zM721 221h14v8h-14v-8zM727 41l16 -14v14h-16zM735 82h17v6h-17v-6zM735 246h8l25 8v6l-33 -6v-8zM743 18l9 -24h8v24h-17zM743 96h9v17h-9v-17zM752 66h22l-6 -9v-8h31l-8 8v9q30 0 30 22l-8 8h25v8l-17 31h-8v-22l8 -9l-8 -8h-14v31h-17l9 -6v-39l-39 -8 v-8zM791 -29l16 -16v16h-16zM791 74v8h16v-8h-16zM838 57h8l22 9v-17h9v8l-9 25h-14l-16 -16v-9zM979 1296q0 39 39 56q53 -12 53 -33v-39q-3 -15 -39 -31q-29 0 -53 47z" />
<glyph unicode="E" horiz-adv-x="1175" d="M-20 145l8 39v56l16 94l-8 31l22 243h17l-17 47v56q0 70 56 94q-53 56 -56 125q16 0 25 69l-8 25q0 194 117 283q0 40 157 55l729 -55q112 -47 133 -103h9v-16l14 -86v-17q-40 -110 -78 -124q0 -13 -100 -39l-8 8l-39 -8q-488 24 -488 39q-23 -39 -55 -39l33 -86v-9 l211 -8l47 -8l8 8l78 -8h71l9 -6h6v6q140 -35 166 -86v-6l-8 -8v-9q20 0 55 -47l8 -94q-16 0 -16 -55q-82 -94 -189 -94l-463 30l-16 -47l8 -8l-8 -108l188 -17l9 8l39 -8h86l8 -6l8 6q130 -9 166 -31l53 9q96 -29 150 -117q6 -47 16 -47l-8 -39v-55q-53 -127 -197 -127 l-55 -9l-6 9v-9l-25 9q-502 15 -502 39l-69 -15q-213 30 -213 64q-18 0 -70 61l6 8v8zM66 506h8v16h-8v-16zM74 694h24v8h-24v-8zM82 530h16v7h-16v-7zM90 766h23v6h-23v-6zM137 170h8v14h-8v-14zM207 922h16v8h-16v-8zM342 209l14 -16v16h-14zM365 905h8v33h-8v-33z M373 215h8v16h-8v-16zM387 905h8l17 17v16l-25 -8v-25zM403 866l17 -14v14h-17zM553 664h14v8h-14v-8zM592 686h6v16h-6v-16zM700 766h9v14h-9v-14zM874 170h9v14h-9v-14zM874 201h15l8 8v14h-8l-15 -14v-8zM1016 694l8 -8h6v8l-6 8h-8v-8z" />
<glyph unicode="F" horiz-adv-x="892" d="M-20 154v69l16 47l-16 17l8 8l-8 6v33l24 61l-24 39l24 41v6q-24 30 -24 56v274l16 47l-16 64l8 116l-8 56q0 145 204 166h555q174 0 174 -127q0 -109 -180 -109l-127 6l-8 -6l-39 6l-31 -6l-47 31q-36 -31 -78 -31l-47 6l-30 -6q-47 18 -47 45h-9l-39 -31v-22 q0 -17 23 -17l8 -8v-250l17 -16l22 8l86 -8h39l33 8l30 -8l9 8l22 -8l125 8l8 -8h9l8 8h8q149 -21 149 -133q-24 -3 -24 -63q-62 -39 -180 -39l-39 16l-47 -16h-39l-39 8v-8l-8 8l-39 -8l-125 8l-25 -8v-289l-8 -39h-6l-127 125h-8v-16l149 -156v-64q0 -57 -69 -94 q0 -22 -72 -31q-133 35 -133 156v33l8 6v8zM27 356l55 -39v9l-55 47v-17zM90 780h8v17h-8v-17zM387 625h8v14h-8v-14z" />
<glyph unicode="G" horiz-adv-x="1273" d="M-94 430h8l23 -22l-9 -9h-14zM-55 469l14 16v-16h-14zM-16 344v16h16v-16h-16zM-16 494v8l16 14h14v-6l-14 -16h-16zM0 430l14 16l47 -8l-22 117v127l-8 6l8 8v47q0 249 242 463q216 125 401 125v-8l6 8h8q231 0 402 -133q91 -85 100 -156q0 -38 -39 -47v-8l8 8h31l8 -22 q0 -88 -149 -103q-62 15 -172 164q-104 72 -180 72l-48 -8l-8 8h-8q-132 -15 -219 -102q-109 -127 -109 -322l9 -33l-9 -8q0 -163 117 -336q25 0 25 -22q123 -72 186 -72q199 0 393 102l-8 189l-197 -17l-38 9l-9 -9h-8q-74 0 -108 111q0 101 155 125l33 -8l211 14v8l8 -8 h64q133 -27 133 -131l22 -299q0 -151 -297 -252q-72 -41 -260 -53v-8l-39 8h-39l-30 -8l-72 16v-8q-210 46 -305 141q-47 35 -47 55h-25v-16h-22q-103 38 -103 94v17l25 22q34 0 69 -78h17q-72 110 -72 125h-31l17 -30l-17 -17q-22 0 -22 31h-8l8 8v16q-33 9 -39 70zM6 274 v15h8l17 -15v-16h-8zM78 369l8 -9h6v9l-6 8h-8v-8zM131 125l16 14v-14h-16zM549 1237l14 -45q33 9 33 22q-10 23 -47 23zM1051 932h14v8h-14v-8z" />
<glyph unicode="H" horiz-adv-x="1253" d="M-20 104v537l8 37l-8 27l8 69h-8l8 8v195l16 96v37l-16 27l16 16l-8 10q0 85 61 115v8q24 -17 95 -26l49 8l22 -8l86 8l72 -8l45 8l25 -176l-9 -78h-16l-6 -133l6 -9h172q3 35 25 35l22 -45l8 10l39 -10h119v160h16l-8 104l8 27l-16 18q0 54 72 54l61 16l8 -8h9l30 8h17 q0 -24 55 -24l6 8l55 -8h47l9 -11l61 27v-8q0 -62 33 -62v-10l-33 -70l16 -69h-16l8 -10l-47 -918l17 -70h-9l-8 -45h-47q-50 -9 -53 -26l-166 18l-78 -8l-47 16v64q25 0 25 16l-17 19v16l8 8v10h-24v230l8 8v8q-16 19 -72 19v10l-6 -10h-80l-22 16l-33 -6l-109 16h-38 q-25 -6 -25 -69l41 -310h6v-18l-53 -53v-8q-72 6 -72 18l-39 -18l-55 18l-94 -10l-62 10v-18h-55l-39 8l-8 -8l-8 8l8 10l-8 115l8 34h-16zM113 -55h24l-16 -17l-8 9v8zM459 934q9 35 22 35h17l14 -19v-16l-14 -19h-17zM614 422l9 -8v-11l22 11v8l-6 8v8l-25 -8v-8zM883 395 l30 -10v45h-8q0 -27 -22 -27v-8zM977 369l6 -27h33l-25 37h-14v-10zM1102 184h22v9h-22v-9z" />
<glyph unicode="I" horiz-adv-x="462" d="M-20 1145q0 183 149 235l55 9l95 -17v8q147 -52 147 -260l-6 -22h6l-6 -8l14 -336l-14 -47l22 -25l-16 -70q33 0 33 -133l22 -166q-6 -69 -22 -69h-17v22h-16q0 -33 -39 -53h-14l-25 14l-22 -22l-47 8l8 -8v-8l-17 -25v-45h-16l88 -80q0 -22 39 -22h31l22 16h33v-8 q0 -82 -205 -119q-183 0 -235 180l8 25l-39 588l22 22q159 -31 183 -61l6 8h8l102 -25h31q0 19 -86 31l-8 41l8 6h25l47 -14l8 8v22l-55 23v-6q-17 12 -111 22l-16 25l-47 -8q-109 0 -109 30l-16 95v172zM-4 762v6q0 16 22 16l127 -30l7 8h8l24 -25v-8l-24 -22l-70 30l-8 -8 h-8q-78 9 -78 33zM295 809l14 -16h8l-16 16h-6zM373 252l22 31l-22 -9v-22zM387 0v-8h8l8 8v8h-8zM420 188v17l14 14l25 -6v-25l-17 -16h-8z" />
<glyph unicode="J" horiz-adv-x="878" d="M-20 285q0 63 102 116h39q103 0 149 -258q34 -69 117 -69h55q150 0 150 272l14 457l-8 8l8 39v131q24 158 72 158l47 30h31q114 0 141 -188l-8 -23l8 -8l-8 -8h-6l6 -86q-15 -774 -53 -774q-89 -244 -424 -244q-317 0 -416 297h8l-8 8v86zM756 1100h16v8h-16v-8z" />
<glyph unicode="K" horiz-adv-x="1253" d="M-20 1200q0 121 77 180q44 56 144 56q24 -17 78 -17q133 -77 133 -180l8 -8h-8l8 -8v-150l-8 -78h14q426 432 448 432l103 23q203 -41 203 -186q0 -153 -156 -252q-155 -158 -174 -158q0 -38 205 -274l186 -258l33 -117q-34 -172 -125 -172h-25v30h-22l8 -47l-47 -8 q-50 29 -64 78l-8 8h-14l-55 -47q-94 66 -308 385q-61 64 -61 94h-25q-94 -94 -94 -135v-164q0 -241 -203 -241h-8q-92 0 -157 47q-70 76 -70 147zM129 47q9 -22 47 -22l31 8v8l-31 31q-47 -6 -47 -25zM969 119h22l17 14h-25zM1038 150h9v16h-9v-16zM1141 80h14l16 14v8h-22 z" />
<glyph unicode="L" horiz-adv-x="909" d="M-20 158q9 194 55 194h16l6 -8v16q-47 9 -47 39l8 103h-8q25 48 80 682q18 205 158 205q83 -27 125 -103l8 -31l-111 -925v-25h-16q0 -13 102 -22l17 -17l8 8h39q469 -21 469 -86q23 0 41 -47h-8l8 -8v-14q0 -93 -94 -127l-25 8l-23 -8q-432 49 -432 63l-8 8l-22 -16 l-95 16l-8 -8h-8l-47 17l-31 -9v9l-47 -17h-16q-13 0 -31 56zM27 291l30 -25h17v8l-39 17h-8zM342 188h14v9h-14v-9zM381 219l6 -22h8l8 39h-8zM395 150q0 -28 31 -56v-14h16v22q-22 0 -22 48h-25z" />
<glyph unicode="M" d="M-20 1153q0 172 165 227l31 9l39 -25h8q26 33 72 33v8q99 -13 125 -33l22 8q92 -38 142 -188q26 -128 78 -252h-9q33 -62 33 -117h31l71 314h-8l47 188h39q221 -221 469 -516q47 -27 47 -72v-39q0 -182 56 -501q-27 -211 -125 -211q0 -18 -78 -33q-101 15 -150 55 q-61 76 -61 189l6 116h-6q-26 0 -47 -141l-385 -186h-8q-41 0 -103 219q-21 78 -39 78l-8 -9l8 -163q0 -179 -211 -197q-180 0 -204 236l-31 659l8 6zM631 -31q67 57 227 125q0 18 94 33l9 -8v-17q0 -86 -158 -157l-70 -15q-102 15 -102 39zM874 1350v14q15 72 281 72 l64 -17v8q163 -52 163 -260v-327l-22 -25q-398 456 -486 535z" />
<glyph unicode="N" horiz-adv-x="1081" d="M-20 215l8 39h-8l16 86v16h-8l8 211v322q0 416 55 416q0 31 109 61q111 0 266 -297q132 -179 377 -596h24v80l9 6v8l-9 8h-8l17 596q21 172 125 172q112 0 133 -141h8l-33 -981l8 -6v-8l-8 -25h8l-22 -47l8 -8v-6q0 -47 -72 -72h-22l-17 17v8q31 0 31 22h-14v8l-47 -8 l-25 17q-14 0 -14 -25l6 -39l-23 -14h-47q-134 131 -174 250q-35 0 -53 102q-42 3 -205 266l-117 219h-8q-14 0 -14 -22l6 -55l-23 -408l17 -94l-25 -25l17 -47v-39l-33 -47l-6 8l-8 -30l22 -9v-16q-40 -61 -111 -61h-14q-102 21 -102 86l16 47q-18 0 -24 55zM43 104l8 -8 h23v8l-31 9v-9zM121 127h16v8h-16v-8zM160 96h8v17h-8v-17zM772 403h16v9h-16v-9zM780 379l15 -14h32l15 30h-15l-24 -8v16h-8l-15 -16v-8zM811 418h25v8h-25v-8zM850 160h8v14h-8v-14zM874 160h15v8h-15v-8zM889 379h8l8 24l-8 9h-8v-33zM905 293l31 -8v8l-14 16l8 6v9 l-25 8v-8l8 -23zM936 182h16l-8 -8v-6h8v6l9 -6h16l-8 6l8 8v17l-41 -9v-8zM1016 135h14v8h-14v-8z" />
<glyph unicode="O" horiz-adv-x="1468" d="M-88 801l8 22l31 -14v-8l-31 -8zM6 1458v17h17v-17h-17zM31 299v14l6 -8h16v17l17 -17l-9 -6l9 -8l-25 -8zM53 604l17 141l-9 9v8l23 86l-6 6v8q70 260 211 371q20 39 69 39q0 53 236 108l47 9l25 -9l6 9l8 -9l8 25h17v-8l77 8h72l178 -39q64 -3 277 -180q0 -39 61 -88 q103 -195 103 -330q16 0 16 -131l-8 -72l8 -8v-6q-41 -244 -111 -346q-39 -33 -39 -64h-8q-16 0 -16 31l-6 8h-9v-14l15 -25h-6l6 -8v-6q-70 -94 -117 -94v14h-8q0 -14 -39 -14l-8 -8q-17 0 -17 -39l-8 -9h-14l-55 9q0 -17 -31 -17v-14h31v-8l-267 -47l-86 8l-8 -8v8l17 22 h-33l-23 -16h-8q0 33 -16 33h-7v-17l7 -8v-8q-173 15 -361 180l-108 142l-9 -9v9l9 8q-86 177 -86 338v8zM84 219v8l16 17q0 -39 17 -39l-8 -33h-9zM100 690l56 -22l14 22l-6 8h6l8 -8h8l-8 47h8l9 -8h8v16l-8 23h-9v-23h-8l-8 9h-6l-8 -9l8 -47h-17l-22 17h-8l-17 -17v-8z M109 166v6h22v-14zM242 762h22l-14 14h-8v-14zM303 776h16l-16 17v-17zM336 762q193 -138 242 -141l16 -17h24l-8 8v9h8l23 -23q-29 0 -47 -127h16l8 8h7l8 -8v-16l-8 8h-7q-44 0 -88 -219l269 219l86 -55l30 8h9v-8q-25 0 -25 -15l172 -110h16v8l-94 219h-14l14 16l-30 72 l266 217l-70 8l-16 -14l-228 -8l-22 -8q-25 36 -25 61l-8 -6h-6l-16 14l16 17v8l-41 39v16h16v14h-22l-8 -8h-8q0 17 -39 17l8 8v16l-33 6l-6 -30l14 -17q-30 0 -30 -47l8 -6q-21 0 -33 -94l41 -17l14 25h-14l14 22v17l-39 -17v9l9 22l69 -31v17q17 0 17 -25l8 8h8v-16 l-16 -14h-17l-6 8h-8v-25h14v-8h-31v8l9 9v8h-9q-4 -18 -55 -39l-47 14l-8 -8l-39 8h-47v-8h16v-23h-24l-9 23l9 8l-203 -8v-6zM342 41h16l-16 14v-14zM342 643h16v16h-16v-16zM422 1051l22 -9q19 48 56 48q0 21 39 24l8 8v8h-8q-39 0 -39 -24l-31 33l14 14v8l-22 8v-8h8 q-9 -39 -47 -39l14 -32zM453 1200l22 25h-6l-8 8h-8v-33zM461 762h14v6l49 -14v-9h-16l8 -8v-8l-16 -14q0 30 -17 30q-22 0 -22 17zM461 1036h14l-14 15v-15zM469 690h14v-14zM500 676l16 14l8 -8v-6h-24zM530 1169h17v9h-17v-9zM539 637v22l16 -16v-6h-16zM539 1145h16v8 h-16v-8zM547 715v14l24 -22v-9h-8zM594 651v17h31v-17l-23 -22v8l8 6v8h-16zM602 590h16v8h-16v-8zM610 754l8 8h7v-25zM610 1397v8l8 6v8l-8 8l39 17h8q0 -25 -32 -25v-8h16v-14l-8 8h-8l-7 -8h-8zM618 -6l70 -55v16h17q0 22 22 22v17h8v-17l-22 -38v-9l14 -16l16 16v39h17 v8q0 20 -39 23l14 25l-8 8v8l8 6h-14v-14l-8 8h-8l-25 -41l-8 8h-39zM625 543v8h24v-8h-24zM633 565l8 33l16 -16v-17h-24zM633 1483h24l15 -17v-16l-23 16v-16h-8zM641 471l16 16h15l-15 -16h-16zM641 682v8h16v-8h-16zM641 707v30h8l8 -30h-16zM666 -86h14v-6h-14v6z M666 682l14 16v-16h-14zM688 244h17v8h-17v-8zM735 1036h25l-8 -8v-8l47 -47h14l-14 63h-8v-16h-9l-8 31l8 8v8q-12 31 -22 31h-8v-31h16v-25l-25 17zM752 926v16h8v-16h-8zM760 901v17h8v-17h-8zM774 879l17 16v-16h-17zM782 236q0 -22 72 -31v22h-33zM821 776v17l17 -17 h-17zM877 455v16h8v-16h-8zM932 1616v14h6v-14h-6zM954 449v6h17v-6h-17zM1010 1161h14v8h-14v-8zM1024 1012h8v16h-8v-16zM1143 0v16h47v-8l-39 -14zM1165 41h17l-17 14v-14zM1165 86h17v8h-17v-8zM1206 86h6v16h-6v-16zM1221 1458v8l16 -16v-6zM1237 1028l8 -8h8v8l-8 8 h-8v-8zM1276 1004h16v8h-16v-8zM1331 1161v8h17v-8h-17zM1409 1012v16h8v-16h-8z" />
<glyph unicode="P" horiz-adv-x="1183" d="M-20 111l30 374h-6l14 41l-8 6v9q27 714 103 714q53 95 260 95l22 -25l8 8l400 -973l-111 -8v8l-94 -16q0 40 -23 47h-8l-14 -14v-8l6 8h8l8 -8v-17l-38 -8l-56 8q0 -16 -69 -39l-17 -47l31 -22l-6 -8v-9l14 -47v-22q-18 -86 -53 -86l6 -9v-30l-6 -8v-9q13 0 22 -39 q-89 -102 -141 -102l-31 -8v8l-8 -8h-8q-78 3 -78 24q17 24 23 78l-15 39h-8v-39h-8v17h-8q-23 0 -23 -25h-8l-16 31l8 24h-16l-23 -24h14v-23h-14v-8l14 -39q-69 63 -69 133h8zM35 16l16 17v8h-16v-25zM57 -78h9l16 -16h-8zM74 33l30 -8l9 38l-9 9h-6q0 -31 -16 -31v14h-8 v-22zM74 86h8v16h-8v-16zM82 -78h16v-16zM90 -61l8 22h6v-31l-6 9h-8zM104 -70h9l16 -16v-23h-8zM152 63h8v17h-8v-17zM201 16h30v25h-16v-16l-8 8h-6v-17zM231 -86v-16h9l22 71h-8q-20 0 -23 -55zM240 86l14 -39h8q16 0 25 39l-25 8zM248 219q31 0 31 -14l-9 -8l17 -17 q20 0 55 -47h6v25h8v-17h9v25q-23 0 -23 14l23 25l-9 22l-69 -14l-25 23h-14v-17zM262 25l17 -17v33h-17v-16zM262 111h17l8 47h-17zM342 16h6v25h-6v-25zM373 102l22 25l-14 14zM387 352l8 -8h8l9 8v8l-9 9h-8l-8 -9v-8zM412 1333h22l94 -22q31 3 31 22q189 0 424 -86 q205 -150 205 -274l6 -8v-9h-6q14 -25 14 -86v-61q0 -169 -125 -324l-94 -53l-399 862h-9v-8l386 -887l-72 -39h-6zM420 369l53 -9v17l-6 6v8l-8 -8h-8l-9 8h-8l-14 -14v-8z" />
<glyph unicode="Q" horiz-adv-x="1251" d="M-20 768q29 210 102 346q150 188 244 203l39 16l8 8q61 -21 61 -30q72 15 72 47q26 39 86 39l6 -8h8l8 8q181 -34 181 -64q-22 -22 -31 -94l-8 -8l-47 8q-78 -3 -78 -16q0 -16 -78 -31l-25 8v23l25 24h45v17h-6l-8 -9l-9 9h-8l-8 -9l-53 9h-17l-8 -25h17v-16l-17 -15 l-8 23h-6l-25 -23l25 -32v-48q-151 -109 -172 -219l-33 -125q0 -425 244 -493l78 -8h55l78 8q0 12 -164 92l-25 49h9l-9 6v8q35 80 86 80q48 0 48 -32l8 8h8q35 0 172 -94h33q51 57 86 243v17q-8 162 -33 227h8q-64 164 -172 211q-42 22 -72 22v33h56q32 11 32 31h39l9 -8 l53 16v-8l16 -16v-9l72 9l6 -9v-14l-6 -8v-8l6 -9h8v9l8 -9h9q22 0 22 25h25l86 -39l69 -166q31 -118 31 -305q-9 -111 -22 -111l8 -6v-8q-52 -162 -125 -260v-14q225 -108 225 -172q0 -95 -78 -95l-39 15v-15q-22 0 -61 31h-8v-16l-78 49h31v14h-9l-47 -14l-108 78h-8 q-104 -72 -377 -72q-158 0 -338 125q-227 199 -227 596zM420 1239h6l16 16h-8zM764 197l55 -9l8 39h-16q-28 -22 -47 -22v-8zM811 1153l8 -8h8l9 8h6l8 -8v22l-8 -6h-6l-9 6h-8l-8 -6v-8zM889 1137h16v16zM905 1120h17v8h-17v-8zM922 1145l8 -8h6v8l-6 8h-8v-8zM952 455 l25 -17v17l-25 8v-8zM961 541h8v16h-8v-16zM1102 47h14v16zM1133 63l16 17h-16v-17zM1163 86h8l78 25v16l-86 -33v-8z" />
<glyph unicode="R" horiz-adv-x="1269" d="M-20 1094l16 47l-16 47v31q0 61 24 143l524 -770v-8l-61 8l-16 -31q12 -15 30 -330q-18 -121 -61 -155l-64 -47l-61 14l-47 -23l-41 31l-39 -8l-8 25h-56q-84 0 -108 829l8 47l-16 17l8 86zM10 1368q73 119 197 119l110 14l25 -8l156 16h47l30 9l9 -9l78 9h94 q280 0 424 -258q39 -104 39 -158v-55l-9 -9l9 -8l-25 -86h8q-30 -115 -194 -233v-9q197 -188 258 -368l14 -33h-6l14 -78l-14 -39h6q-59 -133 -211 -133l-6 8h-8l-8 -8h-9q-48 0 -133 150zM254 -4v16l47 8h16v-8l-47 -16h-16zM403 451h9v16h-9v-16zM1163 -387h17v-8h-17v8z " />
<glyph unicode="S" horiz-adv-x="1167" d="M-20 399q0 164 110 222q27 21 111 30l61 -16q-219 133 -219 369v38q50 209 117 236l55 55l47 -8q54 72 72 72l61 22l8 -8l17 16h6l25 -16h16q51 39 125 39q295 -40 407 -125q60 -38 86 -125q35 0 56 -47q-9 -63 -39 -63q0 -48 53 -48l16 -22q0 -34 -55 -80v-22h8 q0 -17 -47 -64q0 -45 -78 -45h-22l-8 6h-8l-9 -6v-8q23 -27 86 -47q125 -104 125 -197q16 -3 25 -47v-16h-8l8 -56v-55l-17 -14l9 -64q-18 -15 -39 -108q-98 -168 -330 -236v8l-72 -24l-6 8l-80 -14l-47 6l-69 -6l-17 14h-22q-169 0 -377 158q-120 144 -141 288zM168 1161 l25 6v9h-17l-8 -9v-6zM184 1231l9 -8h22v8l-31 8v-8zM201 1167h14v9h-14v-9zM223 1167h17q34 0 55 50q53 3 53 38h-6l-63 23q0 -13 47 -31q-6 -24 -56 -24l9 -6v-17l-25 -8l-23 8v-8zM223 1255h17v9h-17v-9zM326 588q71 -77 86 -150q40 -116 133 -116l53 -9l64 17v-8 q56 21 77 61v41q-25 42 -116 78h-48q0 21 -155 55l-94 39v-8zM356 1231l17 -47h14l-6 8v8l6 8v9zM365 707l22 -17v17h8l8 -9h9l-9 25h-22zM365 1270q16 0 16 -39l53 16l17 -16h8l14 16q-30 0 -39 64h-31q-34 -19 -38 -41zM387 659l8 9h8q0 -17 31 -17l-8 -8v-8q16 0 16 -23 l9 9h8l8 -9h6l8 31q25 0 25 -31h6q0 31 16 31h17v16l-33 31l-45 -31h-55v9l8 8v6l-8 8h-9l-16 -14v-17zM442 1184h9v24h-9v-24zM467 1184h22v8h-22v-8zM473 1026q82 -58 227 -108l80 -78l23 -9l-8 9v22h8l8 -8h8l-8 8v25l16 22l-32 17l-7 -8h-8l-8 8h-8l-31 -8v63l6 6v8h-14 v9l8 8v8q-16 0 -16 31l-8 8h-9v-8l9 -9h-23q-17 17 -72 17v8l-8 -8h-8l-14 14l-39 -6l-8 6h-9zM481 1081l8 -8h17l-8 41h-17l8 -8v-8l-8 -8v-9zM489 1128h17l6 25h-14zM506 1231h14v16zM528 1120h9l8 8v9h-8l-9 -9v-8zM553 659h6l8 9v8h-8l-6 -8v-9zM553 1223l14 -15h8 l-16 15h-6zM567 1294q0 -12 31 -24v33l-14 14l-9 -6v22h-8v-22h8l-8 -8v-9zM598 676l16 -41h9l16 16v8h-25v9l9 8v6zM678 1270h8l23 8v8l-31 8v-24zM700 573h25v7h-25v-7zM700 651h17v8h-17v-8zM725 1106q0 -47 31 -47l8 -8q0 -25 16 -25l39 41l17 -16v16h14q0 -25 47 -25 l8 9l-8 8v14l8 8v9l-8 8l33 8l6 -39h8l33 23h31v-17h16v17l39 -9l-8 -8v-6h14v14q0 57 -45 72l6 23h-39l8 -9v-14h-30q0 42 -56 86l-8 -8h-8l-70 24l-63 -8l-16 -30l8 -9q-17 0 -23 -47l-8 -8l8 -8h6v-25zM756 1145l8 8l8 -8h8l23 8l8 -8v-17l-23 -22v8l-8 -8h-16zM764 596 l8 -8h8v8l-8 8h-8v-8zM772 510h16v-25l-8 -39l8 9l39 -9v9l-8 8v8q45 39 78 39v47h-39l8 -8v-31h-8l-8 8h-8l8 6v9q0 16 -23 16v8q0 20 31 23v8l-70 16l7 -8v-8h-7l7 -8v-8l-7 -7v-8h15v-39l-31 -8v-8zM772 862v8h23l-7 -22zM780 901l15 17l16 -17v-6zM788 1161v31l15 16h8 l16 -16v-8l-24 -23h-15zM819 399h17v9h-17v-9zM883 801h14v8h-14v-8zM944 1098v8l17 47l30 -16v8l8 -8h9l8 8h8l6 -8v-31zM961 485h16v9h-16v-9zM969 840h8l6 8v14h-6zM999 526h9l16 15v16h-16zM1038 1059h9v14h-9v-14zM1047 1184h8l8 8v8h-8l-8 -8v-8zM1077 1020h8l9 6v8 h-9l-8 -8v-6z" />
<glyph unicode="T" horiz-adv-x="1067" d="M-20 1208v78q35 78 157 78l8 8l62 -14l24 6q793 -59 793 -86q61 -40 61 -102v-15q-24 -102 -102 -102l-6 8h-8l-25 -8l-266 55l-33 -16l8 -25l-47 -532h8l-16 -86l8 -9v-8q-9 -164 -39 -164l25 -30q0 -194 -119 -228v9l-22 -9q-142 12 -142 117q37 582 78 981l-14 14 l-78 -8h-64l-47 17l-63 -9q-94 0 -141 80zM74 1317h24l15 16v8q-39 -9 -39 -24zM129 1184l16 -17l7 25h-23v-8zM467 127l6 -8l64 8v6q-39 0 -39 55h-9l-16 -16v-14h16z" />
<glyph unicode="U" horiz-adv-x="1253" d="M-20 1073q16 99 77 166l127 55q128 0 203 -118q43 0 64 -807l16 -47h-8q30 -134 203 -134h77q47 0 88 86l9 109l-33 723l16 55h-8q65 164 205 164l69 -14v6q156 -62 156 -266l33 -668q0 -275 -141 -422q-143 -158 -549 -158q-86 0 -86 17l-9 -8q-180 34 -180 86l-30 32 l-9 -8v-8h9l-9 -23h-47q0 30 -86 101q-127 219 -127 391l8 88l-14 39zM207 438h24l17 17l-8 8h-33v-25zM231 510h17v8h-17v-8zM262 102h17v9h-17v-9zM301 463l25 -8v8l-9 8h-16v-8zM365 94q22 0 22 -31l47 -22l-8 6v8h8l-14 47h-8l8 9v8l-17 14l9 8h-9l-38 -14v-33zM403 377 h9v14h-9v-14z" />
<glyph unicode="V" horiz-adv-x="1325" d="M-20 1137q11 0 38 94q91 99 158 102v-8l39 16q82 -24 141 -77q61 -42 95 -222v-16l-17 -45q42 0 72 -102h-8l39 -125v-17l-9 -8v-6q31 0 86 -229q18 0 39 47l-8 8q13 3 158 377q82 297 133 297l41 16l-8 8v8q0 16 47 31v-8l78 25h16q164 -74 164 -175l6 -30v-47l-6 -9 l6 -8v-8l-109 -303h9q-83 -197 -95 -197q-40 0 -61 -41l6 9h25l14 -15q-24 -55 -45 -55l-8 8h-8l-56 -24v-9q38 0 56 -55l-181 -405q-101 -119 -221 -119h-39q-77 10 -164 71q-69 69 -196 517q-39 79 -117 346l14 47h-6q-47 0 -118 336zM262 745l8 -38l9 8h8l8 -8h6l8 30 l-14 17l6 8h-22zM279 532h22q0 33 16 33l17 15h-8q-47 -18 -47 -31l8 -8zM279 987h16l-8 -53q14 0 14 47h8l-8 6v17l8 8v8h-8v-8l-6 8h-16l8 -8v-8l-8 -9v-8zM309 809h8l9 6v16h-9zM334 377h31v6h-31v-6zM342 158h6v14h-6v-14zM342 588l23 24h-9l-14 -16v-8zM412 16h22v9 h-22v-9zM451 16l16 -16h6l8 25h-30v-9zM459 -14v-9q47 -9 47 -32h6v24q-23 0 -23 17h-30zM481 227h17v-8l180 103h8v-17h6q0 45 103 72q0 16 157 78l47 30v17h-8q-79 -52 -299 -142q-121 -89 -203 -116l-8 -8v-9zM575 213l31 23q-31 -12 -31 -23zM662 258q63 26 63 41 q-63 -26 -63 -41zM733 299h6l150 70v8h-6l-150 -72v-6zM952 510h25v8h-25v-8zM969 879l14 -17l8 8h8l-8 9v16l17 14h8l-8 25h-9v-16l-8 8h-8l-14 -17l14 -22h-14v-8zM991 823q17 0 17 -22h8v30h-25v-8zM999 848l9 -8h8v8l-8 6h-9v-6zM1024 965q0 -13 31 -25v25h-31z M1149 948h6v33h-6v-33zM1321 1090v30h6l16 -14l-16 -16h-6z" />
<glyph unicode="W" horiz-adv-x="1591" d="M-20 1153l16 47l-16 70q0 33 30 33v8l8 -8h25l31 55v53l86 25l24 -17l9 8h8l39 -22l8 6q0 -12 78 -53q34 0 86 -316l30 -141q29 0 56 141l-9 9q15 0 39 157q20 97 95 172q57 44 141 64q202 0 266 -291q50 -274 72 -274l47 188l-8 6q46 371 235 371q93 -18 164 -86 q39 -68 39 -141l-180 -857q-68 -344 -111 -344q-68 -77 -155 -77h-31q-91 0 -205 108l-39 80l8 6q-25 0 -78 250l-24 111h8q-15 79 -33 79q-100 -337 -100 -454h-8l8 -8v-9q-58 -149 -127 -149l-78 -23q-140 0 -211 142l-47 164h-8l8 8l-8 39l55 61l-8 25l33 63l-33 6 l-70 -6l-16 23l8 30q-28 0 -110 463zM137 1167h8v17h-8v-17zM145 823h23l-8 -39l24 9l-8 8v22l8 8v9l-24 8l-15 -17v-8zM145 1090l15 -17l8 25zM168 485h8l17 17h-25v-17zM184 1161l17 -16h6v16l-6 6h6l8 -6h8l8 6v9l-8 8l8 8h-8l-39 -16v-15zM295 369h14l8 8v6l-22 -6v-8z M301 745l16 17h-16v-17zM317 1026h9q0 25 16 25v8h-25v-33zM381 377l22 -17h56l-8 9v8l8 6v8h-17l-22 -14l-25 14zM614 330h17v8h-17v-8zM748 612h16v9h-16v-9zM1063 102l6 -22h8v22h-14zM1094 80h16v6h-16v-6zM1094 94h16v8h-16v-8zM1604 305v17h8v-17h-8z" />
<glyph unicode="X" horiz-adv-x="1009" d="M-121 1241v8h25v-14zM-84 756v14l16 -14h-16zM-84 995v9h16v-9h-16zM-76 270l8 9h29v-23h-20zM-59 995v15h8v-15h-8zM-43 778v17h4v-17h-4zM31 264l20 15h25l8 -23l-25 -14h-20zM31 1018v6q0 72 102 106q123 -27 217 -202q45 -53 119 -201h23q13 3 145 260 q114 172 184 172l60 -14h22l25 -121q-35 -96 -279 -514v-14q359 -377 359 -494v-6q-27 -98 -105 -98h-8q-97 0 -176 155l-205 234h-22q-3 -36 -43 -76h-23l-43 68l12 28l-8 8h-4l-18 -14h-23q-82 64 -82 96q48 21 90 99v14l-94 133l-8 -6q0 44 -180 276q-37 58 -37 105z M31 1272v14h12v-14h-12zM39 -29q0 59 176 336l33 25h12q114 -132 160 -135v-17q0 -37 -90 -133q-22 0 -25 -31l-6 -6h-6l-45 15v-15l20 -30v-23q0 -51 -82 -88l-53 -8q-73 0 -94 110zM39 1114v16h12zM51 1167v15h8v-15h-8zM59 1182v14h17v-14h-17zM127 1257v15h6v-15h-6z M276 225h7v31h-7v-31zM283 1114l10 23h20v-23h-14l-6 -6zM293 250l6 -8h6v8l-6 6h-6v-6zM293 1159v17h12v-17h-12zM322 1130v15h8v-15h-8zM338 1100v22l12 -14v-8h-12zM403 391l17 -14l12 14v6h-29v-6zM403 1391v16h37l-14 -16h-23zM426 338h29v8h-29v-8zM449 1399v22h28 v-14zM465 39l4 8v6l-4 8v9l4 8q33 -11 33 -25v-14h-37zM465 106h4l16 -14h-8zM522 53v17h15zM522 973v14h8l17 -14h-25zM530 1413v8h17v-8h-17zM555 47v23h12l15 -17l-7 -6v-8zM555 1264v22h27l16 -51q-43 15 -43 29zM559 1444v14h16v-14h-16zM764 1145v14h4v-14h-4z M784 668v6h17v-6h-17zM821 778l15 17v-17h-15zM928 1526v14h12v-14h-12z" />
<glyph unicode="Y" horiz-adv-x="1019" d="M-20 1270v16l55 39l16 -31l-8 -24h-63zM51 1073l47 25q0 -25 62 -31l-8 6v8l16 17l-64 102q-41 0 -53 55l15 15l-9 8l64 33l39 -17l8 9l8 -25l-8 -23h8q133 -83 133 -141l-14 -63q14 0 47 -39q31 0 31 -47q-12 -31 -25 -31l-6 6v-6q46 -125 70 -125h39q3 -32 30 -47h17 q35 37 116 211q185 329 244 344l47 16h8q67 0 125 -110q0 -87 -125 -236l-71 -108q-14 -36 -31 -39h-39l-8 8h-8l8 -8v-9l-16 -16h-9v25l-14 -17l-8 8h-8l-9 -8l-8 8h-6q-51 -12 -72 -55l9 -22l-17 -39h8l-8 -8v-9q14 -41 39 -63l8 8v-8l39 16l8 -8v-22l-22 -41h-39l-16 -15 l8 -47l-17 -16l17 -31q-16 -99 -33 -119v-69q0 -26 -23 -64l17 -31q-21 -163 -119 -163l-39 -9q-98 0 -125 142l17 327l16 47v17q-42 9 -174 313q-117 178 -117 211zM113 1026h8l8 8v8h-8l-8 -8v-8zM129 987h8l8 8l-8 25h-8v-16l8 -9zM145 1026l7 -6h16v6l-23 8v-8z M176 1020h8v14h-8v-14zM184 1051l23 16h8l-14 -63l6 -9h8l8 9v-9l8 9h9q22 0 22 -31h33l-8 8v6l8 8v9h-8v-9l-39 9v8l14 14h8v-14h9v8q0 22 -39 22v9l8 8v8l-17 14l9 9v8h-39l6 -8v-9q0 -14 -23 -14v-16zM309 987h8v33h-8v-33zM412 344h30l-22 25l-8 -9v-16zM442 274h9l8 9 v16h-8zM592 651h6v25h-6v-25zM725 737v25l31 31h24v-39l-16 -31h-25zM819 1161h8v15h-8v-15z" />
<glyph unicode="Z" horiz-adv-x="1355" d="M-12 147q0 64 116 250l142 39q14 0 14 25l47 16q20 75 213 205q0 16 228 195v8q-502 71 -502 172q-16 0 -25 39h8l-8 8v55q0 63 111 189q172 -9 172 -25l8 8q289 -45 360 -78l23 9l143 -33l23 8l188 -47q125 -85 125 -189h-8l16 -38q-47 -168 -163 -250l-605 -496 l164 -31l8 9h9l147 -39l25 8l16 -17h61q35 0 56 -30q33 0 55 -31q77 0 86 -88l-6 -39q22 0 22 -31q0 -51 -47 -110q-30 3 -30 24h-9l-24 -16h-8l-6 8h-9v-8l9 -8l-9 -8h23l24 16l17 -16v-15l-8 -8q-80 -27 -80 -39l-8 6h-7l-8 -6h-8l-55 14l-23 -8q-57 9 -80 25l-30 -8 l-64 24l-6 -8h-8l-197 47l-8 -8l-446 78q0 63 -86 63q-64 24 -64 39h8l-8 8l8 64q-14 0 -14 22l6 9v8zM104 313h25v9h-25v-9zM240 352h22v17l-22 -9v-8zM270 377l25 6l-16 16z" />
<glyph unicode="[" horiz-adv-x="610" d="M31 106v87h10v-87h-10zM31 279v20h10v-20h-10zM31 326v28h10v-28h-10zM47 31v37l12 10l-12 8v39l12 88l-12 27l12 59l-12 47l12 8l-12 11h21l-21 18l12 10v58l-12 10l21 86l-9 8v57l19 29v21h-19q15 57 68 57v8h-21v10l11 29h10q0 -18 27 -18v-11q-20 -39 -58 -39v-8h10 l48 19v-11l49 11l-10 10v8l26 31h-6l-20 -21v21h-11v-21q-19 0 -37 58q25 0 25 28v11h-6v-21h-10v21l-9 -11h-12v11l31 38l-10 27l-9 -8h-18l-21 47l11 29l-31 -19h-8v19l28 10l-10 8v21h31l-10 10v8l16 20h-16v9q34 67 47 67h18v-18h-18v-10l49 -19v8l-10 11h16v10h-26v8 l38 20h19l-10 11v8h10l8 -8h10l-18 26l8 29h21v-18l-11 -11v-8l11 -10h20l-10 68l10 -11h6l12 11h11l8 -11v21h18v-39h-37v-21h11l26 11l-10 -11v-8h10l-10 -10v-8l10 -11v-10l-49 -28l23 -19h8q0 37 18 37v-115l-10 -10l10 -8v-57l-26 18l-11 -8v-68l19 -18l-8 47v29h16 l10 -48v-49l-10 -37l10 -10v-10l-10 -39l10 -162v-344h60q188 0 188 -125v-10q0 -133 -141 -133h-248l-49 10v-10q-104 46 -117 78zM59 1464v21q52 76 191 76l8 -11h10l37 11q31 0 31 -39h18l-10 10v29h39l8 -11l31 11q180 0 180 -136h-8l8 -8v-10q-12 -104 -102 -104 l-11 10v-21h-124v21l75 26h29v11h-55l-11 -11v21h-12q0 -24 -74 -68h-18v21l18 18l11 -10l26 10v8h-18v60h-8l-11 -31l11 -8v-21l-97 -36l-12 10v-21q-16 0 -16 29l-10 -8h-11l-18 18h-10v-18l-9 8h-12l21 57v11l-9 -11h-28v39l-31 -18l-8 37l8 10q-27 0 -27 18zM78 1081v21 h8l10 -10h10v10l-28 8v20l28 11l39 -11q0 -20 -28 -20l10 -8v-21h-21v-8zM86 1053v10h20v-10h-20zM96 1368v21h10v-21h-10zM117 977l10 -10h6v10l-6 8h-10v-8zM117 1303v10h16v-10h-16zM127 776v10h18v-28zM145 680h19v10h-19v-10zM145 1159v19h25v-19h-25zM154 977h16v18z M164 1034h18l-12 -10v-8h12q0 18 37 18v10h-26l-11 -10v10l11 9v10l-29 10v-39zM170 766l23 20v9h-23v-29zM170 920h12v18h-12v-18zM182 985l31 -8v-10l-20 -29l10 -8h10l6 8v-18l31 10q0 18 -37 18v10h18q-3 19 -49 37v-10zM193 662h20v10h-20v-10zM193 1120v21h20l-10 8 v10h16v-18l-16 -21h-10zM219 872h12v19l9 -10h10v10l-10 8h-9l-12 -8v-19zM219 1227v8h21v-8h-21zM219 1282v10h21v-10h-21zM231 1206h19v-18zM240 680h18v10h-18v-10zM240 1092h18v10h-18v-10zM240 1253v21h10v-21h-10zM240 1407h39v10h-39v-10zM258 1274v18h21zM279 1245 v19l38 18l11 -29l-11 -8h-38zM317 1475h11v38h-11v-38zM328 555h8v78h-8v-78zM336 1274l18 18v-18h-18zM365 1503l18 -18v8l-8 10l8 10h-18v-10z" />
<glyph unicode="\" horiz-adv-x="454" d="M-20 1274v72q20 51 104 51h31q56 0 133 -348v-13l-10 -10l10 -8l164 -690l-11 -82l11 -41h-21v-10l10 -11v-51l-10 -10q-42 0 -82 61h-10l92 -174l-10 -10v-20l10 -11l-31 -12l-61 33q-60 171 -319 1284zM166 1059l20 -23v23h-20zM207 985h8v23h-8v-23zM207 1036l8 -10 h12l-12 10l12 31v10h-12l-8 -28v-13zM412 -31l10 51v62h20l-10 51v92h10l31 -164v-20q0 -57 -51 -72h-10z" />
<glyph unicode="]" horiz-adv-x="647" d="M27 55v39q0 115 192 115l21 -19v-10l-11 -47l11 -57l-11 -10l11 -11v-67l-11 -8v-11h11l-11 -28h-77q-125 24 -125 114zM27 1411v10q0 115 153 133l10 -8h11l28 8l11 -75h8q0 69 28 75h11v-18l39 18v-8l28 8q250 0 250 -161v-1289q0 -119 -135 -163h-172l-49 10v29l8 -11 h10v19h-18v10l18 57l10 -10h11v68l-11 10v10h11l-11 29l-10 -10h-10l-8 10v28q0 19 28 19v57l11 10l-11 11v721q39 -9 39 -50h11v279l10 10l-10 10v173h-11v-58h-18v-8l8 -10v-11l-18 -18h-11v105q-20 0 -20 -58h-16v58l-21 -19v-29l10 -96h-98q-89 0 -104 125zM170 1354 l31 10v29l-21 18zM170 1421h10v19h-10v-19zM240 1364h8l8 -10h10l-10 -11v-10l10 -28v-9h-10zM248 141h18l10 -37h-20zM266 1489h10v18h-10v-18zM276 1133v18l11 10l-11 10v19h29v-39l-18 -18h-11zM276 1200v78q23 0 29 -49l-8 -10l8 -11l-8 -8h-21zM315 487h11v60h-11v-60z M315 641h11v21h-11v-21zM315 815h11v29h-11v-29z" />
<glyph unicode="^" horiz-adv-x="768" d="M20 1044l56 115l8 -6h6l-6 21q67 126 86 129l6 -7h8v13h-22q0 41 47 41l6 34h-6q30 94 70 121l38 -12v6l-47 12l17 35h155q39 -36 297 -475l-28 -27h-197q-16 0 -141 291q-15 -3 -142 -291h-180l-8 9l-6 -9h-17zM176 1317h8l9 6v6h-9l-8 -6v-6zM193 1358v6l8 20h8v-20 l-8 -6h-8zM209 1323h6v12h-6v-12zM240 1350l16 14h-16v-14zM334 1405h14l25 6v6h-25zM334 1493l8 -8h6v8l-6 6l6 6h-6l-8 -6v-6z" />
<glyph unicode="_" horiz-adv-x="1572" d="M-20 -223l65 78v24h930l20 -24l23 24h485q88 -52 88 -153q-43 0 -43 -76l-22 -27h-856v51h-23v-51h-579l-88 103v51zM932 -172v-102h20l66 26v25h-43l-23 -25v51l23 25v27h-23z" />
<glyph unicode="`" horiz-adv-x="430" d="M0 1534l16 14h172q86 0 86 -30l9 8h8l14 -17l-6 -8v-8l6 -6h-14v-8h8l23 8l69 -135l-8 -9q41 -15 41 -61v-8l-47 -8q-100 0 -141 47h-9q-172 141 -227 221zM119 1518h14v8h-14v-8zM141 1415h9l16 17l-8 8h-17v-25zM172 1368h16v8h-16v-8zM172 1446l16 -14v14h-16z M180 1479h17v8l-17 14v-22zM197 1432l16 14h-16v-14zM205 1399h8v16h-8v-16zM274 1296h17l-8 9v8l8 8h-8l-9 -8v-17zM274 1343l31 9v8l-14 16zM299 1454h6l17 16h-23v-16zM305 1393h17l-9 -9v-8l47 8l-16 31l-22 -16l-9 8l-8 -8v-6zM305 1432h17v14zM313 1352h17v8h-17v-8z M330 1313h14l-6 24h-8v-24zM330 1384v15h14v-15h-14zM338 1352h31l-17 16zM344 1296h16v9h-16v-9zM377 1305l22 -9v25h-8z" />
<glyph unicode="a" horiz-adv-x="1320" d="M-96 551v14h14v-14h-14zM-74 840v14h8v-14h-8zM-23 61v29q3 20 60 37v8q-22 0 -43 111h6l-6 8q15 89 110 354l-8 8q31 16 31 97l6 -8h8q205 690 275 690q51 51 110 51h37v14q134 0 193 -65l8 6h29v-23l-9 -6v-8q37 -24 142 -303q114 -178 141 -178v-6l-23 -23l-8 6h-8 l-6 -6l-6 6l-8 -6v-8l8 -6h6l-6 -37l20 -25l8 8v-14l-16 -22l8 8h8l9 -8h6l-6 -45h6q0 17 31 36h6q28 -29 90 -198l37 -15l6 7h31v-15h-23v-8h14v-14l-8 8h-6l-23 -8l52 -156h-15q0 31 -125 156l74 -125q66 -53 74 -97q0 -96 -119 -178l-82 -30l-57 16l-8 -8v8l-9 -8h-8 q-97 54 -153 215l6 8h-15v6l9 8q-18 43 -54 43l-36 -6l-29 6l-76 -14l-6 8l-82 -14l-59 14h-37q-65 -311 -238 -311q-77 0 -139 45v-8l14 -15q-41 0 -65 -30h-23zM-23 528v15h17v-15h-17zM-23 766h17v-16zM-14 854v14l22 -8v-6h-22zM8 860v8h15v-8h-15zM23 727l14 14v-14 h-14zM31 772h6l14 -14v-8h-14zM31 1030v8h14v-8h-14zM45 571v23l14 -14l-8 -9h-6zM59 682v8l15 15l8 -7v-16h-23zM74 815v8h14v-8h-14zM104 928h23l-8 -23h-8zM119 -102l8 8h6v-23zM141 772v6h15v-6h-15zM156 1047v6h14v-6h-14zM170 16v15h23v-6l-15 -17zM184 965h17v-15z M342 840l117 -82l8 8q0 -31 37 -31q-14 -88 -45 -155l8 -9v-6l-14 -22h6l147 119l164 -105h8v8l-73 176l28 25l-28 29v14q23 0 59 -31l94 90l-147 -8q-23 0 -60 -29v9l8 20l-22 8l14 15l-37 73h9l-29 82h-8l-54 -192h-14l8 -23l37 8v-16l-45 -6l-6 37h-39l-6 -6l-8 6z M422 823h14v-14zM467 8v17h14zM473 305v14l16 -14h-16zM489 172v14l29 9l14 -23v-6l-28 -16zM504 291v14h14zM504 766v6h22v-6h-22zM518 291h14v-15zM526 1528v37l15 14h22v-6q0 -39 -22 -45h-15zM555 840v6q14 0 14 37l9 8h-15v14l23 -8v-20l-8 -9l8 -8v-6l-23 -23z M563 786v23q23 0 23 22l8 9h6l23 -17v23h8l6 -23l-6 -8l6 -6l-6 -6h-17l-20 12h-8q0 -29 -23 -29zM637 815l14 16v-16h-14zM651 698v23h8v-23h-8zM651 741v9h17v-9h-17zM659 721v14h9v-14h-9zM682 815v25h6l17 -17zM784 831v15h17v-15h-17zM807 283v8h14v-8h-14zM815 1415 v17h14v-17h-14zM954 1083v7h25l-16 -15zM979 1171h12v-14zM991 1126l8 9h9v-23zM1028 993v8l25 9l6 -9v-8l-15 -14zM1053 840v14h6v-14h-6zM1067 750v16h6v-16h-6zM1073 1053v8l17 14h6v-8l-15 -14h-8zM1081 758v8h15v-8h-15zM1096 1180l14 14v-14h-14zM1169 831v23h9v-23 h-9zM1237 98v15l29 8v-23h-29zM1251 446l9 23l-9 6l9 8h14l6 -53l-6 -6h-8q-15 0 -15 22z" />
<glyph unicode="b" horiz-adv-x="1153" d="M23 1300l8 11l727 30q168 -38 246 -153q27 -82 49 -82l-9 -41h17l-8 -49l8 -33l-123 -221h-33v8l8 8v8h-24q0 -32 -33 -32l16 -17l-8 -8v-6q49 -64 49 -90h25v6h-16v16h16l-8 41l-8 -8h-27v8l76 66q0 22 41 49v8l-17 17v16l31 8q0 -24 76 -24l8 -9v-41q-57 -63 -131 -63 v-27q172 -120 172 -268l-8 -82l8 -8v-8l-35 -66l-6 8h-16q0 -77 -189 -172q-65 -32 -155 -32h-91q-6 131 -24 131h-8v-113l8 -10v-8l-25 -9l-456 -16q-82 30 -82 107l-9 303l-8 8h8l-8 8v47l8 35l-8 33l8 -9h9v9q-24 0 -33 334l16 32l-16 17v16q41 0 41 25h-8v-9l-41 9v8 l8 8l-8 25zM63 639h9v16h-9v-16zM72 543l8 -8h16l8 30l-24 10zM88 633h8l8 22l-8 9h-8v-31zM96 999h17v9h-17v-9zM96 1090h17l8 8v8l-25 -8v-8zM170 371h25l-9 8v8l17 41h-17q0 -33 -16 -33v-24zM203 444h16l-8 9v8l8 8h8l9 -25h8q0 17 24 17v8q-24 0 -24 33l-17 -17h17v-16 h-8l-17 16v9l8 8v8h-8l-16 -49v-17zM211 379h8v16h-8v-16zM227 412h9l8 8v8h-8l-9 -8v-8zM236 395h16v8h-16v-8zM635 1122l16 17h-16v-17zM856 1163q34 9 49 39h-10zM881 713v16h14v-16h-14zM938 1130h8l8 9v8h-8l-8 -8v-9zM954 688h9l8 8v9h-8l-9 -9v-8zM963 526h8l8 9v8 h-8l-8 -8v-9zM1036 868h17v-16zM1094 868v17l22 24h8v-16l-22 -25h-8z" />
<glyph unicode="c" horiz-adv-x="1239" d="M2 602h12v12h-12v7q0 456 379 600l162 30v-12h6q10 0 10 18h94l-6 -6v-12h19q12 0 12 18l61 -6l27 6v-18q-21 0 -21 -12h21l-14 -43h14l25 49l-9 18h9q161 -15 276 -98h-10v-12h10v12h6q49 -34 70 -61l-6 -7q31 -3 55 -81q12 0 12 -62q0 -125 -110 -168h-13q0 18 25 21 v12l-49 -39h-45q0 27 -43 27v16h-13v-10q-156 123 -186 123q-21 12 -68 12h-36l-19 18h12v13q-24 0 -24 12h-6v-12h-6l-31 24l-12 -12l-25 -6l-6 -6v-19q0 -9 61 -24v-6q-24 0 -98 -74h-6v-6l6 -7q-45 -74 -45 -198l-6 6h-6l-6 -6v-6q0 -13 18 -13l12 -73h-18v-9 q0 -12 24 -12v-18l-6 -6v-7q19 0 37 -67l64 -68l30 -12l6 -6l7 6l55 -6q61 0 82 18l6 -6h10q3 14 205 148l55 6h21q153 -30 153 -172q0 -104 -137 -211q-92 -62 -135 -62l-18 19h-13q6 -27 25 -27v-6q-124 -31 -266 -37q-187 0 -367 82v6q20 0 20 12q-14 0 -14 19h-10 q-12 0 -12 -25q-281 177 -281 502zM23 553h6v10h-6v-10zM29 465l6 -31h10l21 19v6l-7 -6h-14v12h-4l4 6v12h-10zM35 502h10l21 18h-13l-18 -6v-12zM53 483l13 13h-13v-13zM158 217h12v6h-12v-6zM195 596h18l6 31v12h-12zM207 688h12v12h-12v-12zM225 725q38 19 94 82h7v4 h-21q-37 0 -37 -43q-43 -15 -43 -43zM238 862h18v6h-18v-6zM252 229h16l15 13h-9l-6 -6l-6 6h-10v-13zM274 205q31 0 31 -25q27 0 45 -18h19l6 18l6 -6h25q15 0 18 31l-105 -12l-20 30q-25 -9 -25 -18zM295 260l31 -31h6q12 0 18 31l-37 12h-18v-12zM305 330h14v18h-14v-18z M319 756h19l6 51l-25 -6v-15l7 -6l-7 -6v-18zM332 823h12v15l-12 12v-27zM344 862h12v19h-12v-19zM350 774h6l6 6l7 -6h18v6q0 34 -18 37l-13 -10l6 -21h-12v-12zM362 242l13 -13h6l-12 43h-7v-30zM362 887h7v12h-7v-12zM369 905h12v13zM387 862h12v6h-12v-6zM393 807h13v4 h-13v-4zM406 143h18v13h-18v-13zM430 279l25 -23h6l-6 31l6 6l-6 6l-25 -6v-14zM430 303h6l6 6h7l6 -6l6 6v8l-31 7v-21zM430 795l25 -15l6 6v9l-6 6v6l6 4l-6 6q-22 -6 -25 -22zM455 199h24l13 12l-25 25h-6l6 -7v-6zM473 823l12 15h-12v-15zM485 180h13v6h-13v-6zM498 930 l14 -12l4 6v6h-18zM555 174h12v12h-12v-12zM555 193h4l14 12v12h-14zM555 250h4l14 10l-6 6h-8l-4 -6v-10zM567 287l13 12h-13v-12zM592 236h6l12 14v6h-6l-12 -14v-6zM610 287q0 -15 19 -15l-13 -22l31 -21l31 7q-6 23 -43 43l-6 -7v15h-19zM610 293h19v10h-19v-10z M635 1159q18 -15 18 -31h6l19 13l24 -13l13 19v18l-13 13h-6q-15 0 -18 -25h-12v12l-13 13h-6l-12 -13v-6zM641 1190h6l12 12v12h-6l-12 -12v-12zM702 1024l7 -8h6v8l-6 4h-7v-4zM709 27l6 -9h6l6 9v6l-6 6h-6l-6 -6v-6zM727 217h18v6l-12 13l-6 -7v-12zM733 180l33 6v13 l-33 -6v-13zM733 997l6 7h27l-14 -13q9 -24 18 -24h12l-6 24q19 0 33 33q-20 0 -49 16h-21l-6 -30v-13zM752 293l14 -14l4 8v16h-4zM782 94h9l12 12h-21v-12zM782 242l15 14h-15v-14zM782 936l27 -6v12l-27 6v-12zM791 973l6 6h6v-12h10q14 0 14 18l7 -6h6l37 12l24 -12 l6 31h-6v-13l-31 31q0 16 31 19l12 -13h7l36 27l-12 10v-10h-6l-6 6l-25 -12q0 7 -24 16v14l-31 -8l-6 8v7q-55 0 -55 -45v-7h6l22 27q21 0 21 -33l6 6h12v-16h-24v-14l6 -6v-7l-31 -18l-6 6h-12v-12zM813 936h14v12h-14v-12zM840 106h24v7l-18 18l-6 -6v-19zM840 379h12v12 zM840 1159q37 -6 37 -31l18 -6l6 6l-6 7v6l6 6v6l-18 6l12 43h-6q-49 -15 -49 -43zM858 930l12 -12h13l6 6l6 -6h12v6q-15 0 -24 18l-6 6l-19 -6v-12zM870 242h25v14h12v-14l6 8h7l-7 49l-18 -20v-7l6 -6v-6l-31 -4v-14zM913 1135h13v6h-13v-6zM920 1010l12 -13h6 q43 0 43 31h6q0 -18 12 -18l13 24h-19v6l6 7v8l-18 12q-29 -51 -49 -51h-12v-6zM920 1071h12v6h-12v-6zM932 1184l12 12h-12v-12zM944 293l31 -6h12l6 22l-6 8h-43v-24zM975 137h12v6h-12v-6zM975 266l6 -6h6l12 12l-6 7h-6zM1006 229l14 13h-14v-13zM1006 266h6v13h-6v-13z M1012 795h8v12h-8v-12zM1012 811h12v6h-12v-6zM1020 174h31v12l-27 7l-4 -7v-12zM1036 936h15v12h-15v-12zM1042 287l15 12h-15v-12zM1063 180l10 13h-10v-13zM1081 1067l6 -6h7l12 10v6h-12zM1087 256h13v10h-13v-10zM1106 287l6 -8h6l19 20l-7 4h-18zM1106 330h18v18h-6 l-12 -12v-6z" />
<glyph unicode="d" horiz-adv-x="1107" d="M-80 -178h17v-25l-17 17v8zM-72 -350h19v-25h-19v25zM-72 1249v23l19 16h12v-39h-31zM23 238q47 927 63 1003q47 72 84 72l8 -8q0 22 47 22q19 -22 19 -55q13 0 28 55l39 -14l8 6h39v-14l19 14q299 -12 299 -31v-8h12l-6 8v8h6q199 -55 199 -71q74 -53 94 -86 q45 0 106 -172q39 -74 39 -250q0 -474 -344 -621l-125 -22q-596 0 -596 53q-26 38 -38 111zM139 1266h8l11 6v8h-11l-8 -8v-6zM166 1280h4v16h-4v-16zM299 340l117 6l213 -6q89 0 172 109q53 127 53 251v39q0 240 -139 314q-149 55 -338 55l-10 8l-9 -8v8l-39 -16v-8h19z M330 1288h12v17h-12v-17zM350 1210l8 -8h9v8l-9 7h-8v-7zM350 1266h33v6h-33v-6zM350 1288h17v8h-17v-8zM416 756v8l14 14h14v-22h-28zM516 825v17l16 14l48 -6q-6 -25 -64 -25zM563 684q0 19 39 25v-25l-14 -14h-8z" />
<glyph unicode="e" horiz-adv-x="1026" d="M-20 184v17h16v-17h-16zM-12 145l30 9l9 -9l8 9v8l-8 8v6q0 33 39 33v14l24 -8l39 8h39v17h16v-17h17v17l14 16h8l64 -41v8l-72 56h-8l8 -9v-14l-47 -8l-47 8q-23 0 -23 -25l-71 9l16 55l-16 14v47l8 25l-8 39v78l8 71l-17 164l9 47v78q-23 87 -23 211v49l-8 6 q0 166 235 166l627 17q94 -27 94 -95v-32q0 -62 -94 -86l-399 -9h-180l8 -280h202v-17h39l111 9l78 -17l47 8q172 0 172 -77q0 -95 -53 -95l-17 -47l8 -32l-8 -7h8l9 7l-9 -31q-34 0 -79 31v-7l8 -8v-8l-8 -8h16v-17h-47l8 9v24l-8 8l8 31h23v-16h32l-8 47l8 -8h9l6 8h8 l8 -8v8l-8 8v8l-55 -8h-78l8 -8v-8h-39l6 8v8l-413 8v-321l16 -64l53 8h432v64l-8 6l8 33h23q0 -45 24 -72l-8 -6l8 -25q47 0 56 39h14v-8l-8 -22h8l25 -9v25l8 -8h14v22l-8 9v-17l-31 -6q3 39 25 39v6h-17l17 16h6v-16l8 8h17v-8l-9 -6l9 -33l8 8h14v-14l-14 -25v-16l22 16 v-16l-8 -6v-8q18 0 33 -72q0 -68 -127 -109l-6 -8l-111 17q-33 -3 -33 -25l-61 8l-211 -16l-8 8v8l-47 -8l-117 8l-111 -16l-39 16v-8q-49 0 -102 102v23l-8 -6h-8q-39 9 -39 22zM4 162l14 14l9 -6v-8h-23zM10 184l17 17v-17h-17zM18 961l48 -9q-3 15 -39 31zM74 944l71 -31 h15q0 24 -78 39h-8v-8zM287 256v14h14l16 -14h-30zM420 162q0 -16 61 -25h8v8zM498 129l69 -14h25v14l-39 8h-55v-8zM748 561v17h24v-9l-16 -16zM748 584v8h32v-8h-32zM756 434l16 17v-17h-16zM764 373h8l-8 8v6l16 16h8q48 -31 48 -61h-64zM788 459v16h15v-16h-15zM827 592 v8h15v-8h-15zM836 373h6l8 -8h8l-16 30l16 47l-8 25h8q0 22 -22 22l6 9v8l32 -17l-8 -8v-6l17 -41l-17 -14h17l6 -119l-6 -6h-9q-6 39 -24 39l-8 -8zM842 287l8 8h8v-33h-8zM897 537v16h16zM905 342v14l17 -14h-17zM913 373l23 22h8l-22 86l8 33v39l39 8v-39h-17v-16l9 -31 l-9 -8v-8l9 -8v-9l-9 -30h9l-9 -9v-8l9 -22h-17v-17q25 0 25 -14l-47 -16v8l8 8zM930 569v23l14 16h8l17 -30l-17 -17zM944 317v9l25 8v-17h-25zM961 -365h8l14 -16v-6h-22v22zM961 451v8h16v-8h-16zM969 522q21 0 30 47h9v-16l-9 -23l31 -8q-9 -33 -22 -33h-17zM991 231 l8 25h17q0 -33 14 -33v-30h-14q-17 0 -17 38h-8zM1038 240v16h9v-16h-9z" />
<glyph unicode="f" horiz-adv-x="1062" d="M-203 387v16l25 3l2 -17zM-186 115h10l2 -17h-10zM-135 188l14 2v-16h-12zM-133 86l20 10l9 -6l2 -16h-17zM-121 174l8 8l17 2l4 -22h-10zM-117 127l17 2l-9 8v6l7 11h10l6 -9l2 -22l-14 -17l-17 -2zM-104 -178l18 2v-25l-18 15v8zM-98 12l24 2l2 -32zM-88 193l12 2 l2 -17h-12zM-61 125l10 8h8l23 -12h8l-2 8h-4q-18 0 -21 14q0 14 23 17l-2 16l-15 -2l-4 33l82 -33l6 8v8l-22 -2l-2 17h16l-2 39l-10 8v6l10 2l4 -8l8 2q22 68 25 213l6 25h4l-6 8l29 182l-9 8l37 201h-8l16 102l-10 6l13 50l-11 22l8 8l13 33q39 3 39 18l-2 9h-17v14h8 l25 -20l-4 -9v-8q14 -33 33 -37l10 2l-2 15q-3 55 -72 73l2 -16h-8l-2 47q0 63 41 66l6 -6q0 13 33 24l401 -35v-8l-6 -8v-6l62 20l12 -22h6l23 16l63 -8l-6 -8l2 -17l14 -14l8 8l9 -8l16 2l6 8l58 -24q22 3 34 41l9 2l20 -15l4 9l47 4l8 -9l9 2l-33 -325l-33 -4l-502 51 l-14 -152l459 -45l-15 -301l-270 25l2 -17l-22 -2l-3 17h19l-2 8l-143 10l8 -6v-8l-6 -8l-17 -2q-3 30 -14 30h-2l-6 -39l22 3q0 -23 -35 -35l-10 6l-4 -39l16 2l2 -16q-21 -3 -30 -113l16 2l2 -25q-26 -3 -26 -118v-33l-11 -57l17 2l-4 -48l-64 -6l-6 9l-10 -3l-6 -8 l-13 31l-37 -18l-8 6h-8l-39 -13q-3 20 -121 29l2 -6h-8q-46 0 -49 43q-3 29 -18 29l-19 -2l10 -7v-8l-14 -16l-8 22l-8 -10h-17l-2 31l15 24l-11 9l-6 -9l-14 -2zM-47 268l20 2l-4 -32l-14 -2zM55 -125l15 16l10 3l2 -23l-27 -2v6zM66 -61l18 2l2 -17zM78 -84l12 2l2 -16 h-12zM82 -29l4 9l14 2l2 -9l-14 -16l-6 6v8zM104 -143l9 8h10l2 -23zM111 -33l16 17l14 2l39 -13l2 -8l-39 -10v6l-10 8l-22 -10v8zM113 -498l14 2l2 -16h-16v14zM121 -127l6 8h6l-6 8v17h12l19 -29q-23 -3 -23 -16zM135 -53l25 2l4 -25l-10 -2l-17 17zM143 -139h17l4 -23 l-19 -2zM158 1137l14 16l2 -16l-14 -17zM166 -106h14v-15l-12 -2zM199 1022l12 -8l20 10l31 -12l-2 39l-47 -21l-4 8l-10 -10v-6zM205 -276l20 2l2 -17l-20 -2zM205 -371h14v-14l-12 -2zM211 -80l2 39l16 2l-4 -39zM211 1180l22 -6v8l-10 8l-12 -2v-8zM215 1116l6 10h8l9 -8 l2 -14h-9zM227 1157l17 -14l10 2l12 16l-2 17zM254 1231l14 -14v16zM299 -190l14 2l2 -25l-16 14v9zM307 -127l15 18l8 -8l4 -14l-27 -2v6zM313 -94l15 2l2 -8l-17 -2v8zM319 -258l17 16l6 -8v-14l-23 -2v8zM367 -74l6 8l16 3v-9l-12 -16l-10 6v8zM430 -186l16 2l3 -17 l-17 -2zM438 82l17 2l2 -16h-17zM471 -25q0 24 154 54l10 -9l2 -8l-25 -24l-39 4q0 -16 -20 -19l-6 -8q-25 -3 -25 -22v-2l-8 -2l-41 12zM498 135h14l2 -14l-14 -2zM510 190l22 3v-17l-20 -2zM524 98l47 4l-14 -16l-16 -2zM537 129l18 2v-14l-16 -2zM547 -309l10 16l2 -22 l-12 -2v8zM567 236v8l25 2l-17 -19zM575 1212l3 -16h8l-2 16h-9zM584 143q0 18 37 27l38 -6l3 -6l-62 -31h-14zM598 88v16h12zM598 317v7l23 26l8 -8v-6l-23 -19h-8zM606 49v8l8 9l39 4v-17l-37 -10zM623 1217h16v8h-16v-8zM625 -328l14 2l2 -16h-14zM633 414v8l6 8h12l2 -6 l-14 -16zM682 451l25 2v-17l-23 -2zM684 254l23 2l-7 -25l-14 -2zM694 1198h8l9 10v9l-9 -3l-8 -8v-8zM721 -414l20 2l2 -14l-20 -2zM739 61l17 2l4 -16l-19 -2zM756 -379l14 2l2 -14l-16 -2v14zM813 918h8v16h-8v-16zM827 -301l7 8h8l16 -12v-8l-22 -2l-9 6v8zM850 362 l20 3v-9l-14 -16l-4 6zM891 -469l12 2l-10 -16zM920 -473l18 2v-16l-16 -2zM1090 115l18 2v-17h-16zM1237 4v8l8 8l-2 9l35 -6l-16 -17zM1239 -547l23 2l14 -30h-10l-27 20v8z" />
<glyph unicode="g" horiz-adv-x="1443" d="M-102 -293h16v-16h-16v16zM-80 -35h17v-8h-17v8zM-72 -215l9 8h22v-22h-14zM0 -467h14v-14h-14v14zM31 664q0 329 233 565q206 164 479 164h39l17 -17l-8 -8h8l22 8v-8l-8 -6v-8h33q0 39 39 39l8 -9v-8l-16 -14v-8h47l24 22q141 -29 219 -86q228 -156 228 -313 q14 0 14 -55q0 -101 -100 -164h-9v-8q134 -56 134 -195q0 -423 -111 -457q-90 -78 -117 -78l17 -16l30 8l9 -8v-6q0 -33 -39 -33v-39q0 -22 -31 -22t-55 78l8 8q-165 -64 -244 -64l-8 8l-16 -16h-78l-56 33v-17l-61 -16h-25l-22 16l-8 -8h-9q-227 46 -368 172 q-211 217 -211 488v47zM264 711l8 -9h17v9l-25 8v-8zM430 106l8 -22h23v31h-15l-8 -9h-8zM446 51l15 -14h8v6l-14 16h-9v-8zM485 664q0 -353 267 -353h47q186 6 227 62v33h-102q-140 0 -197 69l-31 64v8l9 8l-17 31l47 100q51 72 189 72h77l41 -8v8l7 -8h63v16 q-30 15 -141 164q-56 71 -203 71h-55q-155 0 -219 -243zM502 37l22 -8v8l-8 6h-14v-6zM674 1337h14l25 9v16h-17zM696 1368h17v8h-17v-8zM735 1307l8 -25l48 16v17l-23 8zM752 1337h8l8 9v8h-8l-8 -8v-9zM791 1229h22v8h-22v-8zM860 686h8l17 25h-8zM915 1118h17v8h-17v-8z M1034 1229h15l24 8v6l-39 -6v-8zM1073 1165h17v9h-17v-9zM1081 1071h17v8h-17v-8zM1206 1204h17v8h-17v-8zM1223 1087h8l6 9v6h-6l-8 -6v-9zM1245 -35h17v-8h-17v8zM1245 -88h25v-8l-8 -8v-9h16v-16h-8l-25 25v16z" />
<glyph unicode="h" horiz-adv-x="1073" d="M-20 1100v55q38 0 38 31h17l8 -8h8v8l-8 8q31 0 31 31l-8 8l-9 -8h-22q0 32 -17 32v15q20 29 80 47v-31h15q16 0 16 25h31q80 -41 80 -119v-213l-9 -156l250 -8h164q111 0 111 47q32 139 32 258v95q0 135 125 135h23q119 0 119 -277v-61l-8 -8l8 -9v-194l-8 -213l22 -291 q16 0 16 -39l9 -6l-17 -86l8 -25h-8q-41 -86 -133 -86l-8 -8l-86 39l-31 55l8 9l-94 241v17l6 8q-16 0 -22 39l8 24l-8 47v47l-72 7l-14 -15v8l-8 -8l-48 8l-155 7v16l-8 -8h-47l-9 8l-8 -8h-78l-39 8v-31l9 -47l-9 -8v-8l9 -8l-9 -23l31 -291q-15 -116 -125 -116 q-133 0 -133 241l-16 549v141l8 -8h22v25h-8l-22 -8zM35 1147h16v16zM43 1075h23v8h-23v-8zM57 1169h17v25l-17 -16v-9zM66 1139l16 16v8l-16 -16v-8zM74 1075q62 0 102 64v30q-34 0 -63 -39v9l-31 -9v-8q0 -14 22 -14l-14 -16l-8 8l-8 -8v-17zM82 1014h8l14 14l-6 8h-8 l-8 -8v-14zM98 1225l23 -39q12 0 24 31zM104 1116v14h9v-14h-9zM137 1225h8v16h-8v-16z" />
<glyph unicode="i" horiz-adv-x="346" d="M31 86v41l8 27l-8 41v942q0 135 104 135l35 -10l10 10q117 -38 117 -76h-8q15 -21 24 -152l-10 -81l19 -52l-19 -49v-51l10 -131l-10 -10l10 -41v-68l9 -6v-10h-19v-41h19l-9 -8v-9l9 -8v-10q-25 0 -25 -82v-149l6 -11l-6 -8v-57l6 -8q-6 -117 -31 -117h-12v-8h21 q0 -31 -101 -52h-10v11h18v8h-18l-6 -8v14h-8q0 -25 -21 -25q-104 15 -104 109zM104 170l31 -25h12l-24 41zM135 102h21v11h-21v-11zM170 162l18 16h-18v-16zM180 86h8v16h-8v-16z" />
<glyph unicode="j" horiz-adv-x="1081" d="M-20 315q40 252 243 252q211 -34 211 -157q41 -95 55 -95h9q77 0 77 78l-16 316l8 305l25 8v6h-17v8q0 142 173 213l24 -8v16h39q131 0 172 -71l-22 -8v-15l38 15q48 -73 48 -164h-17v-8h17q-9 -258 -39 -258q22 0 22 -17v-391l-6 -119q-142 41 -205 86l-8 -22l72 -31 l133 -47l-8 -55h-31l-8 8h-8v-8q16 -3 30 -39h-8q-70 15 -70 30v9l31 8v8q-167 38 -291 45l-100 -6v14l61 17l39 -9l72 25l31 -16q12 30 47 30v17h-8l-31 -25l-47 8q-47 -12 -47 -22l-47 8q-28 -25 -117 -25v-8q31 0 31 -14q-56 0 -258 -47v14h22v8h-39q-57 -32 -252 -47 q-15 18 -30 180zM10 113l8 8h56l30 -8l166 22v-8q0 -15 -77 -39v-6l241 70q43 21 164 30q134 0 385 -94q-81 -173 -258 -235q-116 -39 -197 -39h-94q-255 0 -399 243v17h39v8q-64 0 -64 31zM98 82h31v6h-31v-6zM160 74h16v8h-16v-8zM279 127l16 16h39v-8l-39 -8h-16z M584 981l8 -23h6l16 39v9h-16l-14 -17v-8zM631 1122h14v17h-14v-17zM653 1122l9 -39l8 9h30l9 -9h8v9q0 18 -39 24l8 6v8h-8zM662 967l30 -17v17l-22 8h-8v-8zM670 825h8l8 9v8h-8l-8 -8v-9zM717 1169l8 9h8l6 -9h9l16 25q-47 -9 -47 -25zM764 1202h8v15h-8v-15zM883 1139 h14v8h-14v-8zM930 975h6v14h-6v-14zM1077 -217l17 14l8 -6v-24h-25v16z" />
<glyph unicode="k" horiz-adv-x="1132" d="M16 256v1018h9l428 -299v-178h8q0 24 88 112q299 -185 332 -241q266 -345 266 -467v-8q0 -163 -219 -187h-33q-139 0 -289 332q-14 0 -49 80h-8l-96 -88v-88q0 -236 -217 -236h-17q-203 0 -203 250zM16 1354v88q405 -273 437 -305v-113q-427 310 -437 330zM33 1516 q52 112 153 112h97q170 0 170 -250v-178h-9zM106 63l56 -8v41h-33l-23 -24v-9zM565 942l74 74l297 -211l-80 -80zM653 1038q101 162 211 162h8q201 -21 201 -176q0 -100 -121 -203zM823 846h8l17 16l-8 8h-9l-8 -8v-16z" />
<glyph unicode="l" horiz-adv-x="1128" d="M-43 184v9l8 8h31v-17l-31 -8zM12 -27h8v-24h-8v24zM35 1282q24 141 80 188q53 34 133 56l8 -8h6l8 8q117 -21 181 -94q38 -86 38 -150l-38 -580l16 -63l-8 -8v-15l8 -38l-8 -56l8 -8v-8l-8 -25l188 -22l8 8l9 -8l194 -8l94 8l64 -8q0 -31 39 -31v8l39 -41q39 -17 39 -61 l-9 -9q3 -30 25 -30v-31l-16 -47h-9l9 -8v-8q0 -55 -117 -125l-8 8l-47 -8l-31 8l-33 -17l-14 17v-17l-25 -8l-86 47l8 -8v-14h-172l-166 8l-147 -8q-244 0 -244 233l31 236v55l-39 682h-8zM76 59v17h14v-17h-14zM240 1337l16 17v30h-16v-47zM287 1149h8v22h-8v-22zM326 176 l16 -14h14l17 14l-47 8v-8zM334 592h14v8h-14v-8zM334 1266q14 0 14 -23h8v23l-8 24l-14 -16v-8zM387 301l47 -39l33 -6q0 26 -80 53v-8zM387 569h25l8 9v6l-33 -6v-9zM481 672v14h17v-14h-17zM561 1008v30h8l15 -14l-15 -16h-8zM569 639v16h15v-16h-15zM655 223 q0 -12 47 -30v16zM686 584v32l31 48h24v-33l-30 -53zM725 223l16 -14h9l-17 14h-8zM772 59v9l8 8h25l-25 -25zM788 137l17 -14h14v14h-31z" />
<glyph unicode="m" horiz-adv-x="1392" d="M-20 51l10 8v11q30 1187 53 1187l317 -10v-8l11 8h71v-26h19v18h26v-8l-8 -10v-9h27v-10l-8 -8q44 -96 188 -825h10q181 680 236 716l26 9l11 -9l-11 -10v-18h11l18 18l-18 19v10q28 0 55 35q-6 45 -55 45l-29 -54h-16l26 91h135v-9l-8 -28l90 -8h37q29 36 82 36h80 l10 -10l10 10h19l8 -47h-8l-10 11h-9q-23 0 -81 -82h-11v-9l11 -10v-8q59 0 90 72h18v-35l-8 -10l8 -9l-37 -933h-10l10 -29l-18 -199l-254 8l-8 45v138q0 45 45 45l18 18l-8 27l-55 -45v598l8 10v8h-8l8 8v19h-8q-234 -776 -273 -860l-63 8h-55l-181 8l-45 182l8 11l-18 61 h18v18l-26 -18l-8 55l8 11q-36 0 -109 352q-13 0 -47 172h-8v-72l18 -74v-8h-18v-145l-8 -8l8 -11v-127l-18 -26h18q0 -62 -27 -135l19 -19l-10 -74h10l-10 -8v-100q-19 0 -19 -27h-8q0 64 -37 64q-9 -64 -27 -64h-36q-162 0 -162 35zM188 885h19v10h-19v-10zM207 686h8 l18 27h-8zM270 1176h9l10 8v10h-10l-9 -10v-8zM397 1202l27 -8h8v8l-26 10h-9v-10zM487 178l45 8l11 -8l8 8v37h-19q-20 -26 -45 -26v-19zM543 231h8v19h-8v-19zM733 178h19v8h-19v-8zM778 186h8v19h-8v-19zM805 33h18v18h-18v-18zM813 86h10v18h-10v-18zM1178 223h16v8h-16 v-8zM1249 1130l45 35v11l-45 -19v-27zM1286 197h19l-11 26h-8v-26zM1294 141h37v11h-37v-11zM1305 213l34 -8l11 8v10l-37 8l-8 -8v-10zM1323 268h16v11h-16v-11z" />
<glyph unicode="n" horiz-adv-x="1222" d="M-20 1071l8 8h-8q24 130 77 189q78 59 174 71q59 0 86 -55l48 -8l-17 24h8q53 0 283 -368l39 -55q-34 -211 -64 -291h-8l8 -6v-9l-61 -196h-8q-78 84 -78 102h-8l-8 -399q0 -17 -25 -17v-16h16v-6q0 -100 -116 -158h-9v23h17l-17 16l-22 -31v39h-8v-16h-17v8l9 8v9h-9 l-30 -9v9l8 6v8h-17l-16 -14v-17h16v-8l-8 -23l-8 7h-22l-9 -7h-8l-8 7v-15h-8l-8 8h-7v-8l7 -8l-7 -8h-8q-133 83 -133 235v117h23v8h-23l-8 197v158l8 6l-8 8v72l8 77l6 -8h17v17l-31 47zM90 586l14 -15v15h-14zM121 -72l24 -24h7q40 0 49 24l-25 23l-8 -8v8zM145 500 l15 -23l-8 -8l8 -8l-8 -8q24 0 24 -47h8v16h9v-33l14 17q0 35 -55 102h-7v-8zM145 1198h15v16h-15v-16zM152 1049h16v8h-16v-8zM176 1040l8 9h9l8 -9v9l-8 8h-17v-17zM184 -119h17v-16h-17v16zM223 1221h17v16h-17v-16zM240 1300l30 -32l-8 -23l33 17v6q-24 41 -55 41v-9z M254 -88h16v-16zM342 1065l31 6v16l-25 -16l-6 8v-14zM348 641h17v8h-17v-8zM348 688h17v8h-17v-8zM365 963l16 -17h6l-14 17h-8zM403 508h17v16zM403 547l39 -8v8l-16 16h-6zM442 516l47 8l23 -16l8 8v14l-8 -6h-6l-25 23l-8 -8v8q-31 -12 -31 -23v-8zM467 633h31l-17 16 h-14v-16zM467 971l6 -8h8v8l-8 8h-6v-8zM575 336q71 190 111 399h6l-6 8l6 86h25q0 -36 31 -61l-9 -8v-8h9l8 8l32 -64h7v86l-7 111l7 6l-7 55v150h15l-15 14q18 166 95 166v8h-17v17q106 47 142 47q116 -15 116 -41h-14q3 -62 23 -62h16v9l-8 22h8l22 8q49 -70 64 -157 l6 -383q0 -213 -47 -433h-14v-8h14q-34 -303 -92 -327q0 -26 -86 -47q-166 49 -166 149h-8v-16h-6q-258 234 -261 266zM803 477l8 -24h8v24h-16zM819 117h17v8h-17v-8zM842 1190l94 -8q-38 47 -78 47l-16 -15v-24zM858 70h16v8h-16v-8zM897 618l8 -8h8l9 8v15h-9zM922 580h8 l14 14l-8 8h-6l-8 -8v-14zM922 1112h14v6h-14v-6zM922 1284l22 -47h33v8h-25l9 39h-9l-8 -8l-8 8h-14zM936 -8v-8l8 -9h8v9l-8 8h-8zM936 117h16l-16 14v-14zM936 760l16 -17h25l-16 17h-25zM944 1221l17 -15v8l-17 15v-8zM961 -8h8v22h-8v-22zM961 178l8 -8h8v8l-8 8h-8v-8 zM961 1040h16l-8 -8v-8l8 -6h6q0 22 16 22h9v-22h16v22l-33 25v-16h-8q0 22 -14 22l-8 -6v-25zM969 1190l22 -64h17v9l-9 8v8l9 8v8l-17 39l8 8l-8 7h-14l6 -7v-8zM977 993h14v8h-14v-8zM983 1237h16v8h-16v-8zM991 1104l25 -33l14 16v9l-14 16h-25v-8zM1024 1112h6v14h-6 v-14zM1030 1010l25 -25l8 8v8l-25 17h-8v-8zM1038 1040l39 9v22l-39 -6v-25zM1069 1024l16 -14v14h-16zM1077 932h17v14h-17v-14zM1133 1221l16 -15h6l16 15q-16 0 -16 24h-22v-24zM1155 1049h16v8h-16v-8z" />
<glyph unicode="o" horiz-adv-x="1372" d="M-20 547l8 8l-8 55v133q0 143 133 344l47 -47h16l17 17q0 47 -33 47l8 8v6l-8 8v9l33 24h14l24 -16v8l-24 23l24 16l9 -8q0 24 14 24l16 -63l-8 -31q14 0 39 -72h16v9h-16l8 8v14l-8 47l8 25l-22 8l8 31h14l25 -15v7q-39 26 -39 63q195 86 350 86h17q180 -9 180 -31 l-15 -16l23 8q39 0 39 -31q16 0 16 23l8 8h9l69 -22l-14 -25v-8l22 24q103 -50 103 -71l8 8h6q0 -15 64 -55q202 -208 202 -596l-6 -103l6 -22l-6 -8h15v-9l-15 -30l6 -9v-8l-6 -8v-23l6 -22h-6q-30 -15 -71 -133l-117 -119q-105 -85 -141 -94l-9 8v8l9 8h-9l-8 -8v17 l-47 -17v8l-6 -8h-25v8l9 9v8l-25 -17l8 -24l-8 -8h-6v16h-8v-22h14v-33q-30 -30 -164 -56l-8 -6l-8 6l-47 -6l-9 6h-8l-39 -14l-55 14l-31 -6v6l-8 -6l-86 23l-6 -8q-3 17 -133 55q0 15 -64 39q0 18 -39 24v9h17v8l-25 6l-8 -6q-188 200 -197 344l-30 211h-8zM98 915 l23 -16v8l-23 17v-9zM121 1087l16 17v-17h-16zM152 1112v14h8v-14h-8zM184 319q25 0 47 -22h9l-47 -55v-9q0 -16 47 -16l-17 -14l-8 8v-8l16 -17l-8 -8v-22q17 0 17 39h14q0 -20 25 -39v-9l-9 -8v-8q25 0 25 -22l6 -9h8l39 56h8l9 -9h8v9q0 14 -25 14q0 37 -47 72 q0 59 -108 86h-9v-9zM207 23h8l25 22l-17 16zM223 109h17v16h-17v-16zM223 225q0 17 25 17h6v-9zM254 147h8v17h-8v-17zM254 211v6h16v-6h-16zM270 877h17v16h-17v-16zM279 854l22 6v8h-22v-14zM301 877h8l25 -9l-8 -55l8 -6h8l14 14h25v-8l-8 -6v-8q30 0 30 -17v-8h9l8 8h6 l16 -22l-8 -25q17 0 17 -22l8 8h8q0 -33 14 -33h8v17h-16v16q27 0 47 39q0 16 -39 22v-14l-78 61q-22 0 -22 17l14 14l-14 17v-17h-33v8h17v9l-39 47q-16 0 -25 -47zM326 1001h16v9h-16v-9zM326 1040l16 -16v16h-16zM348 1018h17v6h-17v-6zM356 1040h17v17h-17v-17zM365 92 l16 -14l6 8v31zM373 336q14 -39 53 -39l-6 6v16l6 9v8l-6 6l22 25q0 22 17 22v17q-22 0 -25 -31h-8l-6 8h-8q-21 -47 -39 -47zM387 680l16 -14l9 8v6l-9 8v8l9 9h-9l-16 -17v-8zM395 -8v-17h8v17h-8zM395 618h8v15h-8v-15zM395 1079h17l8 25l-8 8h-9zM412 727h14v16h-14v-16 zM412 954l14 -16h8l8 8h-8zM420 610l31 23v16l-25 8v-8l8 -8v-8l-14 -15v-8zM467 1018q14 0 14 -33h17v16h8l6 -8h8v8q-15 48 -31 48h-16zM473 1112h8l17 14l-9 9h-8l-8 -9v-14zM498 627h8v22h-8v-22zM506 1079l39 -8v25l-8 -9h-9l-8 9h-8l-6 -9v-8zM520 971h17v22h-9z M520 1024l8 -23h9v17l-9 6h-8zM528 336h9l16 14h-25v-14zM528 688l17 -14h8v14h14v-14h8l-8 31l25 22v8q-20 -3 -55 -47h-9zM553 1118l14 -14l8 8v6h-22zM575 932l17 -47l14 14v25zM584 1206h14v8h-14v-8zM592 752h6v16h-6v-16zM614 727h9v16h-9v-16zM614 899l17 -14h8l6 22 h-6l6 8v17h-14l-17 -17v-16zM614 1024h17v8h-17v-8zM623 768l8 -25h8l6 31zM623 1001h16l14 31l-8 8h-6q0 -22 -16 -22v-17zM653 1118h33v8l-33 9v-17zM670 674h22v14l-6 -8h-8l-8 8v-14zM803 328h8v14h-8v-14zM819 250h17l-9 31l9 8h-17v-39zM897 1206l25 -24v8l-9 8l9 8 h-25zM952 -41h25v-16h-25v16zM952 -63h17v-17h-17v17zM969 289h14v14zM983 1143h8v16h-8v-16zM999 -49q25 0 25 16h6v-24l-31 -6v14zM999 985l31 -6l-6 22h-25v-16zM1008 311l16 -14h6l17 14l-17 17v-17l-6 8h-16v-8zM1008 358h16l6 9h8l17 -17h8q0 18 31 33l16 47l-8 6 l-55 -22l16 -17l-8 -30h-8q-17 0 -17 30h-14zM1038 436h31l8 8h8l-8 25l-39 -25v-8zM1047 477h16l6 23h-22v-23zM1055 657l61 -8l8 47h9q0 -22 38 -22v-25l17 17v8q-47 6 -47 39l-64 -33l-8 8l-14 -22v-9zM1063 885l47 -47l6 8v8l-14 23l8 8v8q-25 0 -25 22h-8zM1069 1096 h41v8h-41v-8zM1110 807l14 -16h9v16l8 -8h8l22 22v25h-16l-6 -8l-8 8h-8l-17 -17v-16h17v-6h-23zM1124 1018h17v-39l14 -16l16 38h-8q-13 0 -22 31l8 25l-25 -25v-14zM1133 768h16l-8 -8v-33h14v16h8q-9 39 -22 39h-8v-14zM1141 649l14 -16v16h-14zM1155 383h8v14h-8v-14z M1163 594l39 -8v16l-14 16h-8l-17 -16v-8z" />
<glyph unicode="p" horiz-adv-x="1126" d="M-20 1229q0 55 65 102h49q212 0 729 68q162 -37 162 -86l-8 -29h16l-8 -8v-29q39 14 39 58q123 -108 123 -342h-10l10 -29q0 -206 -162 -313l-29 10q-17 -44 -36 -47l-11 8l-10 -8v26l-18 -18l10 -8q-57 -9 -57 -29l10 -10v-8q-205 -50 -342 -50v11l37 47h-19v10 q-22 0 -104 -76l-84 -10l18 -246l-10 -10h-8l-10 10l-21 -28v-21l21 -18l36 10v-47l-18 -29q20 0 29 -65l-76 -21h-29l-8 10h-10l-10 -10l-19 21l-29 -29h-36l-97 -10l-10 10v76l-8 84l8 10zM293 25h8l21 18l-21 18zM301 1114l21 -162h-11l21 -37l-10 -38l10 -95h-10l10 -10 v-8l-10 -39l10 -39q106 40 397 86q94 58 94 123v29q0 166 -133 219h-8l-10 -10h-8l-58 18q-63 -29 -133 -29q-76 9 -76 21l-10 -10h-76v-19h-10zM625 156v28h28v-28h-28zM643 51v21h21v-21h-21zM653 -61l19 18h10l8 -8l58 8v-8q0 -31 -84 -49h-11v39zM729 1323l10 -10h9 l10 10v8l-10 10h-9l-10 -10v-8zM739 1284h9v21h-9v-21zM834 942q26 9 36 39h-8l-28 -29v-10zM946 1284l21 -18v28h-21v-10zM967 346v19l18 18h8v-18l-16 -19h-10zM1004 858l38 -29v11l-10 37h-8zM1051 1067h10l29 37l-39 -29v-8z" />
<glyph unicode="q" d="M-20 592v24q0 326 204 555l9 -6h14v6h-14l14 17l8 -8v8l-8 8l24 16q0 -23 39 -32v8q0 16 -30 16l-9 8v7q192 149 447 149q300 0 510 -180q0 -20 31 -23q129 -169 163 -282v-9l-6 -8v-8l31 -61h-8l8 -9l-8 -38l8 -25l-8 -39l16 -47l-24 -172h8l-8 -8v-8l8 -23 q-20 0 -23 -55l-8 -31q-16 0 -16 -41h-9l9 -6v-16q-47 -35 -47 -86l-25 -31l33 -33q-69 -60 -94 -133l-9 -6h-8v14h-8q-21 -53 -164 -205l-117 95h-174l-6 -7l-8 7h-39l-8 -7l-8 7h-17q-264 0 -493 204l-94 142v8q38 6 38 22l-14 17l-47 -8q-63 183 -63 313zM66 506h8l8 8v8 h-8l-8 -8v-8zM113 248q12 -47 24 -47h39l39 8v6h-14q0 16 22 16v9h-8l-22 -9l-9 9v8l9 8v6l-9 -6h-24v6l8 8v9h-31q0 -31 -16 -31h-8zM145 758l23 8v6h-16l-7 -6v-8zM152 905l16 17h-16v-17zM176 395h31v8h-31v-8zM201 317h22l39 9v8l-8 8v6l-53 -14v-17zM215 279h16l9 8v8 l-25 -8v-8zM215 1141h25l-25 24v-24zM279 279h30l17 16l-47 -8v-8zM301 758l244 -213l-119 -289h8l266 172l244 -205h8q-78 281 -78 314q233 139 259 165v9q-322 0 -322 30l-72 289h-6l-110 -297zM373 -4h30l70 24v9l-53 8q-47 -6 -47 -25v-16zM403 162h9l14 14h-6zM481 29 h25l14 14h-14l-25 -6v-8zM606 819h8l17 17h-25v-17zM686 1227l14 -15h25q-9 39 -39 39l14 -24h-14zM780 1212h23l-15 15h-8v-15zM842 1212l24 -24l31 8v8zM1069 -223q99 114 141 205l25 -17q6 46 45 72l33 86q61 0 117 -133l8 -47q-53 -183 -111 -183q0 -18 -100 -39 q-91 17 -158 48v8zM1094 1196h22v8h-22v-8zM1110 309l39 8l108 -16q-11 33 -55 33l-22 -8v8l-9 -8h-30l-8 8l-23 -8v-17zM1155 1157l25 8l-17 15z" />
<glyph unicode="r" horiz-adv-x="1124" d="M-57 1059v6h14v-6h-14zM-51 1024v12h8v-12h-8zM-25 1004v14h15zM-2 1147v6h12v-6h-12zM25 1044v15h6v-15h-6zM31 1182h14v-15zM45 1010l6 8l23 -8l-8 -6v-9l8 -6h-23v15zM51 1141v12h15v-12h-15zM51 1167v9h15v-9h-15zM59 899l15 14v-14h-15zM74 1059v12h12v14h-12v7h12 v110l6 6v9h-6l6 6v8l-6 6v6l70 105q61 55 157 55h21l8 6q86 0 164 -90l49 -111h6l-6 -6v-12l6 6h14l21 -49h6l47 96v8h-12l-29 -20v33l8 8v6l7 -6h14l6 6h6v-21h15l49 68l-8 8l104 62l47 8h70q105 0 157 -131q15 -30 15 -90v-111q32 -3 32 -20q-53 0 -88 -74 q-34 -37 -303 -105q-137 -61 -137 -227v-379q0 -170 -143 -231l-90 -15l-9 7h-6l-6 -7v-8q-177 0 -242 140q-20 39 -20 108v545l-6 6v6l6 6h-6l6 8v21l-6 27l6 49v108zM92 254l14 -14h9v20l-15 14l-8 -8v-12zM115 782q9 -26 20 -26h6v6l-14 43l-12 -14l6 -9h-6zM121 811 l14 12v8l-14 -14v-6zM141 791h15v14h-15v-14zM156 225l6 -6h28v6l-14 15h-6zM156 604l14 14h-14v-14zM170 152h12v12zM190 1395h13v-15zM197 193l14 -15v15h-14zM203 397h14v15h-14v-15zM217 184l14 -14l7 8v-14h26v6l-12 14h-35zM231 981h15v14zM238 342l20 -20h29v14h-15 l7 6v8l-7 6h-20zM252 193h12v26l-12 -12v-14zM252 543l6 -35h14v20l-14 15h-6zM264 260h8l15 14l-8 7h-15v-21zM272 88l15 14h-15v-14zM272 397l15 -14v23h-15v-9zM279 481l14 13h-14v-13zM287 82q26 -9 26 -41h6l15 12v29l-6 6v8l-29 -14v14zM299 109h14v14h-14v-14z M299 158q34 0 49 -15h6v9l-12 18l6 8h-6q-43 -3 -43 -20zM299 446l6 -20h8l6 6h9q-9 35 -23 35zM305 301h14v14h-14v-14zM319 213h15v12h-15v-12zM334 309h14v13zM348 41h12v12zM354 438h15v15h-15v-15zM383 225h12l-6 -6v-6l14 -14h7v26l-27 15v-15zM403 248l13 -15v15h-13 zM430 1243h14v14h-14v-14zM436 453h15v14h-15v-14zM459 365l12 12h-12v-12zM465 831h6l14 15h-8zM471 240h6l15 14h-21v-14zM547 1051h8l12 14v6l-12 14h-8v-34zM555 1243l6 21h14v-7l-8 -20l-6 6h-6zM555 1292v6l6 9h14v-9l-14 -14zM575 528h13l8 27h-21v-27zM582 461h14 v12zM588 1202h14v-12zM588 1389l35 32v-6l-27 -26h-8zM664 1395v20h14v-20h-14zM733 1491v14h12zM809 1464v6h12v-6h-12zM844 1430v14h6v-14h-6zM993 831v15h15zM993 913l15 15l8 -6l-8 -23zM1016 838h12v-15zM1075 995v9l15 14h8l-8 -23h-15zM1090 1051l14 14h-14v-14z M1110 1141v6h14v-6h-14zM1118 1106v14h6v-14h-6zM1130 1141v6h15v-6h-15zM1186 1004v14h8v-14h-8zM1378 1147l23 20v-6l-15 -14h-8zM1401 934v14h6v-14h-6zM1407 948v6h12v-6h-12z" />
<glyph unicode="s" horiz-adv-x="980" d="M-20 903l8 64h16v-17h6q0 111 41 111l70 102q133 86 299 86h61l8 8l95 -16v8l78 -24v8q227 -91 227 -189q18 -3 33 -86q0 -63 -86 -116h-48q-65 0 -135 125q-65 102 -172 102q-189 0 -227 -127l-6 -22q0 -123 305 -164l235 -56v-8q-42 -61 -182 -180l-164 39v8l-8 -8h-31 q0 24 -16 24l-14 -16q-66 0 -221 55l-7 -8q-157 133 -157 258l16 17v30l-8 -8h-16zM-4 315h8l-8 9v8q0 96 117 108q80 0 141 -180q89 -108 197 -108l30 8l17 -17l14 17h25l30 -8q86 18 86 30v17q103 50 103 133h8l-16 47h8q-46 108 -103 108v9l150 182q80 0 174 -174 l22 -133l-8 -9l8 -22l-8 -25h8q-12 -30 -22 -30v-17l-8 -8l8 -6v-8q0 -80 -189 -219q-183 -80 -276 -80v-15l-53 9l-8 -9h-9l-30 9l-9 -9v15h-30l-86 24v-8q-162 64 -174 125h-9l-6 -6h-8q-72 123 -72 139zM43 340h14v6h-14v-6zM113 989h24l-16 17l-8 -9v-8zM248 692l14 -14 h8q41 0 47 22l-16 17h-6q-47 -6 -47 -25zM426 684h16v16zM553 717h14l17 14h-17zM614 653h17l14 17v8h-14l-17 -16v-9zM692 182h17v8h-17v-8zM772 598l16 16h-16v-16zM897 307h16v8h-16v-8z" />
<glyph unicode="t" horiz-adv-x="1277" d="M-20 1083q0 154 188 222q151 0 721 61q407 0 407 -258v-16q0 -183 -219 -242l-172 -25v-100l8 -80h-8l8 -8v-39l-8 -8q31 -133 31 -486l-23 -22q23 0 23 -33q-43 -227 -250 -227l-41 8l8 8v6h-8l-6 -6v-8q-43 0 -102 47l8 8v9l-8 -9h-9q-102 70 -102 275v14l-6 8v8h6 l-6 9v133l-8 133h8l-8 8v8l8 6l-8 9v354l-189 -8q-179 0 -235 164zM426 401h16v17zM459 362l14 17h-14v-17zM481 96l8 -22h9l8 39zM489 449h17v16h-17v-16zM506 121h6l16 22h-8zM512 2l16 -14l9 6v8h-25zM512 41l16 -14l9 8v6l-25 16v-16zM512 410h16l-8 8v14h8l9 -6h8v6 l-8 8h-9l-16 -14v-16zM528 346h25l22 8v-8l17 -14l-8 39l-9 -9h-16v17l-22 -8l8 -9v-8h-17v-8zM537 393l8 8h8v-16l6 8h8l-8 25l-22 -8v-17zM545 27h14v8h-14v-8zM553 174l22 25h-8l-14 -17v-8zM553 481h6l8 6h8v-22h-16v-25h16v-8l-8 -6v-8l31 -17l16 17l9 -8l47 8 q0 -17 -25 -17l-6 -8v-14l53 -8v8h-22v6q30 0 30 25l25 -9v-8h-25v-14h9l24 14l-8 8v17q23 0 23 14l-31 -6v14l71 25v8h-40v14l8 -6h8v6l-8 9l8 8h-39l8 8v8h-8l-8 -8v16h16v7h-16l16 16h6v-16h9l-9 -7v-16l25 16h8l23 -16v8q-22 0 -31 70q18 0 24 39l7 -6h8q0 47 -47 47 h-17l-14 -17h14v-8l41 17l8 -9v-8l-16 -16v16h-8v-16l8 -6l-8 -9h-16q0 31 -48 31l-8 -8l-30 8q0 17 30 17v8l-30 14h-9l9 -31h-23v17h-8v-25q52 -27 55 -47h-16l22 -55q-30 -15 -30 -39h-17v24l-6 -8h-8q0 23 -39 23q0 -15 31 -15v-16h-9l-8 8h-8l-6 -8l-8 8v-8l8 -8h53 v-17l-53 -30h-17l17 24l-8 23q-31 -12 -31 -23zM559 -115v-8h8v17h8l23 -17v8l-23 15zM559 559h25v16h-9zM559 629h16v8h-16v-8zM567 18h17v9h-17v-9zM584 426v14h22v-14h-22zM592 88l6 -6h8l33 39v22h-8l-33 -30l8 -9zM598 481h16v6h-16v-6zM606 199q25 0 25 -17l-17 -14 h17l39 22q39 -12 39 -47h8v17q0 32 -103 47h-8v-8zM606 449v8l47 30l9 -6v-8h-17l8 -8v-16h-8l-6 8h-8l-17 -17zM606 551h25v8h-25v-8zM614 307l25 8v9h-16l-9 -9v-8zM623 27h16l6 8v6l-22 -6v-8zM623 426v14h39v-14l-31 6zM631 590l14 -15v31zM639 543l6 -8h25v16l-8 -8h-9 l-8 8h-6v-8zM645 -139v-8h17v8h-17zM662 575l8 -8h8v8l-8 7h-8v-7zM670 432h22v-22h-14zM670 504v16h16zM678 49h14v17zM678 457v16h14v-16h-14zM692 567v15h17l-9 8v33h9l8 -9h8q-9 -47 -25 -47h-8zM700 82h9l8 22h-8l-9 -8v-14zM700 418v8h17v-8h-17zM700 440v17h17v-17 h-17zM700 543v16h17zM700 653h9l8 9v8h-8l-9 -8v-9zM725 465v22h14v-22h-14zM733 598v25l31 -17v-8h-31zM739 559v23h17v-23h-17zM748 535v8h16v-8h-16zM780 551h8l15 31h-15zM795 465h16v8h-16v-8zM819 332h17v14zM897 66h8v16h-8v-16z" />
<glyph unicode="u" horiz-adv-x="1058" d="M-20 403v31l16 17l-8 38v33l16 15l-8 63l8 78h-8l8 8v47l6 72l-6 47h6l-6 6v33q3 117 14 117l-8 8v22q0 74 142 95h63q0 -23 25 -23q44 0 47 -510q15 -430 47 -430q64 -94 211 -94h53l33 -25v8l-17 17l86 39q80 83 80 399l39 555q47 80 125 80q133 0 133 -211v-219h-14 v-8h14v-174l-14 -62l6 -72l-6 -61h6l-6 -8v-47h14q0 -218 -172 -344q-106 -55 -227 -72l-8 8q0 -24 -125 -24h-94l-31 8l-39 -8v16h-47l-39 8l-8 -8l-150 78l-47 47l8 8q-94 131 -94 189h6l-22 149l22 23q-8 38 -30 38zM631 -4v-6q14 0 14 -33l8 -8h9q-15 47 -31 47zM631 20 h8v23h-8v-23zM645 -57v-17q9 -26 33 -32v8q-22 0 -25 41h-8zM858 -18v-17h8v17h-8zM866 4v-14h8v14h-8zM883 29h6l8 8v6h-8l-6 -6v-8zM1008 176h8v17h-8v-17zM1038 240h9l16 39h-8l-17 -31v-8z" />
<glyph unicode="v" horiz-adv-x="1067" d="M-20 1214v31q0 84 124 111q111 0 158 -189q156 -289 258 -612l47 -172h8q60 183 158 657q86 338 189 338l30 8q133 -21 133 -124v-9q-59 -244 -202 -596q-97 -329 -183 -510q-74 -77 -163 -77q-139 0 -203 180q-39 56 -236 682q-118 227 -118 282zM160 860h8v17h-8v-17z M387 649h8v17h-8v-17zM717 500h8v24h-8v-24z" />
<glyph unicode="w" horiz-adv-x="1347" d="M-20 967q0 98 77 125v8h-14l14 16h9l79 -24v-9l-8 -8v-6q32 0 56 -41l-9 -6v-8q22 -11 103 -250h-17v-8q22 0 31 -47h-6l22 -72h-8l25 -62v-8h-25l-14 56l-16 -17v-8h22v-23l-6 7h-8l-8 -7v-24l16 16q37 -14 53 -39l33 -229h6l8 41h-8q39 129 80 377h6l-6 8l53 303v16 l8 9q31 0 31 55q62 39 103 39l38 -8v-95h9v134q102 0 157 -297l-8 -25q30 0 94 -321q47 -127 47 -181l-8 -8h17l55 283h-8l47 235l-8 8h16v17q12 147 31 147l-8 8q0 150 147 150l8 -8l8 8l9 -8v-17h-17v-6h17l16 15l22 -23l-8 -8v-8q33 0 33 -64q-9 -108 -25 -108l9 -9v-8 l-17 -14l8 -8v-8q-9 -78 -30 -78l8 -39q-9 -55 -25 -55l-8 8h-8l16 -39l-8 -33l8 -6l-8 -49h-22v16l-9 -8l-8 8h-14v-8q45 -9 45 -23q-31 -203 -45 -229h-16v-6l16 -25l-8 -8h8q-66 -339 -102 -391l-70 -39v16h-16v-24h-9q-61 0 -125 55l17 39h-8q-49 0 -64 133h8 q-12 55 -24 55l8 9v8q-39 39 -39 78l8 22l-47 158l-39 188l-8 -8h-16v25l-9 55h-8l-30 -158h-9l-8 8h-6v-8l6 -8l-133 -635h-109l-8 -8h25q0 -31 31 -31l8 23h30v-8q0 -35 -108 -56h-8l-8 9h-9v-9q-52 21 -55 41h16l-16 15l-14 -15l-47 109l8 8v8l-33 78l8 25l-16 14l8 8 q-16 0 -31 86h-8l17 39l61 -47h8v8l-94 72l8 6v16q-17 0 -31 39v31l7 41h-7q21 55 39 55v-8l31 8l-8 6v9l-6 -9h-17q0 33 -16 33q-78 47 -78 117l-39 133q-21 0 -24 33l16 14q-29 0 -47 111h8zM10 942h17l30 25h-22zM74 739h8v17h-8v-17zM121 504v8h16v-8h-16zM137 481v15 h15v-15h-15zM176 254v14h8v-14h-8zM184 449h9l8 8v8h-8l-9 -8v-8zM184 528h17v7h-17v-7zM207 207h16l-16 14v-14zM231 379l31 14v8h-8l-23 -8v-14zM231 575l17 -16l6 8v8l-23 15v-15zM240 496l8 -9h14l-8 25zM262 678h8l9 6v8h-9l-8 -8v-6zM270 199l9 -9h8v9l-8 8h-9v-8z M279 276l30 -8v17h-30v-9zM295 182l39 -30v8l-39 30v-8zM295 401h14v9h-14v-9zM301 -76v-8h64v16q22 0 22 15l-22 8zM348 135l8 -8h9v8l-9 8h-8v-8zM381 113l22 -17v8l-22 17v-8zM420 293h22v14h-8zM709 958h8v70h-8v-70zM756 981h8l8 8v8h-8l-8 -8v-8zM772 582h23v8h-23v-8 zM836 764h6l8 6v8h-8l-6 -8v-6zM866 559h17v8h-17v-8zM897 535l8 -7h8v7l-8 8h-8v-8zM905 213l8 8h17v-14h6l16 14l-16 17l-6 -9l-8 9h-17v-25zM936 -12v-8h16v8h-16zM1077 653l33 -30l6 6h8l9 -6v-9l-9 -8l25 8l-16 48l-9 -9h-8l-14 17q0 -17 -25 -17zM1094 637v16h16v-16 h-16zM1094 731h16v8h-16v-8zM1133 700l8 -30h8v22l-8 8h-8zM1149 637h6l8 8v8h-8l-6 -8v-8zM1155 168l16 14l-8 8h-8v-22zM1163 606l39 31l-8 -8h-14l14 24h-6q-16 0 -25 -47zM1188 590h22v8h-22v-8zM1188 678l39 -25v9l-39 22v-6zM1202 401h17l-17 17v-17zM1202 606h8v17h9 l8 -9h8v9l-25 14l-8 -23v-8zM1210 764l9 -8v-8l22 8l-14 14h-17v-6zM1219 803l16 14l-8 8h-8v-22z" />
<glyph unicode="x" horiz-adv-x="1216" d="M-285 752l9 30h22v-8h-14l14 -22h-31zM-276 899v16h8v-16h-8zM-268 877v8l10 8h4v-8l-4 -8h-10zM-268 1001v9h10l4 -9v-8h-4zM-246 868v9l8 8h9v-8l-9 -9h-8zM14 86q0 111 328 494l47 69q-64 113 -125 180l-98 125q-66 117 -66 197v8q30 156 125 156l17 -15h10l-10 9v22 l86 17q122 -34 164 -95q19 -8 63 -79l-16 -23v-16h16v32q24 -10 111 -149h6l10 22q29 0 375 -211h10v-16l-143 -203l163 -260h19l86 -164v-8l-10 -8q24 0 24 -31l-14 -14v-16q14 0 14 -39q17 -3 31 -39l-31 -47h15q-18 -47 -29 -47l6 -9v-8q0 -14 -92 -94l-19 16l-63 -24v16 h-4v-16h-10q-106 18 -142 63v8l-8 -8h-14l8 8v15q-38 11 -182 266l-47 63q-231 -334 -306 -352h-16l-39 31v-16l8 -23l-47 -8q-165 27 -186 127zM147 1214h19l12 15h-8l-4 -8l-10 8l-9 -8v-7zM178 1104l17 14v25l-17 -17v-22zM186 1198h17v8h-17v-8zM233 -96l19 -15v15h-19z M252 1190h4l8 24h-12v-24zM281 -80v-8l8 -8h10v8l-10 8h-8zM303 963q16 0 25 47h-17zM319 1135h9v16h-9v-16zM338 1024l20 -23l9 9v8l-25 14h-4v-8zM375 868h14l8 39l-8 25h-6zM375 1143l31 -8q0 16 -23 16h-8v-8zM444 907l9 -8h8v8l-8 8h-9v-8zM469 1159h6l17 15v8l-17 16 l-6 -8v-31zM510 1198l6 -24h8v32l-8 -8h-6zM586 774l10 8h6l-6 9v8l6 22h-16v-47zM682 705q14 0 14 -31l9 6h8q-9 41 -25 41l-6 -8v-8zM705 1071l133 158l47 -47l-8 -8v-7q30 0 108 -118l35 -25v8l-19 17h9l10 -9h4v9l-164 204q36 31 55 31q152 -103 152 -117l4 7h8l103 -70 v8l-248 172v16l98 15q147 0 197 -148v-88l-37 25v-8l29 -25q0 -53 -134 -225q-372 206 -382 225zM723 117h12l-12 14v-14zM821 117h17v8h-17v-8zM854 838h6v16h-6v-16zM877 727l8 -6h10v6l-10 8h-8v-8zM934 1001l4 -8h16v8l-20 9v-9zM954 1104v8l47 -47v-16zM1020 1010 l20 -17v8l-20 17v-8zM1024 1024l25 -14v8l-25 14v-8zM1057 985l10 -6h4v6l-4 8h-10v-8z" />
<glyph unicode="y" horiz-adv-x="1048" d="M-41 78v22h27v-22h-27zM-6 1010v16h6l6 -8h8q0 98 58 119l59 22q89 0 252 -227l172 -158v-14h8q0 20 35 47q30 61 43 61q46 65 82 158q89 244 178 244h33q92 -21 92 -94v-25q0 -57 -70 -188l-8 8h-8l-6 -8h-8l-25 8v-8l-6 8h-8q-19 0 -19 -39h-14v-8h14l-6 -39v-17l6 9 h19l22 -15l-94 -141h14v-16q-45 0 -67 -48l6 -8v-8q-38 0 -53 -53l53 -338l-14 -31v-16h8v22q20 0 29 -94h-9l-20 16l-8 -8h-11l-20 8q0 -16 -27 -16l27 -22h4v16h16v-16l11 8h28l19 -17v-30l-27 -25l8 -39q-48 -69 -145 -69v8q0 22 -27 22l-12 17l4 8h8l8 -8v30l-8 -8h-28 l8 8q-9 31 -35 31v25h16v22q-20 0 -20 33h4l-12 39h-11v-17h-16l-4 127h12v-16h19l-58 125l11 39q0 33 -31 33l4 39l-4 8l4 39q-65 43 -117 108h-8l8 -8v-14q-14 0 -14 -25h-16v8l16 47l-8 -8h-39v17h8l6 -9h8l9 9v16q-31 0 -56 31q-39 29 -39 61l-8 -6h-6l-74 78v8l8 8v6 q-94 30 -94 95l-20 47h-39zM100 846v8h19v-8h-19zM127 979h20q0 30 66 39l-8 24h-8l-17 -16l6 -8h-6l-8 8h-6v-16q-27 0 -27 -23h-12v-8zM166 854h14v8h-14v-8zM227 948h17v8h-17v-8zM244 369v6l14 16l8 -8v-8l-14 -15zM244 580h14l16 -17v-8h-22zM313 571v9l17 16h8v-25 h-25zM457 0v14h8v-14h-8zM485 45v8l19 17h8v-9l-16 -16h-11zM532 813v16h11v-16h-11zM551 1192v6l12 16h8v-22h-20zM571 1034v17l39 8v-25h-8l-4 8l-8 -8h-19zM598 1106l12 14v-14h-12zM629 909v23h12v-23h-12zM637 971l12 16l8 -8v-8h-20zM649 1206v17h19v-17h-19zM657 924 l19 16v-16h-19zM676 219h6v14h-6v-14zM676 266h6l6 -8v-8h8v16l-8 39h-6zM688 -205h27v-22h-27v22zM696 78q19 0 19 -25h8l20 17l-8 22l-8 -6h-4l-8 6h-10l-9 -6v-8zM696 195l9 -9h10l8 33h-8zM723 23h12v16h-12v-16zM754 53h8v25h-8v-25zM762 -188h20v-9l-14 -16h-6v25z M768 446v17h14v-17h-14zM768 602v8l23 25v-17l-17 -16h-6zM768 877h6l17 24h-9zM774 641v16h17v-16h-17zM782 494v22h19v-22h-19zM782 524v17h9v-17h-9zM801 627v8h20v-25h-6zM815 885h14v16h-14v-16zM829 549v14h11l14 -14l-6 -8h-8zM840 909h14v6h-14v-6zM854 1145l8 -8h6 l-6 22h-8v-14zM879 674v22l16 -14v-8h-16zM901 281v24h8l17 -16v-8h-25zM915 1128l11 -8h8v8l-8 9h-11v-9zM934 774v17h14v-17h-14zM940 1090h27v8h-27v-8zM967 705h28l-14 -17zM967 727v8l6 8h8l6 -8v-8l-6 -6h-8zM967 1270v14h20v-14h-20zM987 924v16l17 16h10v-8l-10 -24 h-17zM995 233v25h19v-8zM1004 1018v24h16v-24h-16zM1042 1059v14h25v-14h-25zM1100 147v25h8l12 -16l-8 -9h-12zM1128 186v25h19v-25h-19zM1186 696v17h20v-17h-20zM1198 274v15h27v-15h-27zM1225 1010v24h12v-24h-12zM1264 109v16h16v-16h-16zM1280 1159v17h12v-17h-12z M1282 109v16h27v-16h-27z" />
<glyph unicode="z" horiz-adv-x="1136" d="M-80 797l8 8h9v-25zM-53 827v17l12 -17h-12zM14 137v17h19l12 -17v-14h-12zM45 270q0 68 55 117l-8 8h17v-14h10q0 22 28 70l105 124l-19 25l105 111v-41h4l8 41l-8 6q0 19 111 127l10 -8h6v16h8l-8 6v8l305 361h-291l-6 8l-8 -8h-92v16l-27 -16h-8v24h-4q0 -24 -19 -24 h-20v24h-8v-24h-96q-103 9 -103 78q0 71 160 71h78l12 -16v-78h8q3 55 17 55l-9 9v30h416v23h160q106 -27 106 -117v-31q0 -96 -239 -338h-10v17l-195 -205l-8 8h-8l8 -8v-8q-221 -262 -221 -275h-17l8 9v8l-16 14q0 -73 -61 -131q45 0 61 -16q0 22 16 22l9 -53h10v14h6 l-6 8v31h272v-22h-14v-17q22 0 22 -22l9 -8h10l29 22h10l-10 -6v-8h10l12 14v-31l35 25l-10 -64h-17q0 31 -20 31l-10 -6h18v-8l-8 -8v-9l-10 9h-17v-17q27 0 27 -14v-8l-66 39v-25h17v-22l-9 8l-8 -8h-31q-9 55 -22 55l-47 -55l-10 8l-7 -8h-155v16l-10 -8h-9l-8 22l8 25 l-8 69h-20l12 -108h-4q-27 0 -27 -16h-116l-9 -9l-28 17l-19 -25q-42 0 -94 94zM53 711v6l8 8h39v-14l-39 -9zM127 623v24l12 -16l-8 -8h-4zM195 451h10l8 8v8h-8l-10 -8v-8zM217 240h8l8 8v8h-8l-8 -8v-8zM225 1266l19 16h-19v-16zM225 1337h19v15h-19v-15zM264 309h35v8 h-35v-8zM291 1274h8l4 8v8h-4l-8 -8v-8zM350 592h8v22h-8v-22zM367 1290h10v15h-10v-15zM383 1329h6l8 8v9h-8l-6 -9v-8zM416 215h14v8h-14v-8zM532 223h7l16 17l-6 8v8h6l8 -8h8v22h-16q-14 0 -23 -39v-8zM532 279h17l6 8v14h-6l-17 -14v-8zM539 309h10l14 17v8l-24 -8v-17 zM571 193v8h17v-8h-17zM580 270h8v9l41 -23l6 6l6 -6v6l-23 39q-31 -13 -38 -31zM657 295v14h19zM743 309l19 17v-17h-19zM768 326l6 8h8v-25zM782 944h9v17h-9v-17zM791 983h10l8 64h-8l-10 -39v-25zM801 1063h12q0 102 35 180v31h-8q0 -47 -19 -47l8 -8v-17l-8 8h-8 q-3 -77 -12 -77l8 -9v-22zM829 270v17h19v-17h-19zM829 1321h11l8 25l-8 6h-11v-31zM829 1360h11v24h-11v-24zM840 334v31h8l6 -9l6 9h27l20 -17v17q87 -9 105 -23v14h12v-8q-3 -31 -39 -31l8 9v8h-8l-4 -8l-8 8l-10 -8l-9 8l-20 -39l12 -16l39 16v-16h-22l10 -39h-19 l27 -47h12l19 38q67 -21 67 -30v-8l-20 -9l-19 17v-8l9 -9l-64 -22v14h-12v-14l-19 14v47l-20 8l4 -30q-31 -15 -31 -39h-12l4 31l-12 16v14l8 8v9h-8l-33 -9v39l33 -8l12 17q-6 69 -22 69l-17 -14v-33h-12v8l6 25h-14zM840 1290h8v15h-8v-15zM868 193v16h9v-16h-9zM915 162 v14h11v-14h-11zM915 256l19 -16v8l-19 14v-6zM926 270h8l4 9v8h-4l-8 -8v-9zM973 231v9h12v-9h-12zM1071 231l16 17l11 -8v-9h-27z" />
<glyph unicode="{" horiz-adv-x="557" d="M49 696v68q0 54 146 154q40 75 57 75v11h-19q0 489 76 489q62 96 203 96v-8l-375 -963h-10zM174 592l289 565h10v-57q0 -270 -154 -365q154 -68 154 -327q0 -279 57 -279l107 -39l-10 -76h10q0 37 18 37v-18q0 -106 -75 -135h-97q-170 0 -241 221v241l10 97h-10v-31h-9 q0 101 -59 166zM252 1081l18 -18v27l-18 20v-29zM260 543h10v18h-10v-18zM580 1368v21l75 124v-49q-21 -96 -75 -96zM588 4v-18h10v18h-10zM608 43h8v29h-8v-29z" />
<glyph unicode="|" horiz-adv-x="1988" />
<glyph unicode="}" horiz-adv-x="669" d="M8 23q0 87 154 114q24 0 39 393q0 83 133 201h10q-143 128 -143 230h10q-16 0 -31 354q-34 49 -86 49v8l-8 -8h-10q-68 27 -68 94v10q0 115 135 115q215 0 279 -211l-21 -18h-10v-11l10 11h21v-29l8 -57l-8 -11v-10l8 -28l-8 -9v-10l8 -39h-8l8 -10v-113l10 -49l-10 -8 q87 -136 172 -164l21 -86q0 -72 -146 -153q-47 -65 -47 -183v-182q0 -18 -29 -18v-19h21v-49q0 -177 -242 -229h-65q-107 0 -107 125zM229 942l19 -18v8l-8 10v8h8l10 -8h8v19h-37v-19zM229 1124h11l8 9v49h-19l11 -11v-28l-11 -10v-9zM258 1419h8l10 31h-18v-31zM276 1458 h21v21zM305 1239l10 -10h11l-11 28h-10v-18zM344 1393h47q-12 37 -29 37l-18 -29v-8zM373 895h10v18h-10v-18zM373 1171h18v11h-18v-11zM440 778l9 -8h10v8l-10 10h-9v-10zM487 702h11v21h-11v-21z" />
<glyph unicode="~" horiz-adv-x="1013" />
<glyph unicode="&#xa1;" horiz-adv-x="671" />
<glyph unicode="&#xa2;" horiz-adv-x="1138" />
<glyph unicode="&#xa3;" horiz-adv-x="1013" />
<glyph unicode="&#xa4;" horiz-adv-x="1013" />
<glyph unicode="&#xa5;" horiz-adv-x="1261" />
<glyph unicode="&#xa6;" horiz-adv-x="1013" />
<glyph unicode="&#xa7;" horiz-adv-x="1013" />
<glyph unicode="&#xa8;" horiz-adv-x="768" d="M33 1597l16 74l8 -6l6 6h13l6 -6l24 6v6q-24 0 -24 31h10l-6 -4v-8h6l8 8l13 -14h6l-6 24l-7 -6h-14v12l80 27h21q65 0 94 -51q16 0 37 -43v-6l-7 6h-16v-6l23 -7l6 7l6 -56q0 -69 -72 -123q-9 25 -14 25l-6 -6v-19h12v-12l-78 -12q-130 0 -145 153zM63 1677v13h13v-13 h-13zM119 1665h6q28 8 45 39l-14 10v-6l6 -4v-8q-43 -15 -43 -31zM129 1597h14v7h-14v-7zM135 1696l15 12v6l-15 -10v-8zM186 1591h13v6h-13v-6zM193 1616h14v6h-14v-6zM244 1628h6l6 6q16 0 16 -18h15l-6 6l6 31h-15v-13h-8q0 19 -8 19v-6l2 -6l-14 -7v-12zM264 1671 l17 -12v12h-17zM307 1616h17l-17 12v-12zM432 1567v55q40 125 129 125h14q98 0 150 -94l-8 -6l10 -56q-10 0 -10 31h-12q0 -37 22 -37v-6q-27 -135 -133 -135h-12l-31 24v-6l10 -18h-6q-102 38 -102 74h12v12l-6 -6h-13zM446 1561l7 -25h6v18l-6 7h-7zM512 1499l14 -12h6 l-6 24h-14v-12zM518 1665h8v12h-8v-12zM526 1579h13v6h-13v-6zM532 1604h13v6h-13v-6zM545 1493h6v31h-6v-31zM575 1487l13 -12v12h-13zM575 1647l19 -13l4 6v7l-10 12v6l6 -6h4v18h-16zM604 1542h14v6h-14v-6zM637 1530l10 -12v12h-10zM641 1665l27 -6v12h-27v-6zM647 1628 l21 -12v12l-21 6v-6zM668 1524l16 -19h6v19l-6 6l6 6v12l-16 -18h-6v-6zM698 1653l7 -6h6v6l-6 6h-7v-6z" />
<glyph unicode="&#xa9;" horiz-adv-x="3282" />
<glyph unicode="&#xaa;" horiz-adv-x="1269" />
<glyph unicode="&#xab;" horiz-adv-x="1851" />
<glyph unicode="&#xac;" horiz-adv-x="1988" />
<glyph unicode="&#xad;" horiz-adv-x="1005" d="M-20 641v51l43 76v27h602l14 -27l14 27h316q55 -52 55 -154q-29 0 -29 -76l-14 -26h-555v51h-12v-51h-377zM598 641h12l43 27v24h-28l-15 -24v51l15 24v25h-15l-12 -25v-102z" />
<glyph unicode="&#xae;" horiz-adv-x="3282" />
<glyph unicode="&#xaf;" horiz-adv-x="1312" />
<glyph unicode="&#xb0;" horiz-adv-x="1323" />
<glyph unicode="&#xb1;" horiz-adv-x="1988" />
<glyph unicode="&#xb2;" horiz-adv-x="1988" />
<glyph unicode="&#xb3;" horiz-adv-x="1988" />
<glyph unicode="&#xb4;" horiz-adv-x="444" d="M0 1436v22l16 17q0 -18 23 -48v-8h-23zM47 1419v17l16 -17h-16zM47 1450v16h8v-16h-8zM47 1530h39v-25h8l8 25l-30 14l6 8v25l-6 6q15 47 30 47v8q0 17 31 17l-8 8v6l8 8l8 -8h17q0 33 55 33h203l8 -25l-141 -141l-9 8h-16v-8h16l-69 -61h-8l-17 16h17v6h-17l-8 -6v31 h-14q0 -31 -39 -31v-8l31 -8v16h16v-25l-33 -16v16l-22 -16l8 -23l-41 -8l8 8v17h-14v6h14l-8 41v22q-31 0 -31 17zM86 1483h8v14h-8v-14zM111 1591l8 -8h14v8h-14l6 8v17h-6zM119 1450h6l16 -14h-8zM119 1630l22 -8v16h-22v-8zM150 1530h16v14zM158 1583q14 0 14 -22h8 l8 22l-8 25h-8v-17l8 -8h-8l-6 8h-8v-8zM158 1616l14 14h-14v-14zM188 1677l9 -8h8v8l-8 9h-9v-9zM197 1505h16l6 39h-14zM197 1577l16 -16v16h-16zM205 1583l14 16h-14v-16zM236 1552l16 17h-16v-17zM236 1591l47 -14v6l-25 25h-22v-17zM266 1552h8v17h-8v-17zM274 1616 l17 -17l39 9v14h-56v-6zM344 1669h8l17 17h-25v-17z" />
<glyph unicode="&#xb5;" horiz-adv-x="2312" />
<glyph unicode="&#xb6;" horiz-adv-x="2007" />
<glyph unicode="&#xb7;" horiz-adv-x="339" d="M41 623v43q21 104 100 104h21q121 -15 121 -104v-43q0 -84 -131 -105q-111 34 -111 105zM170 735h6v17h-6v-17zM176 604h8v19h-8v-19zM197 578l22 10v16l-6 8v-8z" />
<glyph unicode="&#xb8;" horiz-adv-x="454" d="M-20 -311h16l-16 -17v17zM-4 -328h14v-8h-14v8zM4 -311q9 30 23 30l-9 9v16l142 -25q71 0 71 103h-8l-8 -8l-14 16l6 31h-6q0 -23 -17 -23h-71v15h-9l9 8v16h-9v-16h-14l8 8v16l-16 23l8 24l8 -8h6l-6 -8v-8l15 -14h8l8 22q-3 31 -55 31l16 33h141l-16 -25v-8l86 8v-8 l8 8h8q156 -27 156 -141v-39q0 -58 -22 -64h-17l-39 8l-8 -38h47l-39 -31l-8 8l-6 -8v8q-33 -3 -33 -25h-14v9l14 22v25l-31 14l-47 -45q0 31 -16 31l-6 -8v-23l14 -25v-16l-31 -6l-8 6v-6l8 -8h-24l-6 8h-8v-17q-71 0 -183 23v16q0 19 41 25q0 14 -41 14v17h-6zM27 -297 v-14l16 14h-16zM35 -272v-17h8l14 17h-22zM51 -106h6l17 -17l-23 -8v25zM57 -139l9 8h8v-16l8 8h8l8 -8v-15h-8zM57 -367v-16h17v16h-17zM66 -92h8v-14h-8v14zM74 -319v-17l8 8q39 -14 39 -47h8l16 17l7 -9h16l-8 25l-8 -8l-31 8v14l-8 9h-39zM129 -92v-23l8 -8v-8l8 8h15 v-24q16 0 16 24q47 9 47 39v8h-8v-16h-8l-6 8h-8l8 -8v-14h-25l-8 6h-8v-15h-8v23h-23zM145 -375v-14h23v6zM223 -272h8l-8 -9v-16l8 8h9l14 -14l8 22v9h-8v-17l-6 8h-8l8 9v22zM287 -156v-6h14v6h-14zM287 -375l8 47h6l8 -8h8l9 8v-22q0 -19 -39 -25zM301 -139h25v16h-9z M309 -59v-25h17v25h-17zM309 -233l8 -9v-8l25 8v9h-33zM309 -272v-9h17v9h-17zM317 -209v-16h9v16h-9zM334 -170v-16h22l-14 16h-8zM334 -256l14 -16v16h-14zM348 -203l8 -22h17v16l-17 14zM348 -281l17 -16v16h-17zM373 -162h14v15zM403 -209v-8l9 -8h14v8z" />
<glyph unicode="&#xb9;" horiz-adv-x="657" d="M-25 889q0 143 144 143q135 26 209 94q117 172 190 172h21q103 0 143 -94v-18h-20v-68l-11 -10l11 -8v-21l-19 -28v-37h19v-21l-11 11h-8v-19l29 -10v18h10v-37h-20l10 -86l-10 -39l10 -8v-10l-10 -29l10 11h10v-162l-20 -58l20 -75v-11h-20v-20h20v-76l-10 -37l10 -10 v-8l-10 -10l10 -47v-50l-10 11h-10l-11 -11l21 -75v-11q0 -59 -47 -94q0 -39 -144 -57l-114 49l10 27l-10 28l-11 -10h-10q-37 0 -37 68h-10l10 10l-10 47v68l10 -11h19v11q-29 0 -29 18l10 39l-10 8v10l10 9l-10 96v305h-190q-134 9 -134 123zM281 842h10v28h-10v-28z M299 881h10v26h-10v-26zM309 424h10v27h-10v-27zM309 928h10v65h-10v-65zM377 98l18 -65h19l12 47l-12 -10h-19v28h-18zM377 260h8v21h-8v-21zM385 109h10v18h-10v-18zM414 109l39 -21v10l-27 21h-12v-10zM463 88h18v10h-18v-10zM598 442h6v19h-6v-19zM643 145h8v39h-8v-39z M643 889h8v18h-8v-18zM672 1014v104h10v-104h-10z" />
<glyph unicode="&#xba;" horiz-adv-x="892" d="M-20 819l6 6l-6 33v80q0 88 88 207l30 -29h13l10 10q0 27 -23 27l6 6v4l-6 4v4l23 17h10l16 -10v4l-16 14l16 10l5 -6q0 14 10 14l10 -36l-6 -19q12 0 27 -43h10v4h-10l6 6l-6 37l6 15l-17 4l6 18h11l16 -8v4q-27 15 -27 37q133 53 232 53h10q119 -6 119 -18l-8 -11l14 5 q25 0 25 -19q12 0 12 14l4 5l51 -13l-8 -20l14 14q68 -27 68 -43l6 6h4q0 -11 41 -35q133 -127 133 -356l-2 -61l2 -15l-2 -4h8v-6l-8 -18l2 -41h-2q-22 -9 -49 -80l-76 -72q-67 -49 -94 -55l-4 4l4 10h-4l-6 -6v10l-31 -10v6l-4 -6h-16v6l6 4v6l-17 -10l4 -14l-4 -6h-4v10 h-6v-14h10v-19q-28 -18 -108 -33l-6 -4l-4 4l-33 -4l-4 4h-6l-25 -10l-37 10l-20 -4v4l-7 -4l-57 13l-4 -4q0 11 -86 32q0 10 -43 25q0 11 -25 14v4h11v6l-17 2l-6 -2q-123 120 -129 205l-20 127h-6zM43 84v51l33 78v25h465l10 -25l10 25h244q43 -52 43 -154q-21 0 -21 -76 l-12 -26h-428v51h-10v-51h-291zM59 1040l15 -10v6l-15 11v-7zM74 1145l10 8v-8h-10zM94 1159v8h4v-8h-4zM115 684q18 0 32 -14h5l-31 -33v-6q0 -8 31 -8l-11 -11l-6 6v-6l12 -8l-6 -6v-12q11 0 11 22h10q0 -12 16 -22v-6l-6 -5v-6q16 0 16 -12l5 -6h6l24 35h6l4 -6h7v6 q0 8 -17 8q0 22 -30 43q0 36 -72 51h-6v-4zM131 506h4l17 12l-11 10zM141 557h11v10h-11v-10zM141 627q0 10 17 10h4v-6zM162 580h4v10h-4v-10zM162 618v5h10v-5h-10zM172 1018h10v10h-10v-10zM178 1004l15 4v4h-15v-8zM193 1018l22 -6l-6 -33l10 -4l10 10h17v-6l-6 -4v-4 q20 0 20 -10v-5h6l4 5h4l13 -13l-6 -16q10 0 10 -12l10 4q0 -19 10 -19h6v8h-12v11q18 0 33 24q0 10 -27 13v-9l-51 37q-14 0 -14 10l8 9l-8 10v-10h-23v4h10v6l-24 29q-10 0 -16 -29zM209 1092h10v6h-10v-6zM209 1116l10 -10v10h-10zM223 1102h10v4h-10v-4zM229 1116h11v10 h-11v-10zM233 547l13 -8l4 4v18zM240 692q9 -22 34 -22l-4 4v10l4 4v4l-4 4l17 15q0 14 10 14v10q-13 0 -16 -18h-7l-4 4h-4q-16 -29 -26 -29zM250 899l10 -8l6 4l-6 14l6 4h-6l-10 -8v-6zM254 477h6v10h-6v-10zM254 862h6v8h-6v-8zM254 1139h12l4 14l-4 6h-6zM266 928h8v10 h-8v-10zM266 1065l8 -10h7l6 4h-6zM270 858l21 12v11l-17 6v-6l7 -4v-7l-11 -8v-4zM301 1102q10 0 10 -19h11v9l16 -5v5q-12 28 -21 28h-12zM305 1159h6l11 8l-5 4h-6l-6 -4v-8zM322 868h6v13h-6v-13zM328 1139l26 -4v14l-6 -4l-16 4l-4 -4v-6zM338 1073h10v14h-6zM338 1106 l4 -14h6v10zM342 692h6l10 10h-16v-10zM342 905l12 -10h4v10h11v-10h4l-4 18l16 15v4q-13 0 -37 -27h-6zM358 1163l11 -10l4 10h-15zM373 1051l12 -29l8 8v17zM379 1214h10v7h-10v-7zM385 942h4v10h-4v-10zM399 928h7v10h-7v-10zM399 1030l11 -8h6l4 14h-4l4 4v11h-10 l-11 -11v-10zM399 1106h11v4h-11v-4zM406 952l4 -14h6l4 18zM406 1092h10l10 18l-6 6h-4q0 -14 -10 -14v-10zM426 1163h20v4l-20 4v-8zM436 895h15v10l-5 -6h-6l-4 6v-10zM518 84h10l33 27v24h-20l-13 -24v51l13 24v27h-13l-10 -27v-102zM524 688h4v8h-4v-8zM535 641h10 l-4 18l4 7h-10v-25zM586 1214l16 -14v6l-6 4l6 4h-16zM623 444v9h10v-9h-10zM623 457v10h16v-10h-16zM633 666h10v8zM643 1178h4v10h-4v-10zM653 453v10q17 0 17 8h4v-14zM653 1083l21 -4l-4 13h-17v-9zM659 678l11 -8h4l10 8l-10 10v-10l-4 6h-11v-6zM659 707h11l4 4h6 l10 -9h6q0 10 19 19l12 29l-6 4l-37 -15l12 -10l-6 -18h-6q-10 0 -10 18h-10zM680 754h20l5 4h6l-6 14l-25 -14v-4zM684 778h12l4 13h-16v-13zM690 887l41 -6l4 28h6q0 -14 27 -14v-14l10 10v4q-30 3 -30 25l-43 -21l-5 6l-10 -14v-4zM696 1022l31 -29l4 11l-10 14l6 4v6 q-16 0 -16 12h-6zM700 1149h27v4h-27v-4zM727 975l8 -8h6v8l11 -4l16 14v14h-12l-4 -6l-4 6h-7l-10 -10v-10h10v-4h-14zM735 1102h13v-23l8 -10l12 23h-6q-8 0 -14 18l4 16l-17 -16v-8zM741 952h11l-4 -4v-20h8v10h6q-7 23 -14 23h-7v-9zM748 881l8 -11v11h-8zM756 721h6v8 h-6v-8zM762 848l24 -4v8l-8 10h-6l-10 -10v-4z" />
<glyph unicode="&#xbb;" horiz-adv-x="1851" />
<glyph unicode="&#xbc;" horiz-adv-x="3346" />
<glyph unicode="&#xbd;" horiz-adv-x="3850" />
<glyph unicode="&#xbe;" horiz-adv-x="3346" />
<glyph unicode="&#xbf;" horiz-adv-x="927" d="M49 424q0 141 285 375q42 42 63 174q42 45 101 45q100 -21 100 -100v-56q0 -146 -264 -346q-47 -71 -47 -119q0 -120 174 -147q146 0 201 174q30 111 108 111h10q111 -24 111 -101v-37q0 -167 -248 -301q-115 -28 -190 -28q-239 0 -359 182l37 37h-8l8 28h19v-18l36 8v10 q-43 0 -82 45l-10 -8h-16l16 35l-16 19l-10 -9h-9zM86 297l8 8h10l11 -26l-11 -9h-10zM141 342h27v10h-27v-10zM215 360h16v9h-16v-9zM350 1200v10q18 127 121 127h27q100 0 118 -137q-30 -117 -118 -117h-19q-129 21 -129 117zM754 424l8 -8v-10l8 10h10l11 -10h8v36h-19 q0 -18 -26 -18zM791 342h8l10 10v8h-10l-8 -8v-10zM817 406l19 -19v19h-19zM854 387h18l-18 19v-19z" />
<glyph unicode="&#xc0;" horiz-adv-x="1112" d="M-20 184v17l16 14h39v-14h8q-3 -39 -47 -39zM35 -4q0 90 125 377q12 2 71 164q215 255 367 407q47 47 64 47q27 0 118 -186q62 -136 62 -166q80 -127 80 -172q18 0 39 -102q53 -142 163 -267l9 -55q0 -94 -134 -109l-22 9v-9q-79 0 -158 236l-127 -16h-125l-47 8l-8 -8 h-6q-37 16 -86 16h-55v23l55 8v-8l22 8v8l-30 6q-52 0 -111 -109q0 -47 -39 -47v-16l33 -39v-14q-44 -72 -55 -72v8l-80 -32q-73 0 -125 88v14zM240 -10h14v14zM262 625l80 249l-8 9v8q25 85 92 164q0 21 119 39l8 -9v9q73 -30 100 -70v-16q-302 -277 -352 -383l-31 -25z M274 1473l17 14h172q86 0 86 -31l8 8h8l15 -16l-7 -8v-8l7 -7h-15v-8h8l23 8l70 -135l-9 -8q41 -15 41 -61v-9l-47 -8q-100 0 -141 47h-8q-173 142 -228 222zM387 373q124 -31 266 -31h39q-56 115 -164 424h-16v-25l-92 -235q-24 -47 -33 -133zM393 1456h15v8h-15v-8z M416 1354h8l16 16l-8 8h-16v-24zM446 1307h17v8h-17v-8zM446 1384l17 -14v14h-17zM455 1417h16v8l-16 15v-23zM471 1370l16 14h-16v-14zM479 1337h8v17h-8v-17zM549 1235h16l-8 8v8l8 9h-8l-8 -9v-16zM549 1282l31 8v8l-15 17zM573 1393h7l16 16h-23v-16zM580 1331h16l-8 -8 v-8l47 8l-17 31l-22 -17l-8 9l-8 -9v-6zM580 1370h16v14zM588 1290h16v8h-16v-8zM604 1251h14l-6 25h-8v-25zM604 1323v14h14v-14h-14zM612 1290h31l-16 17zM618 1235h17v8h-17v-8zM651 1243l23 -8v25h-8z" />
<glyph unicode="&#xc1;" horiz-adv-x="1112" d="M-20 184v17l16 14h39v-14h8q-3 -39 -47 -39zM35 -4q0 90 125 377q12 2 71 164q215 255 367 407q47 47 64 47q27 0 118 -186q62 -136 62 -166q80 -127 80 -172q18 0 39 -102q53 -142 163 -267l9 -55q0 -94 -134 -109l-22 9v-9q-79 0 -158 236l-127 -16h-125l-47 8l-8 -8 h-6q-37 16 -86 16h-55v23l55 8v-8l22 8v8l-30 6q-52 0 -111 -109q0 -47 -39 -47v-16l33 -39v-14q-44 -72 -55 -72v8l-80 -32q-73 0 -125 88v14zM240 -10h14v14zM262 625l80 249l-8 9v8q25 85 92 164q0 21 119 39l8 -9v9q73 -30 100 -70v-16q-302 -277 -352 -383l-31 -25z M387 373q124 -31 266 -31h39q-56 115 -164 424h-16v-25l-92 -235q-24 -47 -33 -133zM434 1374v23l17 16q0 -19 22 -47v-8h-22zM481 1358v16l17 -16h-17zM481 1389v16h8v-16h-8zM481 1468h39v-24h8l9 24l-31 15l6 8v25l-6 6q15 47 31 47v8q0 16 30 16l-8 9v6l8 8l8 -8h17 q0 32 55 32h203l8 -24l-141 -141l-8 8h-17v-8h17l-70 -62h-8l-17 17h17v6h-17l-8 -6v30h-14q0 -30 -39 -30v-9l31 -8v17h16v-25l-33 -16v16l-22 -16l8 -23l-41 -8l8 8v16h-14v7h14l-8 41v22q-31 0 -31 16zM520 1421h8v15h-8v-15zM545 1530l8 -8h14v8h-14l6 8v16h-6z M553 1389h6l16 -15h-8zM553 1569l22 -8v16h-22v-8zM584 1468h16v15zM592 1522q14 0 14 -23h8l9 23l-9 24h-8v-16l8 -8h-8l-6 8h-8v-8zM592 1554l14 15h-14v-15zM623 1616l8 -8h8v8l-8 8h-8v-8zM631 1444h16l6 39h-14zM631 1516l16 -17v17h-16zM639 1522l14 16h-14v-16z M670 1491l16 16h-16v-16zM670 1530l47 -14v6l-25 24h-22v-16zM700 1491h9v16h-9v-16zM709 1554l16 -16l39 8v15h-55v-7zM778 1608h8l17 16h-25v-16z" />
<glyph unicode="&#xc2;" horiz-adv-x="1112" d="M-20 184v17l16 14h39v-14h8q-3 -39 -47 -39zM35 -4q0 90 125 377q12 2 71 164q215 255 367 407q47 47 64 47q27 0 118 -186q62 -136 62 -166q80 -127 80 -172q18 0 39 -102q53 -142 163 -267l9 -55q0 -94 -134 -109l-22 9v-9q-79 0 -158 236l-127 -16h-125l-47 8l-8 -8 h-6q-37 16 -86 16h-55v23l55 8v-8l22 8v8l-30 6q-52 0 -111 -109q0 -47 -39 -47v-16l33 -39v-14q-44 -72 -55 -72v8l-80 -32q-73 0 -125 88v14zM176 1315q0 83 141 188q0 -24 17 -24l-8 39q153 118 196 118h86q0 -30 -39 -63l23 -23l24 15l-16 24v8l31 7v8l-8 8v8l110 -63 q28 -78 39 -78v39q16 0 16 -31q39 0 39 -16q-24 0 -24 -23h-8l-23 17l-8 -25q0 -16 39 -16h24l-8 41h17q100 -81 100 -142v-8q-15 -119 -100 -119l-64 8v9q23 0 23 16l-31 8l-14 -16l-172 133l6 8v8h-6l-9 -8h-8l-8 8l-55 -55l-6 8q-47 -59 -103 -86l-8 31h-8l-8 -8h-9 l17 -39l-72 -25h-6q-92 0 -119 111zM240 -10h14v14zM262 625l80 249l-8 9v8q25 85 92 164q0 21 119 39l8 -9v9q73 -30 100 -70v-16q-302 -277 -352 -383l-31 -25zM373 1292h16v8h-16v-8zM387 373q124 -31 266 -31h39q-56 115 -164 424h-16v-25l-92 -235q-24 -47 -33 -133z M467 1378h8l8 8v7h-8l-8 -7v-8zM522 1495h39v8l-16 15h-23v-23zM584 1417h32v8l-24 23h-8v-31zM592 1473h39l-15 14l15 24v7q-20 -23 -39 -23v-22zM616 1378h15v8h-15v-8zM623 1526h16v8h-16v-8zM639 1409h25v16h-17v7h17v16h-17zM647 1401l8 -31h15v16l-15 15h-8zM670 1432 l24 8l31 -23h16v31l-24 8q-38 0 -47 -24zM678 1393l8 -31l16 16v47h-8q0 -32 -16 -32zM717 1284h16v23l-16 -15v-8zM803 1425l24 -24v8l-16 16h-8zM827 1393l31 -70l16 16q0 43 -32 54h-15zM866 1268l31 24v8h-31v-32z" />
<glyph unicode="&#xc3;" horiz-adv-x="1112" d="M-20 184v17l16 14h39v-14h8q-3 -39 -47 -39zM35 -4q0 90 125 377q12 2 71 164q215 255 367 407q47 47 64 47q27 0 118 -186q62 -136 62 -166q80 -127 80 -172q18 0 39 -102q53 -142 163 -267l9 -55q0 -94 -134 -109l-22 9v-9q-79 0 -158 236l-127 -16h-125l-47 8l-8 -8 h-6q-37 16 -86 16h-55v23l55 8v-8l22 8v8l-30 6q-52 0 -111 -109q0 -47 -39 -47v-16l33 -39v-14q-44 -72 -55 -72v8l-80 -32q-73 0 -125 88v14zM188 1503v15q0 132 181 196h63q78 -3 78 -16l-47 -117h-8v16h-9v-8l9 -8v-8q-52 -180 -125 -180l-31 -9q-93 0 -111 119z M240 -10h14v14zM262 625l80 249l-8 9v8q25 85 92 164q0 21 119 39l8 -9v9q73 -30 100 -70v-16q-302 -277 -352 -383l-31 -25zM330 1526h8v16h-8v-16zM387 373q124 -31 266 -31h39q-56 115 -164 424h-16v-25l-92 -235q-24 -47 -33 -133zM463 1456v14q24 0 24 48l54 8v8h-39 q70 141 94 141l86 -30l149 69h23q111 -15 111 -94v-47q0 -125 -172 -180h-17q0 22 -47 63v-8l16 -25v-14l-16 -16l-16 24l8 6v9l-8 -9h-8q-20 0 -23 33h-8v-24l39 -31v-8h-8q-56 0 -242 63zM541 1511l8 -8h8v8l-8 7h-8v-7zM588 1432h16v8h-16v-8zM627 1495l39 -39v8 q-9 39 -23 39h-16v-8zM666 1479l8 -9h24v9l-32 8v-8zM784 1456l9 -8h14v8l-23 8v-8z" />
<glyph unicode="&#xc4;" horiz-adv-x="1112" d="M-20 184v17l16 14h39v-14h8q-3 -39 -47 -39zM35 -4q0 90 125 377q12 2 71 164q215 255 367 407q47 47 64 47q27 0 118 -186q62 -136 62 -166q80 -127 80 -172q18 0 39 -102q53 -142 163 -267l9 -55q0 -94 -134 -109l-22 9v-9q-79 0 -158 236l-127 -16h-125l-47 8l-8 -8 h-6q-37 16 -86 16h-55v23l55 8v-8l22 8v8l-30 6q-52 0 -111 -109q0 -47 -39 -47v-16l33 -39v-14q-44 -72 -55 -72v8l-80 -32q-73 0 -125 88v14zM166 1536l18 74l6 -6l7 6h12l6 -6l25 6v6q-25 0 -25 31h12l-6 -5v-8h6l6 8l13 -14h6l-6 25l-6 -6h-13v12l80 27h19q64 0 94 -52 q19 0 37 -43v-6l-6 6h-15v-6l21 -6l6 6l6 -55q0 -71 -70 -123q-9 25 -16 25l-6 -7v-18h12v-12l-76 -13q-132 0 -147 154zM197 1616v12h12v-12h-12zM240 -10h14v14zM252 1604h6q29 9 45 38l-14 11v-6l6 -5v-8q-43 -15 -43 -30zM262 625l80 249l-8 9v8q25 85 92 164 q0 21 119 39l8 -9v9q73 -30 100 -70v-16q-302 -277 -352 -383l-31 -25zM264 1536h12v6h-12v-6zM270 1634l13 13v6l-13 -11v-8zM319 1530h13v6h-13v-6zM326 1554h14v7h-14v-7zM377 1567h6l6 6q17 0 17 -19h14l-6 7l6 30h-14v-12h-7q0 18 -10 18v-6l4 -6l-16 -6v-12zM387 373 q124 -31 266 -31h39q-56 115 -164 424h-16v-25l-92 -235q-24 -47 -33 -133zM399 1610l15 -13v13h-15zM442 1554h15l-15 13v-13zM567 1505v56q40 125 129 125h13q96 0 149 -95l-8 -6l12 -55q-12 0 -12 31h-12q0 -37 24 -37v-6q-30 -136 -135 -136h-12l-31 25v-6l12 -19h-6 q-104 37 -104 74h12v12l-6 -6h-12zM580 1499l6 -24h6v18l-6 6h-6zM647 1438l12 -13h7l-7 25h-12v-12zM653 1604h6v12h-6v-12zM659 1518h13v6h-13v-6zM666 1542h12v6h-12v-6zM678 1432h6v30h-6v-30zM709 1425l12 -12v12h-12zM709 1585l18 -12l6 6v6l-12 12v7l6 -7h6v19h-18z M739 1481h13v6h-13v-6zM770 1468l12 -12v12h-12zM776 1604l25 -7v13h-25v-6zM782 1567l19 -13v13l-19 6v-6zM801 1462l18 -18h6v18l-6 6l6 7v12l-18 -19h-6v-6zM831 1591l7 -6h6v6l-6 6h-7v-6z" />
<glyph unicode="&#xc5;" horiz-adv-x="1112" d="M-20 184v17l16 14h39v-14h8q-3 -39 -47 -39zM35 -4q0 90 125 377q12 2 71 164q215 255 367 407q47 47 64 47q27 0 118 -186q62 -136 62 -166q80 -127 80 -172q18 0 39 -102q53 -142 163 -267l9 -55q0 -94 -134 -109l-22 9v-9q-79 0 -158 236l-127 -16h-125l-47 8l-8 -8 h-6q-37 16 -86 16h-55v23l55 8v-8l22 8v8l-30 6q-52 0 -111 -109q0 -47 -39 -47v-16l33 -39v-14q-44 -72 -55 -72v8l-80 -32q-73 0 -125 88v14zM240 -10h14v14zM262 625l80 249l-8 9v8q25 85 92 164q0 21 119 39l8 -9v9q73 -30 100 -70v-16q-302 -277 -352 -383l-31 -25z M344 1368v16h8v-16h-8zM344 1391v16l8 47l-8 8v8l25 39h-9q41 74 78 86l47 -69v-8h-8l-8 8h-6v-41h-8l-9 8h-8v-8l8 -6v-9q-16 0 -16 -32l-39 16l17 -22h-17l8 -25l9 8h8l14 -39h-14l6 -30l-14 -17v-8h8q14 0 14 25l8 6h8v-6l-38 -80l-25 32h8l25 -8v15q-17 0 -17 32h-24v9 l8 6v8l-23 31h-16zM352 1352v8h17v-8h-17zM360 1321v16l23 -8v-8h-23zM360 1415l15 -16v16h-15zM369 1432l14 14v8h-14v-22zM383 1509h16v17h-16v-17zM387 373q124 -31 266 -31h39q-56 115 -164 424h-16v-25l-92 -235q-24 -47 -33 -133zM399 1376h9v15h-9v-15zM430 1243v17 l39 -9l8 9l17 -25v-16h-9q-27 24 -55 24zM430 1290h16v-24h-8zM430 1518h25v14h-25v-14zM463 1313v16h6v-16h-6zM469 1266l8 47l17 -15v-32h-25zM477 1329h17v-16zM494 1305v8h16v-8h-16zM502 1266l8 32h6l16 -16v-16l-8 8h-8v-14l-6 6h-8zM502 1626h14q0 -22 16 -22v-9h-16 v-16l25 16l8 -8l16 17v16h-24l8 -8v-8h-8l-17 16l8 6h64q32 0 47 -31h31v-8q-38 0 -47 -31h16v-8l-16 -22q-47 6 -47 39h-15l-8 -33l8 -6h-24l8 6v8l-8 8h8l-8 25h-17l17 -25h-9q-21 0 -30 78zM510 1227v8q39 26 39 55h8q0 -24 14 -24h9q0 24 16 24v-8l-8 -8v-8h8l31 24 l-9 23h-14v-23l-8 8h-16v-16l-9 8h-6l6 31l9 -8h8q0 16 39 16l-9 8v9q26 0 41 69v31l-8 8v8q31 0 31 17h-8l-8 -9h-7l-8 23l8 8l-8 8q17 0 39 31h8v8l-8 8v9l8 8h9q61 -70 61 -158q0 -103 -102 -141v-8h24l-8 -6v-9l-31 15l-16 -23l8 8h31v-8l-62 -24l15 24v8l-23 -16l-8 8 v-8l8 -8l-24 -15h-9l-6 7l-33 -7v7h17v16zM524 1305v8h17l16 -15l-8 -8h-8zM549 1573h16v14zM565 1227h6l9 8v8h-9l-6 -8v-8zM596 1565h8l8 8v6h-8l-8 -6v-8zM659 1352l7 -6h16l-8 6v8l16 24v7zM707 1454l14 -16v16h-14zM707 1479h14v14l-14 16v-30zM737 1415h23v17l-23 -9 v-8z" />
<glyph unicode="&#xc6;" horiz-adv-x="1808" d="M-20 184v17l16 14h39v-14h8q-3 -39 -47 -39zM35 -4q0 90 125 377q12 2 71 164q215 255 367 407q47 47 64 47q27 0 118 -186q62 -136 62 -166q80 -127 80 -172q18 0 39 -102q53 -142 163 -267l9 -55q0 -94 -134 -109l-22 9v-9q-79 0 -158 236l-127 -16h-125l-47 8l-8 -8 h-6q-37 16 -86 16h-55v23l55 8v-8l22 8v8l-30 6q-52 0 -111 -109q0 -47 -39 -47v-16l33 -39v-14q-44 -72 -55 -72v8l-80 -32q-73 0 -125 88v14zM240 -10h14v14zM262 625l80 249l-8 9v8q25 85 92 164q0 21 119 39l8 -9v9q73 -30 100 -70v-16q-302 -277 -352 -383l-31 -25z M387 373q124 -31 266 -31h39q-56 115 -164 424h-16v-25l-92 -235q-24 -47 -33 -133zM623 131l8 39v55l16 94l-8 31l23 244h16l-16 47v55q0 71 55 95q-52 55 -55 124q15 0 24 70l-8 25q0 194 117 282q0 41 157 56l729 -56q113 -47 134 -102h8v-16l14 -87v-16 q-41 -111 -78 -125q0 -13 -100 -39l-8 8l-39 -8q-488 24 -488 39q-23 -39 -55 -39l33 -86v-8l211 -8l47 -8l8 8l78 -8h72l8 -6h6v6q140 -35 166 -86v-6l-8 -9v-8q20 0 55 -47l8 -94q-16 0 -16 -55q-83 -95 -189 -95l-463 31l-16 -47l8 -8l-8 -109l188 -16l9 8l39 -8h86l8 -6 l8 6q130 -9 166 -31l53 8q97 -29 150 -116q6 -48 16 -48l-8 -38v-56q-53 -127 -197 -127l-55 -8l-6 8v-8l-25 8q-502 15 -502 39l-69 -14q-213 30 -213 63q-17 0 -70 62l6 8v8zM709 492v16h8v-16h-8zM717 680v8h24v-8h-24zM725 516v6h16v-6h-16zM733 752v6h23v-6h-23z M780 156h8v14h-8v-14zM850 907h16v8h-16v-8zM985 195h14v-17zM1008 891h8v33h-8v-33zM1016 201v16h8v-16h-8zM1030 891h8l17 16v17l-25 -9v-24zM1047 852l16 -14v14h-16zM1196 649h14v8h-14v-8zM1235 672h6v16h-6v-16zM1343 752h9v14h-9v-14zM1518 156h8v14h-8v-14z M1518 186h14l8 9v14h-8l-14 -14v-9zM1659 680l8 -8h6v8l-6 8h-8v-8z" />
<glyph unicode="&#xc7;" horiz-adv-x="1105" d="M-20 758q6 47 16 47l-8 6v8l8 8v9l-8 30l8 8v9l-8 8v6l16 47l-8 8v9l14 47v8l-6 8v6q12 0 94 174q170 164 250 164q0 26 172 47l64 -8l8 8q140 0 313 -117q79 -70 125 -174l-6 -22l6 -8v-9q0 -37 -86 -108q0 -16 -39 -16q-50 14 -86 69v17l39 77q-15 72 -63 72l-47 8 q-20 -3 -56 -39h-6q-94 21 -94 39l-8 -8h-17q-47 0 -47 31h-8l-6 -39h-55q-36 0 -156 -111h-33l33 -30q-47 -71 -47 -134h6l-6 -8v-22l6 -9l-14 -38l8 -9v-8l-8 -8l30 -164l-16 -39q47 -18 47 -30v-48q26 0 41 -41l-8 -8q47 -27 92 -78q72 -28 72 -69l-9 -8l39 -17 q103 15 103 56l14 16h8l17 -16q153 35 172 69q41 41 88 230q10 0 31 55l47 14q101 0 116 -149q-24 -189 -86 -189l-22 -47h8l-25 -31h-30l-8 9h-9v-25q25 0 25 -22l-41 -31h-6l-17 14h9l-17 25q-69 -26 -69 -103l-97 -22v8l-86 -33l-39 17l-30 -9h-9q-16 0 -16 31h-14l8 -31 l-41 -16l-86 25l-6 -9h-8q-111 9 -291 189q0 17 -78 164zM113 442l8 -8h8v8l-8 9h-8v-9zM152 1077h8v25h-8v-25zM207 639h8v16h-8v-16zM301 459h16v8h-16v-8zM305 -311h17l-17 -17v17zM322 -328h14v-8h-14v8zM330 -311q9 30 22 30l-8 9v16l141 -25q72 0 72 103h-8l-8 -8 l-15 16l6 31h-6q0 -23 -16 -23h-72v15h-8l8 8v16h-8v-16h-14l8 8v16l-16 23l8 24l8 -8h6l-6 -8v-8l14 -14h8l9 22q-3 31 -56 31l17 33h141l-16 -25v-8l86 8v-8l8 8h8q156 -27 156 -141v-39q0 -57 -23 -64h-16l-39 8l-8 -38h47l-39 -31l-8 8l-6 -8v8q-33 -3 -33 -25h-15v9 l15 22v25l-31 14l-47 -45q0 31 -16 31l-7 -8v-23l15 -25v-16l-31 -6l-8 6v-6l8 -8h-25l-6 8h-8v-17q-70 0 -182 23v16q0 19 41 25q0 14 -41 14v17h-6zM334 1346l8 -25l23 33zM352 -297v-14l17 14h-17zM360 -272v-17h9l14 17h-23zM377 -106h6l16 -17l-22 -8v25zM383 -139l8 8 h8v-16l9 8h8l8 -8v-15h-8zM383 -367v-16h16v16h-16zM387 270h8v17h-8v-17zM391 -92h8v-14h-8v14zM399 -319v-17l9 8q38 -14 38 -47h9l16 17l6 -9h17l-9 25l-8 -8l-31 8v14l-8 9h-39zM451 1251h8l8 9v6h-8l-8 -6v-9zM455 -92v-23l8 -8v-8l8 8h14v-24q17 0 17 24q47 9 47 39v8 h-8v-16h-9l-6 8h-8l8 -8v-14h-24l-8 6h-9v-15h-8v23h-22zM471 -375v-14h23v6zM473 201l25 -25l8 8v25zM549 -272h8l-8 -9v-16l8 8h8l15 -14l8 22v9h-8v-17l-7 8h-8l8 9v22zM575 223h17v8h-17v-8zM584 1227l8 -8h6l16 16l-16 16zM606 193h17v8h-17v-8zM612 -156v-6h15v6h-15z M612 -375l9 47h6l8 -8h8l8 8v-22q0 -19 -39 -25zM627 -139h24v16h-8zM635 -59v-25h16v25h-16zM635 -233l8 -9v-8l25 8v9h-33zM635 -272v-9h16v9h-16zM643 -209v-16h8v16h-8zM659 -170v-16h23l-14 16h-9zM659 -256l15 -16v16h-15zM662 1227l8 -8h8l8 8v8h-8l-8 -8l-8 8v-8z M674 -203l8 -22h16v16l-16 14zM674 -281l16 -16v16h-16zM698 -162h15v15zM717 1149v31h47v-23l-39 -16zM729 -209v-8l8 -8h15v8zM836 537l6 24h16l16 -16v-8l-16 -15h-8zM874 1030l9 -6h14l-8 23zM874 1102h15v8h-15v-8zM913 317l17 17l-8 8h-9v-25z" />
<glyph unicode="&#xc8;" horiz-adv-x="1175" d="M-20 145l8 39v56l16 94l-8 31l22 243h17l-17 47v56q0 70 56 94q-53 56 -56 125q16 0 25 69l-8 25q0 194 117 283q0 40 157 55l729 -55q112 -47 133 -103h9v-16l14 -86v-17q-40 -110 -78 -124q0 -13 -100 -39l-8 8l-39 -8q-488 24 -488 39q-23 -39 -55 -39l33 -86v-9 l211 -8l47 -8l8 8l78 -8h71l9 -6h6v6q140 -35 166 -86v-6l-8 -8v-9q20 0 55 -47l8 -94q-16 0 -16 -55q-82 -94 -189 -94l-463 30l-16 -47l8 -8l-8 -108l188 -17l9 8l39 -8h86l8 -6l8 6q130 -9 166 -31l53 9q96 -29 150 -117q6 -47 16 -47l-8 -39v-55q-53 -127 -197 -127 l-55 -9l-6 9v-9l-25 9q-502 15 -502 39l-69 -15q-213 30 -213 64q-18 0 -70 61l6 8v8zM66 506h8v16h-8v-16zM74 694h24v8h-24v-8zM82 530h16v7h-16v-7zM90 766h23v6h-23v-6zM137 170h8v14h-8v-14zM207 922h16v8h-16v-8zM342 209l14 -16v16h-14zM365 905h8v33h-8v-33z M373 215h8v16h-8v-16zM387 905h8l17 17v16l-25 -8v-25zM403 866l17 -14v14h-17zM412 1683l16 15h172q86 0 86 -31l8 8h8l15 -16l-6 -8v-9l6 -6h-15v-8h9l22 8l70 -135l-8 -8q41 -15 41 -61v-9l-48 -8q-100 0 -141 47h-8q-172 141 -227 221zM530 1667h15v8h-15v-8zM553 664 h14v8h-14v-8zM553 1565h8l17 16l-9 8h-16v-24zM584 1518h16v8h-16v-8zM584 1595l16 -14v14h-16zM592 686h6v16h-6v-16zM592 1628h16v8l-16 15v-23zM608 1581l17 14h-17v-14zM616 1548h9v17h-9v-17zM686 1446h16l-8 8v8l8 8h-8l-8 -8v-16zM686 1493l31 8v8l-15 17zM700 766h9 v14h-9v-14zM711 1604h6l16 16h-22v-16zM717 1542h16l-8 -8v-8l47 8l-16 31l-23 -17l-8 8l-8 -8v-6zM717 1581h16v14zM725 1501h16v8h-16v-8zM741 1462h15l-6 25h-9v-25zM741 1534v14h15v-14h-15zM750 1501h30l-16 17zM756 1446h16v8h-16v-8zM788 1454l23 -8v24h-8zM874 170 h9v14h-9v-14zM874 201h15l8 8v14h-8l-15 -14v-8zM1016 694l8 -8h6v8l-6 8h-8v-8z" />
<glyph unicode="&#xc9;" horiz-adv-x="1175" d="M-20 145l8 39v56l16 94l-8 31l22 243h17l-17 47v56q0 70 56 94q-53 56 -56 125q16 0 25 69l-8 25q0 194 117 283q0 40 157 55l729 -55q112 -47 133 -103h9v-16l14 -86v-17q-40 -110 -78 -124q0 -13 -100 -39l-8 8l-39 -8q-488 24 -488 39q-23 -39 -55 -39l33 -86v-9 l211 -8l47 -8l8 8l78 -8h71l9 -6h6v6q140 -35 166 -86v-6l-8 -8v-9q20 0 55 -47l8 -94q-16 0 -16 -55q-82 -94 -189 -94l-463 30l-16 -47l8 -8l-8 -108l188 -17l9 8l39 -8h86l8 -6l8 6q130 -9 166 -31l53 9q96 -29 150 -117q6 -47 16 -47l-8 -39v-55q-53 -127 -197 -127 l-55 -9l-6 9v-9l-25 9q-502 15 -502 39l-69 -15q-213 30 -213 64q-18 0 -70 61l6 8v8zM66 506h8v16h-8v-16zM74 694h24v8h-24v-8zM82 530h16v7h-16v-7zM90 766h23v6h-23v-6zM137 170h8v14h-8v-14zM207 922h16v8h-16v-8zM342 209l14 -16v16h-14zM365 905h8v33h-8v-33z M373 215h8v16h-8v-16zM387 905h8l17 17v16l-25 -8v-25zM403 866l17 -14v14h-17zM506 1436v22l16 17q0 -18 23 -48v-8h-23zM553 664h14v8h-14v-8zM553 1419v17l16 -17h-16zM553 1450v16h8v-16h-8zM553 1530h39v-25h8l8 25l-30 14l6 8v25l-6 6q15 47 30 47v8q0 17 31 17l-8 8 v6l8 8l8 -8h17q0 33 55 33h203l8 -25l-142 -141l-8 8h-16v-8h16l-69 -61h-9l-16 16h16v6h-16l-8 -6v31h-14q0 -31 -39 -31v-8l30 -8v16h17v-25l-33 -16v16l-23 -16l9 -23l-41 -8l8 8v17h-14v6h14l-8 41v22q-31 0 -31 17zM592 686h6v16h-6v-16zM592 1483h8v14h-8v-14z M616 1591l9 -8h14v8h-14l6 8v17h-6zM625 1450h6l16 -14h-8zM625 1630l22 -8v16h-22v-8zM655 1530h17v14zM664 1583q14 0 14 -22h8l8 22l-8 25h-8v-17l8 -8h-8l-6 8h-8v-8zM664 1616l14 14h-14v-14zM694 1677l8 -8h9v8l-9 9h-8v-9zM700 766h9v14h-9v-14zM702 1505h17l6 39 h-14zM702 1577l17 -16v16h-17zM711 1583l14 16h-14v-16zM741 1552l17 17h-17v-17zM741 1591l47 -14v6l-24 25h-23v-17zM772 1552h8v17h-8v-17zM780 1616l17 -17l39 9v14h-56v-6zM850 1669h8l16 17h-24v-17zM874 170h9v14h-9v-14zM874 201h15l8 8v14h-8l-15 -14v-8zM1016 694 l8 -8h6v8l-6 8h-8v-8z" />
<glyph unicode="&#xca;" horiz-adv-x="1175" d="M-20 145l8 39v56l16 94l-8 31l22 243h17l-17 47v56q0 70 56 94q-53 56 -56 125q16 0 25 69l-8 25q0 194 117 283q0 40 157 55l729 -55q112 -47 133 -103h9v-16l14 -86v-17q-40 -110 -78 -124q0 -13 -100 -39l-8 8l-39 -8q-488 24 -488 39q-23 -39 -55 -39l33 -86v-9 l211 -8l47 -8l8 8l78 -8h71l9 -6h6v6q140 -35 166 -86v-6l-8 -8v-9q20 0 55 -47l8 -94q-16 0 -16 -55q-82 -94 -189 -94l-463 30l-16 -47l8 -8l-8 -108l188 -17l9 8l39 -8h86l8 -6l8 6q130 -9 166 -31l53 9q96 -29 150 -117q6 -47 16 -47l-8 -39v-55q-53 -127 -197 -127 l-55 -9l-6 9v-9l-25 9q-502 15 -502 39l-69 -15q-213 30 -213 64q-18 0 -70 61l6 8v8zM66 506h8v16h-8v-16zM74 694h24v8h-24v-8zM82 530h16v7h-16v-7zM90 766h23v6h-23v-6zM137 170h8v14h-8v-14zM207 922h16v8h-16v-8zM311 1520q0 82 142 188q0 -25 16 -25l-8 39 q155 119 196 119h86q0 -31 -38 -63l22 -23l25 14l-17 25v8l31 6v9l-8 8v8l110 -64q27 -77 39 -77v39q17 0 17 -31q39 0 39 -17q-25 0 -25 -22h-8l-23 16l-8 -24q0 -17 39 -17h25l-9 41h17q100 -81 100 -141v-8q-15 -119 -100 -119l-64 8v8q23 0 23 17l-31 8l-14 -16 l-172 133l6 8v8h-6l-8 -8h-9l-8 8l-55 -55l-6 8q-47 -59 -103 -86l-8 31h-8l-8 -8h-8l16 -39l-72 -25h-6q-92 0 -119 111zM342 209l14 -16v16h-14zM365 905h8v33h-8v-33zM373 215h8v16h-8v-16zM387 905h8l17 17v16l-25 -8v-25zM403 866l17 -14v14h-17zM508 1497h16v8h-16v-8 zM553 664h14v8h-14v-8zM592 686h6v16h-6v-16zM602 1583h8l8 8v6h-8l-8 -6v-8zM657 1700h39v8l-16 14h-23v-22zM700 766h9v14h-9v-14zM719 1622h33v8l-25 23h-8v-31zM727 1677h39l-14 15l14 24v6q-19 -22 -39 -22v-23zM752 1583h14v8h-14v-8zM758 1731h16v8h-16v-8zM774 1614 h25v16h-17v6h17v17h-17zM782 1606l9 -31h14v16l-14 15h-9zM805 1636l24 9l31 -23h17v31l-25 8q-38 0 -47 -25zM813 1597l8 -30l17 16v47h-9q0 -33 -16 -33zM852 1489h16v22l-16 -14v-8zM874 170h9v14h-9v-14zM874 201h15l8 8v14h-8l-15 -14v-8zM938 1630l25 -24v8l-17 16h-8 zM963 1597l30 -69l17 16q0 42 -33 53h-14zM1001 1473l31 24v8h-31v-32zM1016 694l8 -8h6v8l-6 8h-8v-8z" />
<glyph unicode="&#xcb;" horiz-adv-x="1175" d="M-20 145l8 39v56l16 94l-8 31l22 243h17l-17 47v56q0 70 56 94q-53 56 -56 125q16 0 25 69l-8 25q0 194 117 283q0 40 157 55l729 -55q112 -47 133 -103h9v-16l14 -86v-17q-40 -110 -78 -124q0 -13 -100 -39l-8 8l-39 -8q-488 24 -488 39q-23 -39 -55 -39l33 -86v-9 l211 -8l47 -8l8 8l78 -8h71l9 -6h6v6q140 -35 166 -86v-6l-8 -8v-9q20 0 55 -47l8 -94q-16 0 -16 -55q-82 -94 -189 -94l-463 30l-16 -47l8 -8l-8 -108l188 -17l9 8l39 -8h86l8 -6l8 6q130 -9 166 -31l53 9q96 -29 150 -117q6 -47 16 -47l-8 -39v-55q-53 -127 -197 -127 l-55 -9l-6 9v-9l-25 9q-502 15 -502 39l-69 -15q-213 30 -213 64q-18 0 -70 61l6 8v8zM66 506h8v16h-8v-16zM74 694h24v8h-24v-8zM82 530h16v7h-16v-7zM90 766h23v6h-23v-6zM137 170h8v14h-8v-14zM207 922h16v8h-16v-8zM332 1581l18 74l6 -6l6 6h13l6 -6l25 6v6 q-25 0 -25 31h12l-6 -4v-9h6l6 9l13 -15h6l-6 25l-6 -6h-13v12l80 27h19q64 0 94 -52q19 0 37 -43v-6l-7 6h-14v-6l21 -6l6 6l6 -55q0 -71 -70 -123q-9 25 -16 25l-6 -7v-18h12v-12l-76 -13q-132 0 -147 154zM342 209l14 -16v16h-14zM362 1661v12h13v-12h-13zM365 905h8v33 h-8v-33zM373 215h8v16h-8v-16zM387 905h8l17 17v16l-25 -8v-25zM403 866l17 -14v14h-17zM418 1649h6q28 8 45 39l-14 10v-6l6 -4v-9q-43 -15 -43 -30zM430 1581h12v6h-12v-6zM436 1679l13 13v6l-13 -10v-9zM485 1575h13v6h-13v-6zM492 1599h14v7h-14v-7zM543 1612h6l6 6 q16 0 16 -19h15l-6 7l6 30h-15v-12h-6q0 18 -10 18v-6l4 -6l-16 -6v-12zM553 664h14v8h-14v-8zM565 1655l15 -13v13h-15zM592 686h6v16h-6v-16zM608 1599h15l-15 13v-13zM700 766h9v14h-9v-14zM733 1550v56q40 125 129 125h12q97 0 150 -95l-8 -6l12 -55q-12 0 -12 31h-12 q0 -37 24 -37v-6q-30 -136 -135 -136h-12l-31 25v-6l12 -19h-6q-104 37 -104 74h12v12l-6 -6h-13zM745 1544l7 -24h6v18l-6 6h-7zM813 1483l12 -13h6l-6 25h-12v-12zM819 1649h6v12h-6v-12zM825 1563h13v6h-13v-6zM831 1587h13v6h-13v-6zM844 1477h6v30h-6v-30zM874 170h9 v14h-9v-14zM874 201h15l8 8v14h-8l-15 -14v-8zM874 1470l13 -12v12h-13zM874 1630l19 -12l6 6v6l-12 12v7l6 -7h6v19h-18zM905 1526h13v6h-13v-6zM936 1513l12 -12v12h-12zM942 1649l25 -7v13h-25v-6zM948 1612l19 -13v13l-19 6v-6zM967 1507l18 -18h6v18l-6 6l6 7v12 l-18 -19h-6v-6zM997 1636l7 -6h6v6l-6 6h-7v-6zM1016 694l8 -8h6v8l-6 8h-8v-8z" />
<glyph unicode="&#xcc;" horiz-adv-x="462" d="M-51 1745l16 14h172q86 0 86 -30l8 8h9l14 -17l-6 -8v-8l6 -6h-14v-8h8l22 8l70 -135l-8 -9q41 -15 41 -61v-8l-47 -8q-101 0 -142 47h-8q-172 141 -227 221zM-20 1145q0 183 149 235l55 9l95 -17v8q147 -52 147 -260l-6 -22h6l-6 -8l14 -336l-14 -47l22 -25l-16 -70 q33 0 33 -133l22 -166q-6 -69 -22 -69h-17v22h-16q0 -33 -39 -53h-14l-25 14l-22 -22l-47 8l8 -8v-8l-17 -25v-45h-16l88 -80q0 -22 39 -22h31l22 16h33v-8q0 -82 -205 -119q-183 0 -235 180l8 25l-39 588l22 22q159 -31 183 -61l6 8h8l102 -25h31q0 19 -86 31l-8 41l8 6h25 l47 -14l8 8v22l-55 23v-6q-17 12 -111 22l-16 25l-47 -8q-109 0 -109 30l-16 95v172zM-4 762v6q0 16 22 16l127 -30l7 8h8l24 -25v-8l-24 -22l-70 30l-8 -8h-8q-78 9 -78 33zM68 1729h14v8h-14v-8zM90 1626h8l17 16l-9 9h-16v-25zM121 1579h16v8h-16v-8zM121 1657l16 -15v15 h-16zM129 1690h16v8l-16 14v-22zM145 1642l17 15h-17v-15zM154 1610h8v16h-8v-16zM223 1507h17l-9 9v8l9 8h-9l-8 -8v-17zM223 1554l31 9v8l-14 16zM248 1665h6l16 16h-22v-16zM254 1604h16l-8 -9v-8l47 8l-16 31l-23 -16l-8 8l-8 -8v-6zM254 1642h16v15zM262 1563h17v8h-17 v-8zM279 1524h14l-6 24h-8v-24zM279 1595v15h14v-15h-14zM287 1563h30l-16 16zM293 1507h16v9h-16v-9zM295 809l14 -16h8l-16 16h-6zM326 1516l22 -9v25h-8zM373 252l22 31l-22 -9v-22zM387 0v-8h8l8 8v8h-8zM420 188v17l14 14l25 -6v-25l-17 -16h-8z" />
<glyph unicode="&#xcd;" horiz-adv-x="462" d="M-20 1145q0 183 149 235l55 9l95 -17v8q147 -52 147 -260l-6 -22h6l-6 -8l14 -336l-14 -47l22 -25l-16 -70q33 0 33 -133l22 -166q-6 -69 -22 -69h-17v22h-16q0 -33 -39 -53h-14l-25 14l-22 -22l-47 8l8 -8v-8l-17 -25v-45h-16l88 -80q0 -22 39 -22h31l22 16h33v-8 q0 -82 -205 -119q-183 0 -235 180l8 25l-39 588l22 22q159 -31 183 -61l6 8h8l102 -25h31q0 19 -86 31l-8 41l8 6h25l47 -14l8 8v22l-55 23v-6q-17 12 -111 22l-16 25l-47 -8q-109 0 -109 30l-16 95v172zM-4 762v6q0 16 22 16l127 -30l7 8h8l24 -25v-8l-24 -22l-70 30l-8 -8 h-8q-78 9 -78 33zM35 1495v23l16 16q0 -17 23 -47v-8h-23zM82 1479v16l16 -16h-16zM82 1509v17h8v-17h-8zM82 1589h39v-24h8l8 24l-31 15l7 8v24l-7 6q15 48 31 48v8q0 16 31 16l-8 8v7l8 8l8 -8h17q0 32 55 32h203l8 -24l-142 -142l-8 9h-16v-9h16l-69 -61h-9l-16 16h16v6 h-16l-8 -6v31h-14q0 -31 -39 -31v-8l30 -8v16h17v-24l-33 -17v17l-23 -17l9 -22l-41 -8l8 8v16h-15v6h15l-8 41v23q-31 0 -31 16zM121 1542h8v14h-8v-14zM145 1651l9 -9h14v9h-14l6 8v16h-6zM154 1509h6l16 -14h-8zM154 1690l22 -9v17h-22v-8zM184 1589h17v15zM193 1642 q14 0 14 -22h8l8 22l-8 25h-8v-16l8 -9h-8l-6 9h-8v-9zM193 1675l14 15h-14v-15zM223 1737l8 -8h9v8l-9 8h-8v-8zM231 1565h17l6 39h-14zM231 1636l17 -16v16h-17zM240 1642l14 17h-14v-17zM270 1612l17 16h-17v-16zM270 1651l47 -15v6l-24 25h-23v-16zM295 809l14 -16h8 l-16 16h-6zM301 1612h8v16h-8v-16zM309 1675l17 -16l39 8v14h-56v-6zM373 252l22 31l-22 -9v-22zM379 1729h8l16 16h-24v-16zM387 0v-8h8l8 8v8h-8zM420 188v17l14 14l25 -6v-25l-17 -16h-8z" />
<glyph unicode="&#xce;" horiz-adv-x="462" d="M-203 1499q0 83 142 189q0 -25 18 -25l-8 39q152 119 194 119h86q0 -31 -39 -64l23 -22l25 14l-17 25v8l33 6v8l-10 8v8l110 -63q28 -78 39 -78v39q17 0 17 -31q39 0 39 -16q-23 0 -23 -23h-10l-23 17l-8 -25q0 -16 41 -16h23l-9 41h17q100 -81 100 -141v-9 q-15 -118 -100 -118l-64 8v8q23 0 23 16l-31 9l-14 -17l-172 133l8 8v9h-8l-9 -9h-8l-8 9l-53 -56l-8 9q-47 -59 -103 -86l-8 30h-6l-10 -8h-9l19 -39l-74 -24h-6q-89 0 -119 110zM-20 1145q0 183 149 235l55 9l95 -17v8q147 -52 147 -260l-4 -22h4l-4 -8l12 -336l-12 -47 l20 -25l-16 -70q35 0 35 -133l20 -166q-6 -69 -20 -69h-19v22h-16q0 -33 -39 -53h-14l-25 14l-22 -22l-47 8l8 -8v-8l-17 -25v-45h-14l86 -80q0 -22 41 -22h29l22 16h35v-8q0 -81 -207 -119q-183 0 -235 180l10 25l-39 588l20 22q159 -31 183 -61l8 8h6l102 -25h31 q0 19 -86 31l-6 41l6 6h25l49 -14l6 8v22l-55 23v-6q-17 12 -111 22l-16 25l-47 -8q-109 0 -109 30l-16 95v172zM-4 1477h14v8h-14v-8zM-2 762v6q0 16 20 16l127 -30l7 8h8l24 -25v-8l-24 -22l-70 30l-6 -8h-10q-76 9 -76 33zM88 1563h8l8 8v6h-8l-8 -6v-8zM143 1679h39v9 l-14 14h-25v-23zM207 1602h31v8l-25 22h-6v-30zM213 1657h41l-16 14l16 25v6q-23 -23 -41 -23v-22zM238 1563h16v8h-16v-8zM244 1710h16v8h-16v-8zM260 1593h25v17h-17v6h17v16h-17zM268 1585l8 -31h17v17l-17 14h-8zM293 1616l22 8l31 -22h16v30l-22 8q-38 0 -47 -24z M297 809l12 -16h8l-16 16h-4zM299 1577l8 -31l17 17v47h-9q0 -33 -16 -33zM340 1468h14v23l-14 -14v-9zM373 252l22 31l-22 -9v-22zM387 0v-8h8l8 8v8h-8zM422 188v17l12 14l27 -6v-25l-19 -16h-8zM426 1610l23 -25v8l-17 17h-6zM449 1577l30 -70l17 17q0 41 -31 53h-16z M487 1452l31 25v8h-31v-33z" />
<glyph unicode="&#xcf;" horiz-adv-x="462" d="M-223 1597l18 74l6 -6l6 6h13l6 -6l24 6v6q-24 0 -24 31h12l-6 -4v-8h6l6 8l13 -14h6l-6 24l-7 -6h-12v12l80 27h19q65 0 94 -51q19 0 37 -43v-6l-7 6h-14v-6l21 -7l6 7l6 -56q0 -71 -70 -123q-9 25 -16 25l-6 -6v-19h12v-12l-76 -12q-132 0 -147 153zM-193 1677v13h13 v-13h-13zM-137 1665h6q28 8 45 39l-14 10v-6l6 -4v-8q-43 -15 -43 -31zM-125 1597h12v7h-12v-7zM-119 1696l13 12v6l-13 -10v-8zM-74 1145q0 183 150 235l55 9l94 -17v8q148 -53 148 -260l-6 -22h6l-6 -8l14 -336l-14 -47l22 -25l-16 -70q33 0 33 -133l22 -166 q-6 -69 -22 -69h-17v22h-16q0 -33 -39 -53h-15l-24 14l-23 -22l-47 8l8 -8v-8l-16 -25v-45h-16l88 -80q0 -22 39 -22h30l23 16h33v-8q0 -82 -205 -119q-184 0 -236 180l9 25l-39 588l22 22q157 -30 182 -61l7 8h8l102 -25h31q0 19 -86 31l-8 41l8 6h24l48 -14l8 8v22l-56 23 v-6q-18 13 -110 22l-17 25l-47 -8q-108 0 -108 30l-17 95v172zM-70 1591h13v6h-13v-6zM-63 1616h14v6h-14v-6zM-57 762v6q0 16 22 16l127 -30l6 8h8l25 -25v-8l-25 -22l-69 30l-8 -8h-9q-77 9 -77 33zM-12 1628h6l6 6q16 0 16 -18h15l-6 6l6 31h-15v-13h-6q0 19 -10 19v-6 l4 -6l-16 -7v-12zM10 1671l15 -12v12h-15zM53 1616h15l-15 12v-12zM178 1567v55q40 125 129 125h12q98 0 150 -94l-8 -6l12 -56q-12 0 -12 31h-12q0 -37 24 -37v-6q-30 -135 -135 -135h-12l-31 24v-6l12 -18h-6q-104 37 -104 74h12v12l-6 -6h-13zM190 1561l7 -25h6v18l-6 7 h-7zM242 809l14 -16h8l-16 16h-6zM258 1499l12 -12h6l-6 24h-12v-12zM264 1665h6v12h-6v-12zM270 1579h13v6h-13v-6zM276 1604h13v6h-13v-6zM289 1493h6v31h-6v-31zM319 252l23 31l-23 -9v-22zM319 1487l13 -12v12h-13zM319 1647l19 -13l6 6v7l-12 12v6l6 -6h6v18h-18z M334 0v-8h8l8 8v8h-8zM350 1542h12v6h-12v-6zM367 188v17l14 14l25 -6v-25l-17 -16h-8zM381 1530l12 -12v12h-12zM387 1665l25 -6v12h-25v-6zM393 1628l19 -12v12l-19 6v-6zM412 1524l18 -19h6v19l-6 6l6 6v12l-18 -18h-6v-6zM442 1653l7 -6h6v6l-6 6h-7v-6z" />
<glyph unicode="&#xd0;" horiz-adv-x="1249" d="M-186 600v51l65 78v25h930l20 -25l23 25h485q88 -52 88 -154q-43 0 -43 -76l-22 -26h-856v51h-23v-51h-579zM-74 1038v17l8 8l-8 6v8q3 78 94 166l392 -471l-164 16l211 -188l-109 -252h6l236 141l244 -210l211 -250v-17l-203 -86l-31 15l-25 -23h-38l-9 8h-6l6 8v15h-6 l-49 -55h-70l-8 -7l-8 7h-14q-142 -48 -275 -48l-24 9l-23 -9q-109 0 -180 197v33q0 60 -16 100l8 31l-31 86l6 72q-30 0 -100 518zM131 1282h14q17 0 17 -22h31l-9 6v16q0 48 449 78h86q22 0 22 33h25q13 0 22 -47q77 -3 275 -150q24 0 39 -63q60 -54 119 -211l-9 -33 q9 -38 39 -62q31 -139 31 -219v-102q0 -308 -197 -455h-6q-16 36 -32 39l-9 -22h-6l-250 344q-32 92 -32 172l227 127v14q-283 9 -283 39l-55 252h-6q-99 -252 -111 -252zM475 162h8l6 6v25h-6zM506 98l16 -16v33zM578 115l8 -25h14v16zM600 223h16l-16 17v-17zM655 -4v-31 h9v31h-9zM672 207h14v8h-14v-8zM686 59h16v9h-16v-9zM702 -4v-8h9l8 8v8h-8zM702 162q25 0 25 31l-8 8h-8l-9 -8v-9l9 -8v-8zM735 215h15v8h-15v-8zM741 35l17 -15v15h-17zM750 76h16v6h-16v-6zM750 240h8l24 8v6l-32 -6v-8zM758 12l8 -24h8v24h-16zM758 90h8v16h-8v-16z M766 59h22l-6 -8v-8h31l-8 8v8q31 0 31 23l-9 8h25v8l-16 31h-9v-23l9 -8l-9 -8h-14v31h-16l8 -6v-39l-39 -8v-9zM766 600h20l66 27v24h-43l-23 -24v51l23 24v27h-23l-20 -27v-102zM805 -35l16 -16v16h-16zM805 68v8h16v-8h-16zM852 51h8l23 8v-16h8v8l-8 25h-15l-16 -17v-8 zM993 1290q0 39 39 56q53 -12 53 -33v-39q-3 -16 -38 -31q-30 0 -54 47z" />
<glyph unicode="&#xd1;" horiz-adv-x="1081" d="M-20 215l8 39h-8l16 86v16h-8l8 211v322q0 416 55 416q0 31 109 61q111 0 266 -297q132 -179 377 -596h24v80l9 6v8l-9 8h-8l17 596q21 172 125 172q112 0 133 -141h8l-33 -981l8 -6v-8l-8 -25h8l-22 -47l8 -8v-6q0 -47 -72 -72h-22l-17 17v8q31 0 31 22h-14v8l-47 -8 l-25 17q-14 0 -14 -25l6 -39l-23 -14h-47q-134 131 -174 250q-35 0 -53 102q-42 3 -205 266l-117 219h-8q-14 0 -14 -22l6 -55l-23 -408l17 -94l-25 -25l17 -47v-39l-33 -47l-6 8l-8 -30l22 -9v-16q-40 -61 -111 -61h-14q-102 21 -102 86l16 47q-18 0 -24 55zM43 104l8 -8 h23v8l-31 9v-9zM121 127h16v8h-16v-8zM160 96h8v17h-8v-17zM172 1524v14q0 133 180 197h64q78 -3 78 -17l-48 -116h-8v16h-8v-8l8 -8v-9q-52 -180 -125 -180l-30 -8q-93 0 -111 119zM313 1546h9v17h-9v-17zM446 1477v14q25 0 25 47l53 8v8h-39q71 142 95 142l86 -31l149 70 h23q110 -15 110 -95v-47q0 -125 -172 -180h-16q0 23 -47 64v-9l16 -24v-14l-16 -17l-17 25l9 6v8l-9 -8h-8q-19 0 -22 33h-9v-25l39 -31v-8h-8q-53 0 -242 64zM524 1532l8 -8h9v8l-9 6h-8v-6zM571 1452h17v8h-17v-8zM610 1516l39 -39v8q-9 39 -22 39h-17v-8zM649 1499l8 -8 h25v8l-33 8v-8zM768 1477l8 -9h15v9l-23 8v-8zM772 403h16v9h-16v-9zM780 379l15 -14h32l15 30h-15l-24 -8v16h-8l-15 -16v-8zM811 418h25v8h-25v-8zM850 160h8v14h-8v-14zM874 160h15v8h-15v-8zM889 379h8l8 24l-8 9h-8v-33zM905 293l31 -8v8l-14 16l8 6v9l-25 8v-8l8 -23z M936 182h16l-8 -8v-6h8v6l9 -6h16l-8 6l8 8v17l-41 -9v-8zM1016 135h14v8h-14v-8z" />
<glyph unicode="&#xd2;" horiz-adv-x="1468" d="M-88 801l8 22l31 -14v-8l-31 -8zM6 1458v17h17v-17h-17zM31 299v14l6 -8h16v17l17 -17l-9 -6l9 -8l-25 -8zM53 604l17 141l-9 9v8l23 86l-6 6v8q70 260 211 371q20 39 69 39q0 53 236 108l47 9l25 -9l6 9l8 -9l8 25h17v-8l77 8h72l178 -39q64 -3 277 -180q0 -39 61 -88 q103 -195 103 -330q16 0 16 -131l-8 -72l8 -8v-6q-41 -244 -111 -346q-39 -33 -39 -64h-8q-16 0 -16 31l-6 8h-9v-14l15 -25h-6l6 -8v-6q-70 -94 -117 -94v14h-8q0 -14 -39 -14l-8 -8q-17 0 -17 -39l-8 -9h-14l-55 9q0 -17 -31 -17v-14h31v-8l-267 -47l-86 8l-8 -8v8l17 22 h-33l-23 -16h-8q0 33 -16 33h-7v-17l7 -8v-8q-173 15 -361 180l-108 142l-9 -9v9l9 8q-86 177 -86 338v8zM84 219v8l16 17q0 -39 17 -39l-8 -33h-9zM100 690l56 -22l14 22l-6 8h6l8 -8h8l-8 47h8l9 -8h8v16l-8 23h-9v-23h-8l-8 9h-6l-8 -9l8 -47h-17l-22 17h-8l-17 -17v-8z M109 166v6h22v-14zM242 762h22l-14 14h-8v-14zM303 776h16l-16 17v-17zM336 762q193 -138 242 -141l16 -17h24l-8 8v9h8l23 -23q-29 0 -47 -127h16l8 8h7l8 -8v-16l-8 8h-7q-44 0 -88 -219l269 219l86 -55l30 8h9v-8q-25 0 -25 -15l172 -110h16v8l-94 219h-14l14 16l-30 72 l266 217l-70 8l-16 -14l-228 -8l-22 -8q-25 36 -25 61l-8 -6h-6l-16 14l16 17v8l-41 39v16h16v14h-22l-8 -8h-8q0 17 -39 17l8 8v16l-33 6l-6 -30l14 -17q-30 0 -30 -47l8 -6q-21 0 -33 -94l41 -17l14 25h-14l14 22v17l-39 -17v9l9 22l69 -31v17q17 0 17 -25l8 8h8v-16 l-16 -14h-17l-6 8h-8v-25h14v-8h-31v8l9 9v8h-9q-4 -18 -55 -39l-47 14l-8 -8l-39 8h-47v-8h16v-23h-24l-9 23l9 8l-203 -8v-6zM342 41h16l-16 14v-14zM342 643h16v16h-16v-16zM422 1051l22 -9q19 48 56 48q0 21 39 24l8 8v8h-8q-39 0 -39 -24l-31 33l14 14v8l-22 8v-8h8 q-9 -39 -47 -39l14 -32zM449 1737l16 14h172q86 0 86 -31l8 9h8l15 -17l-6 -8v-8l6 -6h-15v-9h9l22 9l70 -136l-9 -8q41 -15 41 -61v-8l-47 -9q-99 0 -141 48h-8q-172 141 -227 221zM453 1200l22 25h-6l-8 8h-8v-33zM461 762h14v6l49 -14v-9h-16l8 -8v-8l-16 -14 q0 30 -17 30q-22 0 -22 17zM461 1036h14l-14 15v-15zM469 690h14v-14zM500 676l16 14l8 -8v-6h-24zM530 1169h17v9h-17v-9zM539 637v22l16 -16v-6h-16zM539 1145h16v8h-16v-8zM547 715v14l24 -22v-9h-8zM567 1720h15v9h-15v-9zM590 1618h8l16 16l-8 8h-16v-24zM594 651v17 h31v-17l-23 -22v8l8 6v8h-16zM602 590h16v8h-16v-8zM610 754l8 8h7v-25zM610 1397v8l8 6v8l-8 8l39 17h8q0 -25 -32 -25v-8h16v-14l-8 8h-8l-7 -8h-8zM618 -6l70 -55v16h17q0 22 22 22v17h8v-17l-22 -38v-9l14 -16l16 16v39h17v8q0 20 -39 23l14 25l-8 8v8l8 6h-14v-14l-8 8 h-8l-25 -41l-8 8h-39zM621 1571h16v8h-16v-8zM621 1649l16 -15v15h-16zM625 543v8h24v-8h-24zM629 1681h16v9l-16 14v-23zM633 565l8 33l16 -16v-17h-24zM633 1483h24l15 -17v-16l-23 16v-16h-8zM641 471l16 16h15l-15 -16h-16zM641 682v8h16v-8h-16zM641 707v30h8l8 -30 h-16zM645 1634l17 15h-17v-15zM653 1602h9v16h-9v-16zM666 -86h14v-6h-14v6zM666 682l14 16v-16h-14zM688 244h17v8h-17v-8zM723 1499h16l-8 8v9l8 8h-8l-8 -8v-17zM723 1546l31 8v9l-15 16zM735 1036h25l-8 -8v-8l47 -47h14l-14 63h-8v-16h-9l-8 31l8 8v8q-12 31 -22 31h-8 v-31h16v-25l-25 17zM748 1657h6l16 16h-22v-16zM752 926v16h8v-16h-8zM754 1595h16l-8 -8v-8l47 8l-16 31l-23 -16l-8 8l-8 -8v-7zM754 1634h16v15zM760 901v17h8v-17h-8zM762 1554h16v9h-16v-9zM774 879l17 16v-16h-17zM778 1516h15l-7 24h-8v-24zM778 1587v15h15v-15h-15z M782 236q0 -22 72 -31v22h-33zM786 1554h31l-16 17zM793 1499h16v8h-16v-8zM821 776v17l17 -17h-17zM825 1507l23 -8v25h-8zM877 455v16h8v-16h-8zM932 1616v14h6v-14h-6zM954 449v6h17v-6h-17zM1010 1161h14v8h-14v-8zM1024 1012h8v16h-8v-16zM1143 0v16h47v-8l-39 -14z M1165 41h17l-17 14v-14zM1165 86h17v8h-17v-8zM1206 86h6v16h-6v-16zM1221 1458v8l16 -16v-6zM1237 1028l8 -8h8v8l-8 8h-8v-8zM1276 1004h16v8h-16v-8zM1331 1161v8h17v-8h-17zM1409 1012v16h8v-16h-8z" />
<glyph unicode="&#xd3;" horiz-adv-x="1468" d="M-88 801l8 22l31 -14v-8l-31 -8zM6 1458v17h17v-17h-17zM31 299v14l6 -8h16v17l17 -17l-9 -6l9 -8l-25 -8zM53 604l17 141l-9 9v8l23 86l-6 6v8q70 260 211 371q20 39 69 39q0 53 236 108l47 9l25 -9l6 9l8 -9l8 25h17v-8l77 8h72l178 -39q64 -3 277 -180q0 -39 61 -88 q103 -195 103 -330q16 0 16 -131l-8 -72l8 -8v-6q-41 -244 -111 -346q-39 -33 -39 -64h-8q-16 0 -16 31l-6 8h-9v-14l15 -25h-6l6 -8v-6q-70 -94 -117 -94v14h-8q0 -14 -39 -14l-8 -8q-17 0 -17 -39l-8 -9h-14l-55 9q0 -17 -31 -17v-14h31v-8l-267 -47l-86 8l-8 -8v8l17 22 h-33l-23 -16h-8q0 33 -16 33h-7v-17l7 -8v-8q-173 15 -361 180l-108 142l-9 -9v9l9 8q-86 177 -86 338v8zM84 219v8l16 17q0 -39 17 -39l-8 -33h-9zM100 690l56 -22l14 22l-6 8h6l8 -8h8l-8 47h8l9 -8h8v16l-8 23h-9v-23h-8l-8 9h-6l-8 -9l8 -47h-17l-22 17h-8l-17 -17v-8z M109 166v6h22v-14zM242 762h22l-14 14h-8v-14zM303 776h16l-16 17v-17zM336 762q193 -138 242 -141l16 -17h24l-8 8v9h8l23 -23q-29 0 -47 -127h16l8 8h7l8 -8v-16l-8 8h-7q-44 0 -88 -219l269 219l86 -55l30 8h9v-8q-25 0 -25 -15l172 -110h16v8l-94 219h-14l14 16l-30 72 l266 217l-70 8l-16 -14l-228 -8l-22 -8q-25 36 -25 61l-8 -6h-6l-16 14l16 17v8l-41 39v16h16v14h-22l-8 -8h-8q0 17 -39 17l8 8v16l-33 6l-6 -30l14 -17q-30 0 -30 -47l8 -6q-21 0 -33 -94l41 -17l14 25h-14l14 22v17l-39 -17v9l9 22l69 -31v17q17 0 17 -25l8 8h8v-16 l-16 -14h-17l-6 8h-8v-25h14v-8h-31v8l9 9v8h-9q-4 -18 -55 -39l-47 14l-8 -8l-39 8h-47v-8h16v-23h-24l-9 23l9 8l-203 -8v-6zM342 41h16l-16 14v-14zM342 643h16v16h-16v-16zM422 1051l22 -9q19 48 56 48q0 21 39 24l8 8v8h-8q-39 0 -39 -24l-31 33l14 14v8l-22 8v-8h8 q-9 -39 -47 -39l14 -32zM453 1200l22 25h-6l-8 8h-8v-33zM461 762h14v6l49 -14v-9h-16l8 -8v-8l-16 -14q0 30 -17 30q-22 0 -22 17zM461 1036h14l-14 15v-15zM469 690h14v-14zM500 676l16 14l8 -8v-6h-24zM512 1473v22l16 16q0 -17 23 -47v-8h-23zM530 1169h17v9h-17v-9z M539 637v22l16 -16v-6h-16zM539 1145h16v8h-16v-8zM547 715v14l24 -22v-9h-8zM559 1456v17l16 -17h-16zM559 1487v16h8v-16h-8zM559 1567h39v-25h8l8 25l-30 14l6 8v25l-6 6q15 47 30 47v8q0 17 31 17l-8 8v6l8 8l8 -8h17q0 33 55 33h203l8 -25l-141 -141l-9 8h-16v-8h16 l-69 -62h-8l-17 17h17v6h-17l-8 -6v31h-14q0 -31 -39 -31v-8l31 -9v17h16v-25l-33 -16v16l-22 -16l8 -23l-41 -8l8 8v17h-14v6h14l-8 41v22q-31 0 -31 17zM594 651v17h31v-17l-23 -22v8l8 6v8h-16zM598 1520h8v14h-8v-14zM602 590h16v8h-16v-8zM610 754l8 8h7v-25zM610 1397 v8l8 6v8l-8 8l39 17h8q0 -25 -32 -25v-8h16v-14l-8 8h-8l-7 -8h-8zM618 -6l70 -55v16h17q0 22 22 22v17h8v-17l-22 -38v-9l14 -16l16 16v39h17v8q0 20 -39 23l14 25l-8 8v8l8 6h-14v-14l-8 8h-8l-25 -41l-8 8h-39zM623 1628l8 -8h14v8h-14l6 8v17h-6zM625 543v8h24v-8h-24z M631 1487h6l16 -14h-8zM631 1667l22 -8v16h-22v-8zM633 565l8 33l16 -16v-17h-24zM633 1483h24l15 -17v-16l-23 16v-16h-8zM641 471l16 16h15l-15 -16h-16zM641 682v8h16v-8h-16zM641 707v30h8l8 -30h-16zM662 1567h16v14zM666 -86h14v-6h-14v6zM666 682l14 16v-16h-14z M670 1620q14 0 14 -23h8l8 23l-8 25h-8v-17l8 -8h-8l-6 8h-8v-8zM670 1653l14 14h-14v-14zM688 244h17v8h-17v-8zM700 1714l9 -8h8v8l-8 8h-9v-8zM709 1542h16l6 39h-14zM709 1614l16 -17v17h-16zM717 1620l14 16h-14v-16zM735 1036h25l-8 -8v-8l47 -47h14l-14 63h-8v-16h-9 l-8 31l8 8v8q-12 31 -22 31h-8v-31h16v-25l-25 17zM748 1589l16 17h-16v-17zM748 1628l47 -14v6l-25 25h-22v-17zM752 926v16h8v-16h-8zM760 901v17h8v-17h-8zM774 879l17 16v-16h-17zM778 1589h8v17h-8v-17zM782 236q0 -22 72 -31v22h-33zM786 1653l17 -17l39 9v14h-56v-6z M821 776v17l17 -17h-17zM856 1706h8l17 16h-25v-16zM877 455v16h8v-16h-8zM932 1616v14h6v-14h-6zM954 449v6h17v-6h-17zM1010 1161h14v8h-14v-8zM1024 1012h8v16h-8v-16zM1143 0v16h47v-8l-39 -14zM1165 41h17l-17 14v-14zM1165 86h17v8h-17v-8zM1206 86h6v16h-6v-16z M1221 1458v8l16 -16v-6zM1237 1028l8 -8h8v8l-8 8h-8v-8zM1276 1004h16v8h-16v-8zM1331 1161v8h17v-8h-17zM1409 1012v16h8v-16h-8z" />
<glyph unicode="&#xd4;" horiz-adv-x="1468" d="M-88 801l8 22l31 -14v-8l-31 -8zM6 1458v17h17v-17h-17zM31 299v14l6 -8h16v17l17 -17l-9 -6l9 -8l-25 -8zM53 604l17 141l-9 9v8l23 86l-6 6v8q70 260 211 371q20 39 69 39q0 53 236 108l47 9l25 -9l6 9l8 -9l8 25h17v-8l77 8h72l178 -39q64 -3 277 -180q0 -39 61 -88 q103 -195 103 -330q16 0 16 -131l-8 -72l8 -8v-6q-41 -244 -111 -346q-39 -33 -39 -64h-8q-16 0 -16 31l-6 8h-9v-14l15 -25h-6l6 -8v-6q-70 -94 -117 -94v14h-8q0 -14 -39 -14l-8 -8q-17 0 -17 -39l-8 -9h-14l-55 9q0 -17 -31 -17v-14h31v-8l-267 -47l-86 8l-8 -8v8l17 22 h-33l-23 -16h-8q0 33 -16 33h-7v-17l7 -8v-8q-173 15 -361 180l-108 142l-9 -9v9l9 8q-86 177 -86 338v8zM84 219v8l16 17q0 -39 17 -39l-8 -33h-9zM100 690l56 -22l14 22l-6 8h6l8 -8h8l-8 47h8l9 -8h8v16l-8 23h-9v-23h-8l-8 9h-6l-8 -9l8 -47h-17l-22 17h-8l-17 -17v-8z M109 166v6h22v-14zM242 762h22l-14 14h-8v-14zM303 776h16l-16 17v-17zM336 762q193 -138 242 -141l16 -17h24l-8 8v9h8l23 -23q-29 0 -47 -127h16l8 8h7l8 -8v-16l-8 8h-7q-44 0 -88 -219l269 219l86 -55l30 8h9v-8q-25 0 -25 -15l172 -110h16v8l-94 219h-14l14 16l-30 72 l266 217l-70 8l-16 -14l-228 -8l-22 -8q-25 36 -25 61l-8 -6h-6l-16 14l16 17v8l-41 39v16h16v14h-22l-8 -8h-8q0 17 -39 17l8 8v16l-33 6l-6 -30l14 -17q-30 0 -30 -47l8 -6q-21 0 -33 -94l41 -17l14 25h-14l14 22v17l-39 -17v9l9 22l69 -31v17q17 0 17 -25l8 8h8v-16 l-16 -14h-17l-6 8h-8v-25h14v-8h-31v8l9 9v8h-9q-4 -18 -55 -39l-47 14l-8 -8l-39 8h-47v-8h16v-23h-24l-9 23l9 8l-203 -8v-6zM342 41h16l-16 14v-14zM342 643h16v16h-16v-16zM360 1499q0 83 142 189q0 -25 16 -25l-8 39q155 119 197 119h86q0 -31 -39 -64l22 -22l25 14 l-17 25v8l31 6v8l-8 8v8l111 -63q28 -78 38 -78v39q17 0 17 -31q39 0 39 -16q-25 0 -25 -23h-8l-23 17l-8 -25q0 -16 39 -16h25l-8 41h16q100 -81 100 -141v-9q-15 -118 -100 -118l-64 8v8q23 0 23 16l-31 9l-14 -17l-172 133l6 8v9h-6l-8 -9h-9l-8 9l-55 -56l-6 9 q-47 -59 -103 -86l-8 30h-8l-8 -8h-8l16 -39l-72 -24h-6q-92 0 -119 110zM422 1051l22 -9q19 48 56 48q0 21 39 24l8 8v8h-8q-39 0 -39 -24l-31 33l14 14v8l-22 8v-8h8q-9 -39 -47 -39l14 -32zM453 1200l22 25h-6l-8 8h-8v-33zM461 762h14v6l49 -14v-9h-16l8 -8v-8l-16 -14 q0 30 -17 30q-22 0 -22 17zM461 1036h14l-14 15v-15zM469 690h14v-14zM500 676l16 14l8 -8v-6h-24zM530 1169h17v9h-17v-9zM539 637v22l16 -16v-6h-16zM539 1145h16v8h-16v-8zM547 715v14l24 -22v-9h-8zM557 1477h16v8h-16v-8zM594 651v17h31v-17l-23 -22v8l8 6v8h-16z M602 590h16v8h-16v-8zM610 754l8 8h7v-25zM610 1397v8l8 6v8l-8 8l39 17h8q0 -25 -32 -25v-8h16v-14l-8 8h-8l-7 -8h-8zM618 -6l70 -55v16h17q0 22 22 22v17h8v-17l-22 -38v-9l14 -16l16 16v39h17v8q0 20 -39 23l14 25l-8 8v8l8 6h-14v-14l-8 8h-8l-25 -41l-8 8h-39z M625 543v8h24v-8h-24zM633 565l8 33l16 -16v-17h-24zM633 1483h24l15 -17v-16l-23 16v-16h-8zM641 471l16 16h15l-15 -16h-16zM641 682v8h16v-8h-16zM641 707v30h8l8 -30h-16zM651 1563h8l9 8v6h-9l-8 -6v-8zM666 -86h14v-6h-14v6zM666 682l14 16v-16h-14zM688 244h17v8h-17 v-8zM707 1679h38v9l-16 14h-22v-23zM735 1036h25l-8 -8v-8l47 -47h14l-14 63h-8v-16h-9l-8 31l8 8v8q-12 31 -22 31h-8v-31h16v-25l-25 17zM752 926v16h8v-16h-8zM760 901v17h8v-17h-8zM768 1602h33v8l-25 22h-8v-30zM774 879l17 16v-16h-17zM776 1657h39l-14 14l14 25v6 q-20 -23 -39 -23v-22zM782 236q0 -22 72 -31v22h-33zM801 1563h14v8h-14v-8zM807 1710h16v8h-16v-8zM821 776v17l17 -17h-17zM823 1593h25v17h-17v6h17v16h-17zM831 1585l9 -31h14v17l-14 14h-9zM854 1616l25 8l30 -22h17v30l-25 8q-38 0 -47 -24zM862 1577l8 -31l17 17v47 h-8q0 -33 -17 -33zM877 455v16h8v-16h-8zM901 1468h17v23l-17 -14v-9zM932 1616h6v14h-6v-14zM954 449v6h17v-6h-17zM987 1610l25 -25v8l-17 17h-8zM1010 1161h14v8h-14v-8zM1012 1577l30 -70l17 17q0 42 -33 53h-14zM1024 1012h8v16h-8v-16zM1051 1452l30 25v8h-30v-33z M1143 0v16h47v-8l-39 -14zM1165 41h17l-17 14v-14zM1165 86h17v8h-17v-8zM1206 86h6v16h-6v-16zM1221 1458v8l16 -16v-6zM1237 1028l8 -8h8v8l-8 8h-8v-8zM1276 1004h16v8h-16v-8zM1331 1161v8h17v-8h-17zM1409 1012v16h8v-16h-8z" />
<glyph unicode="&#xd5;" horiz-adv-x="1468" d="M-88 801l8 22l31 -14v-8l-31 -8zM6 1458v17h17v-17h-17zM31 299v14l6 -8h16v17l17 -17l-9 -6l9 -8l-25 -8zM53 604l17 141l-9 9v8l23 86l-6 6v8q70 260 211 371q20 39 69 39q0 53 236 108l47 9l25 -9l6 9l8 -9l8 25h17v-8l77 8h72l178 -39q64 -3 277 -180q0 -39 61 -88 q103 -195 103 -330q16 0 16 -131l-8 -72l8 -8v-6q-41 -244 -111 -346q-39 -33 -39 -64h-8q-16 0 -16 31l-6 8h-9v-14l15 -25h-6l6 -8v-6q-70 -94 -117 -94v14h-8q0 -14 -39 -14l-8 -8q-17 0 -17 -39l-8 -9h-14l-55 9q0 -17 -31 -17v-14h31v-8l-267 -47l-86 8l-8 -8v8l17 22 h-33l-23 -16h-8q0 33 -16 33h-7v-17l7 -8v-8q-173 15 -361 180l-108 142l-9 -9v9l9 8q-86 177 -86 338v8zM84 219v8l16 17q0 -39 17 -39l-8 -33h-9zM100 690l56 -22l14 22l-6 8h6l8 -8h8l-8 47h8l9 -8h8v16l-8 23h-9v-23h-8l-8 9h-6l-8 -9l8 -47h-17l-22 17h-8l-17 -17v-8z M109 166v6h22v-14zM242 762h22l-14 14h-8v-14zM303 776h16l-16 17v-17zM336 762q193 -138 242 -141l16 -17h24l-8 8v9h8l23 -23q-29 0 -47 -127h16l8 8h7l8 -8v-16l-8 8h-7q-44 0 -88 -219l269 219l86 -55l30 8h9v-8q-25 0 -25 -15l172 -110h16v8l-94 219h-14l14 16l-30 72 l266 217l-70 8l-16 -14l-228 -8l-22 -8q-25 36 -25 61l-8 -6h-6l-16 14l16 17v8l-41 39v16h16v14h-22l-8 -8h-8q0 17 -39 17l8 8v16l-33 6l-6 -30l14 -17q-30 0 -30 -47l8 -6q-21 0 -33 -94l41 -17l14 25h-14l14 22v17l-39 -17v9l9 22l69 -31v17q17 0 17 -25l8 8h8v-16 l-16 -14h-17l-6 8h-8v-25h14v-8h-31v8l9 9v8h-9q-4 -18 -55 -39l-47 14l-8 -8l-39 8h-47v-8h16v-23h-24l-9 23l9 8l-203 -8v-6zM342 41h16l-16 14v-14zM342 643h16v16h-16v-16zM354 1579v14q0 133 181 197h63q78 -3 78 -16l-47 -117h-8v16h-9v-8l9 -8v-8q-52 -181 -125 -181 l-31 -8q-93 0 -111 119zM422 1051l22 -9q19 48 56 48q0 21 39 24l8 8v8h-8q-39 0 -39 -24l-31 33l14 14v8l-22 8v-8h8q-9 -39 -47 -39l14 -32zM453 1200l22 25h-6l-8 8h-8v-33zM461 762h14v6l49 -14v-9h-16l8 -8v-8l-16 -14q0 30 -17 30q-22 0 -22 17zM461 1036h14l-14 15 v-15zM469 690h14v-14zM496 1602h8v16h-8v-16zM500 676l16 14l8 -8v-6h-24zM530 1169h17v9h-17v-9zM539 637v22l16 -16v-6h-16zM539 1145h16v8h-16v-8zM547 715v14l24 -22v-9h-8zM594 651v17h31v-17l-23 -22v8l8 6v8h-16zM602 590h16v8h-16v-8zM610 754l8 8h7v-25zM610 1397 v8l8 6v8l-8 8l39 17h8q0 -25 -32 -25v-8h16v-14l-8 8h-8l-7 -8h-8zM618 -6l70 -55v16h17q0 22 22 22v17h8v-17l-22 -38v-9l14 -16l16 16v39h17v8q0 20 -39 23l14 25l-8 8v8l8 6h-14v-14l-8 8h-8l-25 -41l-8 8h-39zM625 543v8h24v-8h-24zM629 1532v14q24 0 24 47l54 9v8h-39 q70 141 94 141l86 -31l149 70h23q110 -15 110 -94v-47q0 -126 -172 -181h-16q0 23 -47 64v-8l16 -25v-14l-16 -17l-16 25l8 6v8l-8 -8h-9q-19 0 -22 33h-8v-25l39 -30v-9h-9q-52 0 -241 64zM633 565l8 33l16 -16v-17h-24zM633 1483h24l15 -17v-16l-23 16v-16h-8zM641 471 l16 16h15l-15 -16h-16zM641 682v8h16v-8h-16zM641 707v30h8l8 -30h-16zM666 -86h14v-6h-14v6zM666 682l14 16v-16h-14zM688 244h17v8h-17v-8zM707 1587l8 -8h8v8l-8 6h-8v-6zM735 1036h25l-8 -8v-8l47 -47h14l-14 63h-8v-16h-9l-8 31l8 8v8q-12 31 -22 31h-8v-31h16v-25 l-25 17zM752 926v16h8v-16h-8zM754 1507h16v9h-16v-9zM760 901v17h8v-17h-8zM774 879l17 16v-16h-17zM782 236q0 -22 72 -31v22h-33zM793 1571l38 -39v8q-9 39 -22 39h-16v-8zM821 776v17l17 -17h-17zM831 1554l9 -8h24v8l-33 9v-9zM877 455v16h8v-16h-8zM932 1616h6v14h-6 v-14zM950 1532l8 -8h15v8l-23 8v-8zM954 449v6h17v-6h-17zM1010 1161h14v8h-14v-8zM1024 1012h8v16h-8v-16zM1143 0v16h47v-8l-39 -14zM1165 41h17l-17 14v-14zM1165 86h17v8h-17v-8zM1206 86h6v16h-6v-16zM1221 1458v8l16 -16v-6zM1237 1028l8 -8h8v8l-8 8h-8v-8z M1276 1004h16v8h-16v-8zM1331 1161v8h17v-8h-17zM1409 1012v16h8v-16h-8z" />
<glyph unicode="&#xd6;" horiz-adv-x="1468" d="M-88 801l8 22l31 -14v-8l-31 -8zM6 1458v17h17v-17h-17zM31 299v14l6 -8h16v17l17 -17l-9 -6l9 -8l-25 -8zM53 604l17 141l-9 9v8l23 86l-6 6v8q70 260 211 371q20 39 69 39q0 53 236 108l47 9l25 -9l6 9l8 -9l8 25h17v-8l77 8h72l178 -39q64 -3 277 -180q0 -39 61 -88 q103 -195 103 -330q16 0 16 -131l-8 -72l8 -8v-6q-41 -244 -111 -346q-39 -33 -39 -64h-8q-16 0 -16 31l-6 8h-9v-14l15 -25h-6l6 -8v-6q-70 -94 -117 -94v14h-8q0 -14 -39 -14l-8 -8q-17 0 -17 -39l-8 -9h-14l-55 9q0 -17 -31 -17v-14h31v-8l-267 -47l-86 8l-8 -8v8l17 22 h-33l-23 -16h-8q0 33 -16 33h-7v-17l7 -8v-8q-173 15 -361 180l-108 142l-9 -9v9l9 8q-86 177 -86 338v8zM84 219v8l16 17q0 -39 17 -39l-8 -33h-9zM100 690l56 -22l14 22l-6 8h6l8 -8h8l-8 47h8l9 -8h8v16l-8 23h-9v-23h-8l-8 9h-6l-8 -9l8 -47h-17l-22 17h-8l-17 -17v-8z M109 166v6h22v-14zM242 762h22l-14 14h-8v-14zM303 776h16l-16 17v-17zM336 762q193 -138 242 -141l16 -17h24l-8 8v9h8l23 -23q-29 0 -47 -127h16l8 8h7l8 -8v-16l-8 8h-7q-44 0 -88 -219l269 219l86 -55l30 8h9v-8q-25 0 -25 -15l172 -110h16v8l-94 219h-14l14 16l-30 72 l266 217l-70 8l-16 -14l-228 -8l-22 -8q-25 36 -25 61l-8 -6h-6l-16 14l16 17v8l-41 39v16h16v14h-22l-8 -8h-8q0 17 -39 17l8 8v16l-33 6l-6 -30l14 -17q-30 0 -30 -47l8 -6q-21 0 -33 -94l41 -17l14 25h-14l14 22v17l-39 -17v9l9 22l69 -31v17q17 0 17 -25l8 8h8v-16 l-16 -14h-17l-6 8h-8v-25h14v-8h-31v8l9 9v8h-9q-4 -18 -55 -39l-47 14l-8 -8l-39 8h-47v-8h16v-23h-24l-9 23l9 8l-203 -8v-6zM342 41h16l-16 14v-14zM342 643h16v16h-16v-16zM387 1634l19 74l6 -6l6 6h12l6 -6l25 6v6q-25 0 -25 31h13l-7 -4v-8h7l6 8l12 -15h6l-6 25 l-6 -6h-12v12l79 27h19q65 0 94 -51q19 0 37 -43v-7l-6 7h-15v-7l21 -6l6 6l6 -55q0 -72 -69 -123q-9 25 -17 25l-6 -6v-19h12v-12l-75 -12q-133 0 -148 153zM418 1714v12h12v-12h-12zM422 1051l22 -9q19 48 56 48q0 21 39 24l8 8v8h-8q-39 0 -39 -24l-31 33l14 14v8l-22 8 v-8h8q-9 -39 -47 -39l14 -32zM453 1200l22 25h-6l-8 8h-8v-33zM461 762h14v6l49 -14v-9h-16l8 -8v-8l-16 -14q0 30 -17 30q-22 0 -22 17zM461 1036h14l-14 15v-15zM469 690h14v-14zM473 1702h6q28 8 45 39l-14 10v-6l6 -4v-8q-43 -15 -43 -31zM485 1634h13v6h-13v-6z M492 1733l12 12v6l-12 -10v-8zM500 676l16 14l8 -8v-6h-24zM530 1169h17v9h-17v-9zM539 637v22l16 -16v-6h-16zM539 1145h16v8h-16v-8zM541 1628h12v6h-12v-6zM547 715v14l24 -22v-9h-8zM547 1653h14v6h-14v-6zM594 651v17h31v-17l-23 -22v8l8 6v8h-16zM598 1665h6l6 6 q17 0 17 -18h14l-6 6l6 31h-14v-13h-6q0 19 -11 19v-6l4 -7l-16 -6v-12zM602 590h16v8h-16v-8zM610 754l8 8h7v-25zM610 1397v8l8 6v8l-8 8l39 17h8q0 -25 -32 -25v-8h16v-14l-8 8h-8l-7 -8h-8zM618 -6l70 -55v16h17q0 22 22 22v17h8v-17l-22 -38v-9l14 -16l16 16v39h17v8 q0 20 -39 23l14 25l-8 8v8l8 6h-14v-14l-8 8h-8l-25 -41l-8 8h-39zM621 1708l14 -12v12h-14zM625 543v8h24v-8h-24zM633 565l8 33l16 -16v-17h-24zM633 1483h24l15 -17v-16l-23 16v-16h-8zM641 471l16 16h15l-15 -16h-16zM641 682v8h16v-8h-16zM641 707v30h8l8 -30h-16z M664 1653h14l-14 12v-12zM666 -86h14v-6h-14v6zM666 682l14 16v-16h-14zM688 244h17v8h-17v-8zM735 1036h25l-8 -8v-8l47 -47h14l-14 63h-8v-16h-9l-8 31l8 8v8q-12 31 -22 31h-8v-31h16v-25l-25 17zM752 926v16h8v-16h-8zM760 901v17h8v-17h-8zM774 879l17 16v-16h-17z M782 236q0 -22 72 -31v22h-33zM788 1604v55q40 125 130 125h12q97 0 149 -94l-8 -7l12 -55q-12 0 -12 31h-12q0 -37 24 -37v-6q-30 -135 -135 -135h-12l-31 24v-6l13 -18h-7q-104 37 -104 73h12v13l-6 -6h-12zM801 1597l6 -24h6v18l-6 6h-6zM821 776v17l17 -17h-17z M868 1536l13 -12h6l-6 24h-13v-12zM874 1702h7v12h-7v-12zM877 455v16h8v-16h-8zM881 1616h12v6h-12v-6zM887 1640h12v7h-12v-7zM899 1530h6v31h-6v-31zM930 1524l12 -13v13h-12zM930 1683l18 -12l6 6v6l-12 13v6l6 -6h6v18h-18zM932 1616h6v14h-6v-14zM954 449v6h17v-6h-17 zM961 1579h12v6h-12v-6zM991 1567l13 -13v13h-13zM997 1702l25 -6v12h-25v-6zM1004 1665l18 -12v12l-18 6v-6zM1010 1161h14v8h-14v-8zM1022 1561l18 -19h7v19l-7 6l7 6v12l-19 -18h-6v-6zM1024 1012h8v16h-8v-16zM1053 1690l6 -7h6v7l-6 6h-6v-6zM1143 0v16h47v-8l-39 -14z M1165 41h17l-17 14v-14zM1165 86h17v8h-17v-8zM1206 86h6v16h-6v-16zM1221 1458v8l16 -16v-6zM1237 1028l8 -8h8v8l-8 8h-8v-8zM1276 1004h16v8h-16v-8zM1331 1161v8h17v-8h-17zM1409 1012v16h8v-16h-8z" />
<glyph unicode="&#xd7;" horiz-adv-x="798" d="M63 399q0 32 31 80l156 156l-98 98q-5 5 -5 10q0 8 11 19l-6 6l-19 -18l-43 45q-21 21 -27 84l46 10l-7 6h-22l-4 4l33 45q18 21 47 21q43 0 106 -54l133 -133l111 111h10v12l39 39q36 25 66 25t57 -27l22 -20q23 -23 23 -52q0 -38 -41 -88l-4 -6h-12l2 -10l-33 -35h-12 v-10l-68 -68h-10l-6 -6v-8l139 -139v-13h12l4 -4q25 -45 25 -76q0 -32 -25 -57l-6 -6q-39 -33 -76 -33q-34 0 -67 33l-150 149l-143 -143q-45 -45 -86 -45q-39 0 -78 39q-25 28 -25 59zM184 934h23l-12 10zM229 678l23 -23l4 7l-20 22zM350 592l6 -6l11 -2l6 6l-6 6h-13z M395 756l11 -13l6 7l-13 12zM434 649l10 -10l7 4l-13 12zM516 768l6 -6h13l4 4l-7 6h-10zM539 788l16 -16v23h-10zM545 539l6 -7l12 13l-6 6zM571 799l23 -23l12 35l-16 16l-6 -4l10 -12l-4 -6h-12z" />
<glyph unicode="&#xd8;" horiz-adv-x="1454" d="M-119 815l8 23l31 -15v-8l-31 -8zM-25 1473v16h19v-16h-19zM0 313v15l6 -9h17v17l18 -17l-8 -6l8 -8l-27 -8zM23 618l18 142l-8 8v8l20 86l-6 6v9q73 262 211 370q20 39 70 39q0 54 235 109l47 8l27 -8l4 8l8 -8l8 24h19v-8l76 8h71l178 -39q66 -3 279 -180q0 -38 59 -88 q105 -194 105 -330q14 0 14 -131l-8 -71l8 -9v-6q-41 -246 -110 -346q-39 -33 -39 -63h-9q-16 0 -16 30l-4 9h-8v-15l12 -24h-4l4 -9v-6q-70 -94 -117 -94v14h-8q0 -14 -39 -14l-8 -8q-16 0 -16 -39l-9 -8h-14l-53 8q0 -16 -33 -16v-15h33v-8l-268 -47l-86 8l-9 -8v8l19 23 h-35l-23 -17h-8q0 33 -14 33h-6v-16l6 -8v-9q-170 15 -363 181l-106 141l-8 -8v8l8 8q-86 177 -86 338v8zM53 233v9l17 16q0 -39 16 -39l-6 -33h-10zM70 705l57 -23l12 23l-6 8h6l8 -8h9l-9 47h9l10 -9h6v17l-6 22h-10v-22h-9l-8 8h-6l-6 -8l6 -47h-14l-25 16h-8l-16 -16v-8 zM80 180v6h20v-14zM213 776h20l-14 15h-6v-15zM272 791h19l-19 16v-16zM305 776q193 -138 244 -141l14 -17h27l-10 9v8h10l20 -23q-29 0 -47 -127h17l10 9h6l6 -9v-16l-6 8h-6q-43 0 -90 -219l268 219l86 -55l33 8h8v-8q-27 0 -27 -14l172 -111h19v8l-96 219h-15l15 17 l-29 71l264 217l-70 9l-16 -15l-225 -8l-25 -8q-24 34 -24 61l-9 -6h-6l-14 15l14 16v8l-41 39v16h19v15h-25l-8 -8h-6q0 16 -39 16l6 8v17l-33 6l-6 -31l15 -16q-29 0 -29 -48l6 -6q-21 0 -33 -94l41 -16l15 24h-15l15 23v16l-39 -16v8l10 23l67 -31v16q19 0 19 -24l6 8h8 v-17l-14 -14h-19l-6 8h-8v-24h14v-8h-30v8l10 8v8h-10q-4 -18 -56 -39l-47 15l-8 -9l-39 9h-47v-9h16v-22h-22l-10 22l10 9l-205 -9v-6zM311 55h17l-17 15v-15zM311 657h17v17h-17v-17zM391 1065l23 -8q18 47 55 47q0 21 41 24l6 9v8h-6q-41 0 -41 -25l-31 33l15 14v9l-23 8 v-8h8q-9 -39 -47 -39l15 -33zM424 1214l20 25h-6l-8 8h-6v-33zM430 776h14v6l50 -14v-8h-17l8 -8v-9l-16 -14q0 31 -16 31q-23 0 -23 16zM430 1051h14l-14 14v-14zM438 705h15v-15zM469 690l16 15l9 -9v-6h-25zM500 37q0 -57 53 -72h8l-8 51v62h-21l9 51v92h-9l-32 -164v-20 zM500 1184h16v8h-16v-8zM510 651v23l14 -17v-6h-14zM510 1159h14v8h-14v-8zM516 729v14l25 -22v-8h-9zM561 201h21v-11l-9 -10v-51l9 -10q41 0 84 61h10l-94 -174l12 -8v-23l-12 -10l30 -8l64 29q57 170 315 1278v71q-17 51 -100 51h-33q-53 0 -133 -348v-10l10 -10l-10 -10 l-164 -684l12 -82zM563 666v16h33v-16l-25 -23v8l9 6v9h-17zM571 604h19v8h-19v-8zM580 768l10 8h6v-24zM580 1411v8l10 6v9l-10 8l38 16h9q0 -24 -31 -24v-9h14v-14l-8 8h-6l-6 -8h-10zM590 8l67 -55v16h19q0 23 20 23v16h9v-16l-23 -39v-8l14 -17l17 17v39h16v8 q0 19 -39 22l15 25l-9 8v8l9 6h-15v-14l-8 8h-6l-27 -41l-8 9h-39zM596 557v8h22v-8h-22zM602 580l8 32l17 -16v-16h-25zM602 1497h25l14 -16v-17l-23 17v-17h-8zM610 485h17l14 17h-14zM610 696v9h17v-9h-17zM610 721v31h8l9 -31h-17zM637 -72h12v-6h-12v6zM637 696l12 17 v-17h-12zM657 258v8h19v-8h-19zM705 1051h24l-6 -9v-8l45 -47h14l-14 64h-6v-17h-10l-9 31l9 8v8q-12 31 -23 31h-6v-31h14v-24l-24 16zM723 940h6v16h-6v-16zM729 915h8v17h-8v-17zM743 893h19v16zM745 1018h11l12 10v10l-12 31h-11v-10l11 -31zM752 250q0 -22 71 -31v23 h-32zM756 979v18h12v-18h-12zM786 1028v21h23zM791 791h18l-18 16v-16zM848 469v16h6v-16h-6zM901 1630v15h6v-15h-6zM924 463v6h16v-6h-16zM981 1176h12v8h-12v-8zM993 1026h8v16h-8v-16zM1112 14v17h47v-8l-39 -15zM1135 55h16l-16 15v-15zM1135 100h16v9h-16v-9z M1176 100h6v17h-6v-17zM1192 1473v8l14 -17v-6zM1206 1042l8 -8h9v8l-9 9h-8v-9zM1245 1018h17v8h-17v-8zM1300 1176v8h19v-8h-19zM1378 1026v16h8v-16h-8z" />
<glyph unicode="&#xd9;" horiz-adv-x="1253" d="M-20 1073q16 99 77 166l127 55q128 0 203 -118q43 0 64 -807l16 -47h-8q30 -134 203 -134h77q47 0 88 86l9 109l-33 723l16 55h-8q65 164 205 164l69 -14v6q156 -62 156 -266l33 -668q0 -275 -141 -422q-143 -158 -549 -158q-86 0 -86 17l-9 -8q-180 34 -180 86l-30 32 l-9 -8v-8h9l-9 -23h-47q0 30 -86 101q-127 219 -127 391l8 88l-14 39zM207 438h24l17 17l-8 8h-33v-25zM231 510h17v8h-17v-8zM262 102h17v9h-17v-9zM301 463l25 -8v8l-9 8h-16v-8zM338 1622l16 14h172q86 0 86 -30l9 8h8l14 -17l-6 -8v-8l6 -6h-14v-8h8l22 8l70 -135l-8 -8 q41 -15 41 -62v-8l-47 -8q-101 0 -142 47h-8q-172 141 -227 221zM365 94q22 0 22 -31l47 -22l-8 6v8h8l-14 47h-8l8 9v8l-17 14l9 8h-9l-38 -14v-33zM403 377h9v14h-9v-14zM457 1606h14v8h-14v-8zM479 1503h8l17 17l-8 8h-17v-25zM510 1456h16v8h-16v-8zM510 1534l16 -14v14 h-16zM518 1567h17v8l-17 14v-22zM535 1520l16 14h-16v-14zM543 1487h8v16h-8v-16zM612 1384h17l-8 9v8l8 8h-8l-9 -8v-17zM612 1432l31 8v8l-14 16zM637 1542h6l16 17h-22v-17zM643 1481h16l-8 -8v-9l47 9l-16 30l-23 -16l-8 8l-8 -8v-6zM643 1520h16v14zM651 1440h17v8h-17 v-8zM668 1401h14l-6 24h-8v-24zM668 1473v14h14v-14h-14zM676 1440h31l-17 16zM682 1384h16v9h-16v-9zM715 1393l22 -9v25h-8z" />
<glyph unicode="&#xda;" horiz-adv-x="1253" d="M-20 1073q16 99 77 166l127 55q128 0 203 -118q43 0 64 -807l16 -47h-8q30 -134 203 -134h77q47 0 88 86l9 109l-33 723l16 55h-8q65 164 205 164l69 -14v6q156 -62 156 -266l33 -668q0 -275 -141 -422q-143 -158 -549 -158q-86 0 -86 17l-9 -8q-180 34 -180 86l-30 32 l-9 -8v-8h9l-9 -23h-47q0 30 -86 101q-127 219 -127 391l8 88l-14 39zM207 438h24l17 17l-8 8h-33v-25zM231 510h17v8h-17v-8zM262 102h17v9h-17v-9zM301 463l25 -8v8l-9 8h-16v-8zM365 94q22 0 22 -31l47 -22l-8 6v8h8l-14 47h-8l8 9v8l-17 14l9 8h-9l-38 -14v-33zM403 377 h9v14h-9v-14zM506 1374v23l16 16q0 -17 23 -47v-8h-23zM553 1358v16l16 -16h-16zM553 1389v16h8v-16h-8zM553 1468h39v-24h8l8 24l-30 15l6 8v25l-6 6q15 47 30 47v8q0 16 31 16l-8 9v6l8 8l8 -8h17q0 32 55 32h203l8 -24l-142 -141l-8 8h-16v-8h16l-69 -62h-9l-16 17h16v6 h-16l-8 -6v30h-14q0 -30 -39 -30v-9l30 -8v17h17v-25l-33 -16v16l-23 -16l9 -23l-41 -8l8 8v16h-14v7h14l-8 41v22q-31 0 -31 16zM592 1421h8v15h-8v-15zM616 1530l9 -8h14v8h-14l6 8v16h-6zM625 1389h6l16 -15h-8zM625 1569l22 -8v16h-22v-8zM655 1468h17v15zM664 1522 q14 0 14 -23h8l8 23l-8 24h-8v-16l8 -8h-8l-6 8h-8v-8zM664 1554l14 15h-14v-15zM694 1616l8 -8h9v8l-9 8h-8v-8zM702 1444h17l6 39h-14zM702 1516l17 -17v17h-17zM711 1522l14 16h-14v-16zM741 1491l17 16h-17v-16zM741 1530l47 -14v6l-24 24h-23v-16zM772 1491h8v16h-8 v-16zM780 1554l17 -16l39 8v15h-56v-7zM850 1608h8l16 16h-24v-16z" />
<glyph unicode="&#xdb;" horiz-adv-x="1253" d="M-20 1073q16 99 77 166l127 55q128 0 203 -118q43 0 64 -807l16 -47h-8q30 -134 203 -134h77q47 0 88 86l9 109l-33 723l16 55h-8q65 164 205 164l69 -14v6q156 -62 156 -266l33 -668q0 -275 -141 -422q-143 -158 -549 -158q-86 0 -86 17l-9 -8q-180 34 -180 86l-30 32 l-9 -8v-8h9l-9 -23h-47q0 30 -86 101q-127 219 -127 391l8 88l-14 39zM207 438h24l17 17l-8 8h-33v-25zM225 1446q0 82 142 188q0 -24 16 -24l-8 39q153 118 196 118h86q0 -30 -39 -63l23 -23l25 15l-17 24v9l31 6v8l-8 8v8l110 -63q28 -78 39 -78v39q17 0 17 -31 q39 0 39 -16q-25 0 -25 -23h-8l-23 17l-8 -25q0 -16 39 -16h25l-9 41h17q100 -81 100 -142v-8q-15 -119 -100 -119l-64 8v9q23 0 23 16l-31 8l-14 -16l-172 133l6 8v8h-6l-9 -8h-8l-8 8l-55 -55l-6 8q-47 -59 -103 -86l-8 31h-8l-8 -8h-8l16 -39l-72 -25h-6q-92 0 -119 111z M231 510h17v8h-17v-8zM262 102h17v9h-17v-9zM301 463l25 -8v8l-9 8h-16v-8zM365 94q22 0 22 -31l47 -22l-8 6v8h8l-14 47h-8l8 9v8l-17 14l9 8h-9l-38 -14v-33zM403 377h9v14h-9v-14zM422 1423h16v9h-16v-9zM516 1509h8l8 9v6h-8l-8 -6v-9zM571 1626h39v8l-16 15h-23v-23z M633 1548h33v8l-25 23h-8v-31zM641 1604h39l-14 14l14 24v7q-20 -23 -39 -23v-22zM666 1509h14v9h-14v-9zM672 1657h16v8h-16v-8zM688 1540h25v16h-17v7h17v16h-17zM696 1532l9 -31h14v17l-14 14h-9zM719 1563l24 8l31 -23h17v31l-25 8q-38 0 -47 -24zM727 1524l8 -31l17 16 v47h-9q0 -32 -16 -32zM766 1415h16v23l-16 -15v-8zM852 1556l25 -24v8l-17 16h-8zM877 1524l30 -70l17 16q0 43 -33 54h-14zM915 1399l31 24v9h-31v-33z" />
<glyph unicode="&#xdc;" horiz-adv-x="1253" d="M-20 1073q16 99 77 166l127 55q128 0 203 -118q43 0 64 -807l16 -47h-8q30 -134 203 -134h77q47 0 88 86l9 109l-33 723l16 55h-8q65 164 205 164l69 -14v6q156 -62 156 -266l33 -668q0 -275 -141 -422q-143 -158 -549 -158q-86 0 -86 17l-9 -8q-180 34 -180 86l-30 32 l-9 -8v-8h9l-9 -23h-47q0 30 -86 101q-127 219 -127 391l8 88l-14 39zM207 438h24l17 17l-8 8h-33v-25zM231 510h17v8h-17v-8zM238 1536l18 74l6 -6l6 6h13l6 -6l24 6v6q-24 0 -24 31h12l-6 -5v-8h6l6 8l12 -14h7l-7 25l-6 -6h-12v12l80 27h18q65 0 95 -52q18 0 36 -43v-6 l-6 6h-14v-6l20 -6l7 6l6 -55q0 -71 -70 -123q-9 25 -16 25l-6 -7v-18h12v-12l-76 -13q-132 0 -147 154zM262 102h17v9h-17v-9zM268 1616v12h13v-12h-13zM301 463l25 -8v8l-9 8h-16v-8zM324 1604h6q29 9 45 38l-15 11v-6l7 -5v-8q-43 -15 -43 -30zM336 1536h12v6h-12v-6z M342 1634l12 13v6l-12 -11v-8zM365 94q22 0 22 -31l47 -22l-8 6v8h8l-14 47h-8l8 9v8l-17 14l9 8h-9l-38 -14v-33zM391 1530h12v6h-12v-6zM397 1554h15v7h-15v-7zM403 377h9v14h-9v-14zM449 1567h6l6 6q16 0 16 -19h15l-7 7l7 30h-15v-12h-6q0 18 -10 18v-6l4 -6l-16 -6v-12 zM471 1610l14 -13v13h-14zM514 1554h14l-14 13v-13zM639 1505v56q40 125 129 125h12q97 0 150 -95l-8 -6l12 -55q-12 0 -12 31h-13q0 -37 25 -37v-6q-30 -136 -135 -136h-13l-30 25v-6l12 -19h-6q-105 38 -105 74h13v12l-6 -6h-13zM651 1499l6 -24h7v18l-7 6h-6zM719 1438 l12 -13h6l-6 25h-12v-12zM725 1604h6v12h-6v-12zM731 1518h12v6h-12v-6zM737 1542h13v6h-13v-6zM750 1432h6v30h-6v-30zM780 1425l13 -12v12h-13zM780 1585l19 -12l6 6v6l-12 12v7l6 -7h6v19h-19zM811 1481h12v6h-12v-6zM842 1468l12 -12v12h-12zM848 1604l24 -7v13h-24v-6z M854 1567l18 -13v13l-18 6v-6zM872 1462l19 -18h6v18l-6 6l6 7v12l-18 -19h-7v-6zM903 1591l6 -6h6v6l-6 6h-6v-6z" />
<glyph unicode="&#xdd;" horiz-adv-x="1019" d="M-20 1270v16l55 39l16 -31l-8 -24h-63zM51 1073l47 25q0 -25 62 -31l-8 6v8l16 17l-64 102q-41 0 -53 55l15 15l-9 8l64 33l39 -17l8 9l8 -25l-8 -23h8q133 -83 133 -141l-14 -63q14 0 47 -39q31 0 31 -47q-12 -31 -25 -31l-6 6v-6q46 -125 70 -125h39q3 -32 30 -47h17 q35 37 116 211q185 329 244 344l47 16h8q67 0 125 -110q0 -87 -125 -236l-71 -108q-14 -36 -31 -39h-39l-8 8h-8l8 -8v-9l-16 -16h-9v25l-14 -17l-8 8h-8l-9 -8l-8 8h-6q-51 -12 -72 -55l9 -22l-17 -39h8l-8 -8v-9q14 -41 39 -63l8 8v-8l39 16l8 -8v-22l-22 -41h-39l-16 -15 l8 -47l-17 -16l17 -31q-16 -99 -33 -119v-69q0 -26 -23 -64l17 -31q-21 -163 -119 -163l-39 -9q-98 0 -125 142l17 327l16 47v17q-42 9 -174 313q-117 178 -117 211zM113 1026h8l8 8v8h-8l-8 -8v-8zM129 987h8l8 8l-8 25h-8v-16l8 -9zM145 1026l7 -6h16v6l-23 8v-8z M176 1020h8v14h-8v-14zM184 1051l23 16h8l-14 -63l6 -9h8l8 9v-9l8 9h9q22 0 22 -31h33l-8 8v6l8 8v9h-8v-9l-39 9v8l14 14h8v-14h9v8q0 22 -39 22v9l8 8v8l-17 14l9 9v8h-39l6 -8v-9q0 -14 -23 -14v-16zM309 987h8v33h-8v-33zM387 1374v23l16 16q0 -17 23 -47v-8h-23z M412 344h30l-22 25l-8 -9v-16zM434 1358v16l17 -16h-17zM434 1389v16h8v-16h-8zM434 1468h39v-24h8l8 24l-30 15l6 8v25l-6 6q15 47 30 47v8q0 16 31 16l-8 9v6l8 8l8 -8h17q0 32 55 32h203l8 -24l-141 -141l-8 8h-17v-8h17l-70 -62h-8l-17 17h17v6h-17l-8 -6v30h-14 q0 -30 -39 -30v-9l31 -8v17h16v-25l-33 -16v16l-22 -16l8 -23l-41 -8l8 8v16h-14v7h14l-8 41v22q-31 0 -31 16zM442 274h9l8 9v16h-8zM473 1421h8v15h-8v-15zM498 1530l8 -8h14v8h-14l6 8v16h-6zM506 1389h6l16 -15h-8zM506 1569l22 -8v16h-22v-8zM537 1468h16v15zM545 1522 q14 0 14 -23h8l8 23l-8 24h-8v-16l8 -8h-8l-6 8h-8v-8zM545 1554l14 15h-14v-15zM575 1616l9 -8h8v8l-8 8h-9v-8zM584 1444h16l6 39h-14zM584 1516l16 -17v17h-16zM592 651h6v25h-6v-25zM592 1522l14 16h-14v-16zM623 1491l16 16h-16v-16zM623 1530l47 -14v6l-25 24h-22v-16 zM653 1491h9v16h-9v-16zM662 1554l16 -16l39 8v15h-55v-7zM725 737v25l31 31h24v-39l-16 -31h-25zM731 1608h8l17 16h-25v-16zM819 1161h8v15h-8v-15z" />
<glyph unicode="&#xde;" horiz-adv-x="1183" d="M-20 -90l30 375h-6l14 41l-8 6v8q27 715 103 715q52 94 260 94l22 -25l8 9l400 -973l-111 -8v8l-94 -17q0 40 -23 47h-8l-14 -14v-8l6 8h8l8 -8v-16l-38 -9l-56 9q0 -16 -69 -39l-17 -47l31 -23l-6 -8v-8l14 -47v-23q-18 -86 -53 -86l6 -8v-31l-6 -8v-8q13 0 22 -39 q-89 -103 -141 -103l-31 -8v8l-8 -8h-8q-78 3 -78 25q17 24 23 78l-15 38h-8v-38h-8v16h-8q-23 0 -23 -25h-8l-16 31l8 25h-16l-23 -25h14v-22h-14v-9l14 -39q-69 63 -69 134h8zM-20 1266q0 183 149 235l55 8l95 -16v8q147 -52 147 -260l-6 -22h6l-6 -9l14 -336l-14 -47 l22 -24l-16 -70q33 0 33 -133l22 -166q-6 -69 -22 -69h-17v22h-16q0 -33 -39 -53h-14l-25 14l-22 -22l-47 8l8 -8v-9l-17 -24v-45h-16l88 -80q0 -23 39 -23h31l22 17h33v-8q0 -82 -205 -119q-183 0 -235 180l8 25l-39 587l22 23q158 -30 183 -62l6 9h8l102 -25h31 q0 19 -86 31l-8 41l8 6h25l47 -14l8 8v22l-55 23v-6q-17 12 -111 22l-16 25l-47 -8q-109 0 -109 30l-16 95v172zM-4 883v6q0 16 22 16l127 -31l7 9h8l24 -25v-8l-24 -23l-70 31l-8 -8h-8q-78 9 -78 33zM35 -160v-24l16 16v8h-16zM57 -279h9l16 -16h-8zM74 -98v-17h8v17h-8z M74 -145v-23l30 -8l9 39l-9 8h-6q0 -31 -16 -31v15h-8zM82 -279h16v-16zM90 -262l8 22h6v-30l-6 8h-8zM104 -270h9l16 -17v-22h-8zM152 -121v-16h8v16h-8zM201 -168v-16h30v24h-16v-16l-8 8h-6zM231 -287v-16h9l22 72h-8q-20 0 -23 -56zM240 -115l14 -39h8q16 0 25 39l-25 9 zM248 18q31 0 31 -14l-9 -8l17 -16q19 0 55 -48h6v25h8v-16h9v24q-23 0 -23 15l23 24l-9 23l-69 -15l-25 23h-14v-17zM262 -90h17l8 47h-17zM262 -160v-16l17 -17v33h-17zM295 930h6l16 -17h-8zM342 -160v-24h6v24h-6zM373 -98l22 24l-14 15zM373 373v22l22 8zM387 113v8 l8 8h8v-8l-8 -8h-8zM387 152l8 -9h8l9 9v8l-9 8h-8l-8 -8v-8zM412 1133h22l94 -23q31 3 31 23q189 0 424 -86q205 -150 205 -275l6 -8v-8h-6q14 -25 14 -86v-62q0 -168 -125 -323l-94 -54l-399 863h-9v-9l386 -886l-72 -39h-6zM420 168l53 -8v16l-6 6v8l-8 -8h-8l-9 8h-8 l-14 -14v-8zM420 309l14 -16h8l17 16v25l-25 6l-14 -14v-17z" />
<glyph unicode="&#xdf;" horiz-adv-x="2451" />
<glyph unicode="&#xe0;" d="M2 551v14h14v-14h-14zM25 840v14h8v-14h-8zM76 61v29q3 20 59 37v8q-22 0 -43 111h6l-6 8q14 83 111 354l-8 8q30 15 30 97l6 -8h9q205 690 274 690q51 51 111 51h37v14q133 0 192 -65l8 6h29v-23l-8 -6v-8q36 -23 141 -303q114 -178 141 -178v-6l-22 -23l-8 6h-9l-6 -6 l-6 6l-8 -6v-8l8 -6h6l-6 -37l21 -25l8 8v-14l-17 -22l9 8h8l8 -8h6l-6 -45h6q0 17 31 36h6q28 -29 90 -198l37 -15l6 7h31v-15h-23v-8h15v-14l-9 8h-6l-22 -8l51 -156h-14q0 31 -125 156l73 -125q66 -53 74 -97q0 -96 -119 -178l-82 -30l-57 16l-8 -8v8l-8 -8h-8 q-98 55 -154 215l6 8h-14v6l8 8q-18 43 -53 43l-37 -6l-29 6l-76 -14l-6 8l-82 -14l-59 14h-37q-65 -311 -238 -311q-77 0 -139 45v-8l15 -15q-42 0 -66 -30h-23zM76 528v15h16v-15h-16zM76 766h16v-16zM84 854v14l22 -8v-6h-22zM106 860v8h15v-8h-15zM121 727l14 14v-14 h-14zM129 772h6l15 -14v-8h-15zM129 1030v8h14v-8h-14zM143 571v23l15 -14l-8 -9h-7zM158 682v8l14 15l8 -7v-16h-22zM172 815v8h14v-8h-14zM203 928h22l-8 -23h-8zM217 -102l8 8h6v-23zM240 772v6h14v-6h-14zM254 1047v6h14v-6h-14zM268 16v15h23v-6l-15 -17zM283 965h16 v-15zM416 1790l16 14h172q86 0 86 -30l8 8h9l14 -17l-6 -8v-8l6 -6h-14v-8h8l22 8l70 -135l-8 -9q41 -15 41 -61v-8l-47 -8q-101 0 -142 47h-8q-172 141 -227 221zM440 840l117 -82l8 8q0 -31 37 -31q-14 -88 -45 -155l8 -9v-6l-14 -22h6l148 119l163 -105h9v8l-74 176 l28 25l-28 29v14q23 0 59 -31l94 90l-147 -8q-22 0 -59 -29v9l8 20l-23 8l15 15l-37 73h8l-29 82h-8l-53 -192h-15l9 -23l37 8v-16l-46 -6l-6 37h-39l-6 -6l-8 6zM520 823h15v-14zM535 1774h14v8h-14v-8zM557 1671h8l17 17l-9 8h-16v-25zM565 8v17h15zM571 305v14l17 -14 h-17zM588 172v14l28 9l15 -23v-6l-29 -16zM588 1624h16v8h-16v-8zM588 1702l16 -14v14h-16zM596 1735h16v8l-16 14v-22zM602 291v14h14zM602 766v6h23v-6h-23zM612 1688l17 14h-17v-14zM616 291h15v-15zM621 1655h8v16h-8v-16zM625 1528v37l14 14h23v-6q0 -38 -23 -45h-14z M653 840v6q15 0 15 37l8 8h-14v14l22 -8v-20l-8 -9l8 -8v-6l-22 -23zM662 786v23q22 0 22 22l8 9h6l23 -17v23h8l6 -23l-6 -8l6 -6l-6 -6h-16l-21 12h-8q0 -29 -22 -29zM690 1552h17l-9 9v8l9 8h-9l-8 -8v-17zM690 1599l31 9v8l-14 16zM715 1710h6l16 16h-22v-16zM721 1649 h16l-8 -9v-8l47 8l-16 31l-23 -16l-8 8l-8 -8v-6zM721 1688h16v14zM729 1608h16v8h-16v-8zM735 815l15 16v-16h-15zM745 1569h15l-6 24h-9v-24zM745 1640v15h15v-15h-15zM750 698v23h8v-23h-8zM750 741v9h16v-9h-16zM754 1608h30l-16 16zM758 721v14h8v-14h-8zM760 1552h16 v9h-16v-9zM780 815v25h6l17 -17zM793 1561l22 -9v25h-8zM883 831v15h16v-15h-16zM905 283v8h15v-8h-15zM913 1415v17h15v-17h-15zM1053 1083v7h24l-16 -15zM1077 1171h13v-14zM1090 1126l8 9h8v-23zM1126 993v8l25 9l6 -9v-8l-14 -14zM1151 840v14h6v-14h-6zM1165 750v16h6 v-16h-6zM1171 1053v8l17 14h6v-8l-14 -14h-9zM1180 758v8h14v-8h-14zM1194 1180l14 14v-14h-14zM1268 831v23h8v-23h-8zM1335 98v15l29 8v-23h-29zM1350 446l8 23l-8 6l8 8h14l6 -53l-6 -6h-8q-14 0 -14 22z" />
<glyph unicode="&#xe1;" d="M2 551v14h14v-14h-14zM25 840v14h8v-14h-8zM76 61v29q3 20 59 37v8q-22 0 -43 111h6l-6 8q14 83 111 354l-8 8q30 15 30 97l6 -8h9q205 690 274 690q51 51 111 51h37v14q133 0 192 -65l8 6h29v-23l-8 -6v-8q36 -23 141 -303q114 -178 141 -178v-6l-22 -23l-8 6h-9l-6 -6 l-6 6l-8 -6v-8l8 -6h6l-6 -37l21 -25l8 8v-14l-17 -22l9 8h8l8 -8h6l-6 -45h6q0 17 31 36h6q28 -29 90 -198l37 -15l6 7h31v-15h-23v-8h15v-14l-9 8h-6l-22 -8l51 -156h-14q0 31 -125 156l73 -125q66 -53 74 -97q0 -96 -119 -178l-82 -30l-57 16l-8 -8v8l-8 -8h-8 q-98 55 -154 215l6 8h-14v6l8 8q-18 43 -53 43l-37 -6l-29 6l-76 -14l-6 8l-82 -14l-59 14h-37q-65 -311 -238 -311q-77 0 -139 45v-8l15 -15q-42 0 -66 -30h-23zM76 528v15h16v-15h-16zM76 766h16v-16zM84 854v14l22 -8v-6h-22zM106 860v8h15v-8h-15zM121 727l14 14v-14 h-14zM129 772h6l15 -14v-8h-15zM129 1030v8h14v-8h-14zM143 571v23l15 -14l-8 -9h-7zM158 682v8l14 15l8 -7v-16h-22zM172 815v8h14v-8h-14zM203 928h22l-8 -23h-8zM217 -102l8 8h6v-23zM240 772v6h14v-6h-14zM254 1047v6h14v-6h-14zM268 16v15h23v-6l-15 -17zM283 965h16 v-15zM440 840l117 -82l8 8q0 -31 37 -31q-14 -88 -45 -155l8 -9v-6l-14 -22h6l148 119l163 -105h9v8l-74 176l28 25l-28 29v14q23 0 59 -31l94 90l-147 -8q-22 0 -59 -29v9l8 20l-23 8l15 15l-37 73h8l-29 82h-8l-53 -192h-15l9 -23l37 8v-16l-46 -6l-6 37h-39l-6 -6l-8 6z M504 1518v22l16 16q0 -17 23 -47v-8h-23zM520 823h15v-14zM551 1501v17l16 -17h-16zM551 1532v16h8v-16h-8zM551 1612h39v-25h8l8 25l-31 14l7 8v25l-7 6q15 47 31 47v8q0 17 31 17l-8 8v6l8 8l8 -8h17q0 33 55 33h203l8 -25l-142 -141l-8 8h-16v-8h16l-69 -62h-9l-16 17h16 v6h-16l-8 -6v31h-14q0 -31 -39 -31v-8l30 -9v17h17v-25l-33 -16v16l-23 -16l9 -23l-41 -8l8 8v17h-15v6h15l-8 41v22q-31 0 -31 17zM565 8v17h15zM571 305v14l17 -14h-17zM588 172v14l28 9l15 -23v-6l-29 -16zM590 1565h8v14h-8v-14zM602 291v14h14zM602 766v6h23v-6h-23z M614 1673l9 -8h14v8h-14l6 8v17h-6zM616 291h15v-15zM623 1532h6l16 -14h-8zM623 1712l22 -8v16h-22v-8zM625 1528v37l14 14h23v-6q0 -38 -23 -45h-14zM653 840v6q15 0 15 37l8 8h-14v14l22 -8v-20l-8 -9l8 -8v-6l-22 -23zM653 1612h17v14zM662 786v23q22 0 22 22l8 9h6 l23 -17v23h8l6 -23l-6 -8l6 -6l-6 -6h-16l-21 12h-8q0 -29 -22 -29zM662 1665q14 0 14 -23h8l8 23l-8 25h-8v-17l8 -8h-8l-6 8h-8v-8zM662 1698l14 14h-14v-14zM692 1759l8 -8h9v8l-9 8h-8v-8zM700 1587h17l6 39h-14zM700 1659l17 -17v17h-17zM709 1665l14 16h-14v-16z M735 815l15 16v-16h-15zM739 1634l17 17h-17v-17zM739 1673l47 -14v6l-24 25h-23v-17zM750 698v23h8v-23h-8zM750 741v9h16v-9h-16zM758 721v14h8v-14h-8zM770 1634h8v17h-8v-17zM778 1698l17 -17l39 9v14h-56v-6zM780 815v25h6l17 -17zM848 1751h8l16 16h-24v-16zM883 831 v15h16v-15h-16zM905 283v8h15v-8h-15zM913 1415v17h15v-17h-15zM1053 1083v7h24l-16 -15zM1077 1171h13v-14zM1090 1126l8 9h8v-23zM1126 993v8l25 9l6 -9v-8l-14 -14zM1151 840v14h6v-14h-6zM1165 750v16h6v-16h-6zM1171 1053v8l17 14h6v-8l-14 -14h-9zM1180 758v8h14v-8 h-14zM1194 1180l14 14v-14h-14zM1268 831v23h8v-23h-8zM1335 98v15l29 8v-23h-29zM1350 446l8 23l-8 6l8 8h14l6 -53l-6 -6h-8q-14 0 -14 22z" />
<glyph unicode="&#xe2;" d="M2 551v14h14v-14h-14zM25 840v14h8v-14h-8zM76 61v29q3 20 59 37v8q-22 0 -43 111h6l-6 8q14 83 111 354l-8 8q30 15 30 97l6 -8h9q205 690 274 690q51 51 111 51h37v14q133 0 192 -65l8 6h29v-23l-8 -6v-8q36 -23 141 -303q114 -178 141 -178v-6l-22 -23l-8 6h-9l-6 -6 l-6 6l-8 -6v-8l8 -6h6l-6 -37l21 -25l8 8v-14l-17 -22l9 8h8l8 -8h6l-6 -45h6q0 17 31 36h6q28 -29 90 -198l37 -15l6 7h31v-15h-23v-8h15v-14l-9 8h-6l-22 -8l51 -156h-14q0 31 -125 156l73 -125q66 -53 74 -97q0 -96 -119 -178l-82 -30l-57 16l-8 -8v8l-8 -8h-8 q-98 55 -154 215l6 8h-14v6l8 8q-18 43 -53 43l-37 -6l-29 6l-76 -14l-6 8l-82 -14l-59 14h-37q-65 -311 -238 -311q-77 0 -139 45v-8l15 -15q-42 0 -66 -30h-23zM76 528v15h16v-15h-16zM76 766h16v-16zM84 854v14l22 -8v-6h-22zM106 860v8h15v-8h-15zM121 727l14 14v-14 h-14zM129 772h6l15 -14v-8h-15zM129 1030v8h14v-8h-14zM143 571v23l15 -14l-8 -9h-7zM158 682v8l14 15l8 -7v-16h-22zM172 815v8h14v-8h-14zM203 928h22l-8 -23h-8zM217 -102l8 8h6v-23zM240 772v6h14v-6h-14zM254 1047v6h14v-6h-14zM268 16v15h23v-6l-15 -17zM283 965h16 v-15zM295 1505q0 84 141 189q0 -25 17 -25l-9 39q155 119 197 119h86q0 -31 -39 -64l23 -22l24 14l-16 25v8l31 6v8l-9 8v9l111 -64q28 -78 39 -78v39q16 0 16 -30q39 0 39 -17q-24 0 -24 -22h-9l-22 16l-8 -25q0 -16 39 -16h24l-8 41h16q101 -82 101 -141v-9 q-15 -118 -101 -118l-63 8v8q22 0 22 16l-30 9l-15 -17l-172 133l6 9v8h-6l-8 -8h-8l-8 8l-56 -56l-6 9q-47 -59 -102 -86l-8 30h-8l-9 -8h-8l17 -39l-72 -24h-6q-92 0 -119 110zM440 840l117 -82l8 8q0 -31 37 -31q-14 -88 -45 -155l8 -9v-6l-14 -22h6l148 119l163 -105h9 v8l-74 176l28 25l-28 29v14q23 0 59 -31l94 90l-147 -8q-22 0 -59 -29v9l8 20l-23 8l15 15l-37 73h8l-29 82h-8l-53 -192h-15l9 -23l37 8v-16l-46 -6l-6 37h-39l-6 -6l-8 6zM492 1483h16v8h-16v-8zM520 823h15v-14zM565 8v17h15zM571 305v14l17 -14h-17zM586 1569h8l8 8v6 h-8l-8 -6v-8zM588 172v14l28 9l15 -23v-6l-29 -16zM602 291v14h14zM602 766v6h23v-6h-23zM616 291h15v-15zM625 1528v37l14 14h23v-6q0 -38 -23 -45h-14zM641 1686h39v8l-16 14h-23v-22zM653 840v6q15 0 15 37l8 8h-14v14l22 -8v-20l-8 -9l8 -8v-6l-22 -23zM662 786v23 q22 0 22 22l8 9h6l23 -17v23h8l6 -23l-6 -8l6 -6l-6 -6h-16l-21 12h-8q0 -29 -22 -29zM702 1608h33v8l-24 22h-9v-30zM711 1663h39l-15 14l15 25v6q-19 -22 -39 -22v-23zM735 815l15 16v-16h-15zM735 1569h15v8h-15v-8zM741 1716h17v8h-17v-8zM750 698v23h8v-23h-8zM750 741 v9h16v-9h-16zM758 721v14h8v-14h-8zM758 1599h24v17h-16v6h16v16h-16zM766 1591l8 -30h14v16l-14 14h-8zM780 815v25h6l17 -17zM788 1622l25 8l31 -22h16v30l-24 9q-39 0 -48 -25zM797 1583l8 -31l16 17v47h-8q0 -33 -16 -33zM836 1475h16v22l-16 -14v-8zM883 831v15h16v-15 h-16zM905 283v8h15v-8h-15zM913 1415h15v17h-15v-17zM922 1616l24 -25v8l-16 17h-8zM946 1583l31 -70l16 17q0 42 -32 53h-15zM985 1458l31 25v8h-31v-33zM1053 1083v7h24l-16 -15zM1077 1171h13v-14zM1090 1126l8 9h8v-23zM1126 993v8l25 9l6 -9v-8l-14 -14zM1151 840v14h6 v-14h-6zM1165 750v16h6v-16h-6zM1171 1053v8l17 14h6v-8l-14 -14h-9zM1180 758v8h14v-8h-14zM1194 1180l14 14v-14h-14zM1268 831v23h8v-23h-8zM1335 98v15l29 8v-23h-29zM1350 446l8 23l-8 6l8 8h14l6 -53l-6 -6h-8q-14 0 -14 22z" />
<glyph unicode="&#xe3;" d="M2 551v14h14v-14h-14zM25 840v14h8v-14h-8zM76 61v29q3 20 59 37v8q-22 0 -43 111h6l-6 8q14 83 111 354l-8 8q30 15 30 97l6 -8h9q205 690 274 690q51 51 111 51h37v14q133 0 192 -65l8 6h29v-23l-8 -6v-8q36 -23 141 -303q114 -178 141 -178v-6l-22 -23l-8 6h-9l-6 -6 l-6 6l-8 -6v-8l8 -6h6l-6 -37l21 -25l8 8v-14l-17 -22l9 8h8l8 -8h6l-6 -45h6q0 17 31 36h6q28 -29 90 -198l37 -15l6 7h31v-15h-23v-8h15v-14l-9 8h-6l-22 -8l51 -156h-14q0 31 -125 156l73 -125q66 -53 74 -97q0 -96 -119 -178l-82 -30l-57 16l-8 -8v8l-8 -8h-8 q-98 55 -154 215l6 8h-14v6l8 8q-18 43 -53 43l-37 -6l-29 6l-76 -14l-6 8l-82 -14l-59 14h-37q-65 -311 -238 -311q-77 0 -139 45v-8l15 -15q-42 0 -66 -30h-23zM76 528v15h16v-15h-16zM76 766h16v-16zM84 854v14l22 -8v-6h-22zM106 860v8h15v-8h-15zM121 727l14 14v-14 h-14zM129 772h6l15 -14v-8h-15zM129 1030v8h14v-8h-14zM143 571v23l15 -14l-8 -9h-7zM158 682v8l14 15l8 -7v-16h-22zM172 815v8h14v-8h-14zM203 928h22l-8 -23h-8zM217 -102l8 8h6v-23zM240 772v6h14v-6h-14zM254 1047v6h14v-6h-14zM268 16v15h23v-6l-15 -17zM283 965h16 v-15zM313 1606v14q0 133 181 197h63q78 -3 78 -17l-47 -117h-8v17h-9v-8l9 -9v-8q-52 -180 -125 -180l-31 -8q-93 0 -111 119zM440 840l117 -82l8 8q0 -31 37 -31q-14 -88 -45 -155l8 -9v-6l-14 -22h6l148 119l163 -105h9v8l-74 176l28 25l-28 29v14q23 0 59 -31l94 90 l-147 -8q-22 0 -59 -29v9l8 20l-23 8l15 15l-37 73h8l-29 82h-8l-53 -192h-15l9 -23l37 8v-16l-46 -6l-6 37h-39l-6 -6l-8 6zM455 1628h8v17h-8v-17zM520 823h15v-14zM565 8v17h15zM571 305v14l17 -14h-17zM588 172v14l28 9l15 -23v-6l-29 -16zM588 1559v14q24 0 24 47l54 8 v8h-39q71 142 94 142l86 -31l149 70h23q111 -15 111 -95v-47q0 -125 -172 -180h-17q0 23 -47 64v-9l16 -24v-15l-16 -16l-16 25l8 6v8l-8 -8h-9q-19 0 -22 33h-8v-25l39 -31v-8h-9q-52 0 -241 64zM602 291v14h14zM602 766v6h23v-6h-23zM616 291h15v-15zM625 1528h14 q23 7 23 45v6h-23l-14 -14v-37zM653 840v6q15 0 15 37l8 8h-14v14l22 -8v-20l-8 -9l8 -8v-6l-22 -23zM662 786v23q22 0 22 22l8 9h6l23 -17v23h8l6 -23l-6 -8l6 -6l-6 -6h-16l-21 12h-8q0 -29 -22 -29zM666 1614l8 -8h8v8l-8 6h-8v-6zM713 1534h16v8h-16v-8zM735 815l15 16 v-16h-15zM750 698v23h8v-23h-8zM750 741v9h16v-9h-16zM752 1597l39 -38v8q-9 39 -23 39h-16v-9zM758 721v14h8v-14h-8zM780 815v25h6l17 -17zM791 1581l8 -8h24v8l-32 8v-8zM883 831v15h16v-15h-16zM905 283v8h15v-8h-15zM909 1559l9 -9h14v9l-23 8v-8zM913 1415v17h15v-17 h-15zM1053 1083v7h24l-16 -15zM1077 1171h13v-14zM1090 1126l8 9h8v-23zM1126 993v8l25 9l6 -9v-8l-14 -14zM1151 840v14h6v-14h-6zM1165 750v16h6v-16h-6zM1171 1053v8l17 14h6v-8l-14 -14h-9zM1180 758v8h14v-8h-14zM1194 1180l14 14v-14h-14zM1268 831v23h8v-23h-8z M1335 98v15l29 8v-23h-29zM1350 446l8 23l-8 6l8 8h14l6 -53l-6 -6h-8q-14 0 -14 22z" />
<glyph unicode="&#xe4;" d="M2 551v14h14v-14h-14zM25 840v14h8v-14h-8zM76 61v29q3 20 59 37v8q-22 0 -43 111h6l-6 8q14 83 111 354l-8 8q30 15 30 97l6 -8h9q205 690 274 690q51 51 111 51h37v14q133 0 192 -65l8 6h29v-23l-8 -6v-8q36 -23 141 -303q114 -178 141 -178v-6l-22 -23l-8 6h-9l-6 -6 l-6 6l-8 -6v-8l8 -6h6l-6 -37l21 -25l8 8v-14l-17 -22l9 8h8l8 -8h6l-6 -45h6q0 17 31 36h6q28 -29 90 -198l37 -15l6 7h31v-15h-23v-8h15v-14l-9 8h-6l-22 -8l51 -156h-14q0 31 -125 156l73 -125q66 -53 74 -97q0 -96 -119 -178l-82 -30l-57 16l-8 -8v8l-8 -8h-8 q-98 55 -154 215l6 8h-14v6l8 8q-18 43 -53 43l-37 -6l-29 6l-76 -14l-6 8l-82 -14l-59 14h-37q-65 -311 -238 -311q-77 0 -139 45v-8l15 -15q-42 0 -66 -30h-23zM76 528v15h16v-15h-16zM76 766h16v-16zM84 854v14l22 -8v-6h-22zM106 860v8h15v-8h-15zM121 727l14 14v-14 h-14zM129 772h6l15 -14v-8h-15zM129 1030v8h14v-8h-14zM143 571v23l15 -14l-8 -9h-7zM158 682v8l14 15l8 -7v-16h-22zM172 815v8h14v-8h-14zM203 928h22l-8 -23h-8zM217 -102l8 8h6v-23zM240 772v6h14v-6h-14zM254 1047v6h14v-6h-14zM268 16v15h23v-6l-15 -17zM283 965h16 v-15zM324 1642l18 74l6 -6l6 6h13l6 -6l24 6v6q-24 0 -24 31h12l-6 -4v-8h6l6 8l12 -14h7l-7 24l-6 -6h-12v12l80 27h18q66 0 95 -51q18 0 36 -43v-6l-6 6h-14v-6l20 -6l7 6l6 -56q0 -71 -70 -123q-9 25 -16 25l-6 -6v-19h12v-12l-76 -12q-132 0 -147 153zM354 1722v13h13 v-13h-13zM410 1710h6q28 8 45 39l-15 10v-6l7 -4v-8q-43 -15 -43 -31zM422 1642h12v7h-12v-7zM428 1741l12 12v6l-12 -10v-8zM440 840l117 -82l8 8q0 -31 37 -31q-14 -88 -45 -155l8 -9v-6l-14 -22h6l148 119l163 -105h9v8l-74 176l28 25l-28 29v14q23 0 59 -31l94 90 l-147 -8q-22 0 -59 -29v9l8 20l-23 8l15 15l-37 73h8l-29 82h-8l-53 -192h-15l9 -23l37 8v-16l-46 -6l-6 37h-39l-6 -6l-8 6zM477 1636h12v6h-12v-6zM483 1661h15v6h-15v-6zM520 823h15v-14zM535 1673h6l6 6q16 0 16 -18h15l-7 6l7 31h-15v-12h-6q0 18 -10 18v-6l4 -6 l-16 -6v-13zM557 1716l14 -12v12h-14zM565 8v17h15zM571 305v14l17 -14h-17zM588 172v14l28 9l15 -23v-6l-29 -16zM600 1661h14l-14 12v-12zM602 291v14h14zM602 766v6h23v-6h-23zM616 291h15v-15zM625 1528v37l14 14h23v-6q0 -38 -23 -45h-14zM653 840v6q15 0 15 37l8 8 h-14v14l22 -8v-20l-8 -9l8 -8v-6l-22 -23zM662 786v23q22 0 22 22l8 9h6l23 -17v23h8l6 -23l-6 -8l6 -6l-6 -6h-16l-21 12h-8q0 -29 -22 -29zM725 1612v55q40 125 129 125h12q98 0 150 -94l-8 -6l12 -56q-12 0 -12 31h-13q0 -37 25 -37v-6q-30 -135 -135 -135h-13l-30 24v-6 l12 -18h-6q-105 37 -105 74h13v12l-6 -6h-13zM735 815l15 16v-16h-15zM737 1606l6 -25h7v18l-7 7h-6zM750 698v23h8v-23h-8zM750 741v9h16v-9h-16zM758 721v14h8v-14h-8zM780 815v25h6l17 -17zM805 1544l12 -12h6l-6 24h-12v-12zM811 1710h6v12h-6v-12zM817 1624h12v6h-12 v-6zM823 1649h13v6h-13v-6zM836 1538h6v31h-6v-31zM866 1532l13 -12v12h-13zM866 1692l19 -13l6 7v6l-12 12v6l6 -6h6v18h-19zM883 831v15h16v-15h-16zM897 1587h12v6h-12v-6zM905 283v8h15v-8h-15zM913 1415v17h15v-17h-15zM928 1575l12 -12v12h-12zM934 1710l24 -6v12h-24 v-6zM940 1673l18 -12v12l-18 6v-6zM958 1569l19 -19h6v19l-6 6l6 6v12l-18 -18h-7v-6zM989 1698l6 -6h6v6l-6 6h-6v-6zM1053 1083v7h24l-16 -15zM1077 1171h13v-14zM1090 1126l8 9h8v-23zM1126 993v8l25 9l6 -9v-8l-14 -14zM1151 840v14h6v-14h-6zM1165 750v16h6v-16h-6z M1171 1053v8l17 14h6v-8l-14 -14h-9zM1180 758v8h14v-8h-14zM1194 1180l14 14v-14h-14zM1268 831v23h8v-23h-8zM1335 98v15l29 8v-23h-29zM1350 446l8 23l-8 6l8 8h14l6 -53l-6 -6h-8q-14 0 -14 22z" />
<glyph unicode="&#xe5;" d="M2 551v14h14v-14h-14zM25 840v14h8v-14h-8zM76 61v29q3 20 59 37v8q-22 0 -43 111h6l-6 8q14 83 111 354l-8 8q30 15 30 97l6 -8h9q205 690 274 690q51 51 111 51h37v14q133 0 192 -65l8 6h29v-23l-8 -6v-8q36 -23 141 -303q114 -178 141 -178v-6l-22 -23l-8 6h-9l-6 -6 l-6 6l-8 -6v-8l8 -6h6l-6 -37l21 -25l8 8v-14l-17 -22l9 8h8l8 -8h6l-6 -45h6q0 17 31 36h6q28 -29 90 -198l37 -15l6 7h31v-15h-23v-8h15v-14l-9 8h-6l-22 -8l51 -156h-14q0 31 -125 156l73 -125q66 -53 74 -97q0 -96 -119 -178l-82 -30l-57 16l-8 -8v8l-8 -8h-8 q-98 55 -154 215l6 8h-14v6l8 8q-18 43 -53 43l-37 -6l-29 6l-76 -14l-6 8l-82 -14l-59 14h-37q-65 -311 -238 -311q-77 0 -139 45v-8l15 -15q-42 0 -66 -30h-23zM76 528v15h16v-15h-16zM76 766h16v-16zM84 854v14l22 -8v-6h-22zM106 860v8h15v-8h-15zM121 727l14 14v-14 h-14zM129 772h6l15 -14v-8h-15zM129 1030v8h14v-8h-14zM143 571v23l15 -14l-8 -9h-7zM158 682v8l14 15l8 -7v-16h-22zM172 815v8h14v-8h-14zM203 928h22l-8 -23h-8zM217 -102l8 8h6v-23zM240 772v6h14v-6h-14zM254 1047v6h14v-6h-14zM268 16v15h23v-6l-15 -17zM283 965h16 v-15zM440 840l117 -82l8 8q0 -31 37 -31q-14 -88 -45 -155l8 -9v-6l-14 -22h6l148 119l163 -105h9v8l-74 176l28 25l-28 29v14q23 0 59 -31l94 90l-147 -8q-22 0 -59 -29v9l8 20l-23 8l15 15l-37 73h8l-29 82h-8l-53 -192h-15l9 -23l37 8v-16l-46 -6l-6 37h-39l-6 -6l-8 6z M457 1520v16h8v-16h-8zM457 1542v17l8 47l-8 8v8l24 39h-8q41 74 78 86l47 -70v-8h-8l-8 8h-7v-41h-8l-8 9h-8v-9l8 -6v-8q-16 0 -16 -33l-39 17l16 -23h-16l8 -24l8 8h8l15 -39h-15l7 -31l-15 -16v-8h8q15 0 15 24l8 6h8v-6l-39 -80l-24 33h8l24 -8v14q-16 0 -16 33h-25v8 l9 6v8l-23 31h-16zM465 1503v8h16v-8h-16zM473 1473v16l23 -8v-8h-23zM473 1567l14 -17v17h-14zM481 1583l15 14v9h-15v-23zM496 1661h16v16h-16v-16zM512 1528h8v14h-8v-14zM520 823h15v-14zM543 1395q27 0 55 -25h8v16l-16 25l-8 -8l-39 8v-16zM543 1442h16v-25h-8z M543 1669h24v14h-24v-14zM565 8v17h15zM571 305v14l17 -14h-17zM575 1464v17h7v-17h-7zM582 1417l8 47l16 -14v-33h-24zM588 172v14l28 9l15 -23v-6l-29 -16zM590 1481h16v-17zM602 291v14h14zM602 766v6h23v-6h-23zM606 1456v8h17v-8h-17zM614 1417l9 33h6l16 -16v-17l-8 8 h-8v-14l-6 6h-9zM614 1778h15q0 -23 16 -23v-8h-16v-16l24 16l9 -8l16 16v17h-25l9 -9v-8h-9l-16 17l8 6h64q31 0 47 -31h30v-8q-38 0 -47 -31h17v-8l-17 -23q-47 6 -47 39h-14l-8 -33l8 -6h-25l9 6v9l-9 8h9l-9 24h-16l16 -24h-8q-22 0 -31 78zM616 291h15v-15zM623 1378v8 q39 26 39 56h8q0 -25 14 -25h8q0 25 17 25v-8l-9 -9v-8h9l30 25l-8 22h-14v-22l-8 8h-17v-16l-8 8h-6l6 31l8 -9h8q0 17 39 17l-8 8v8q26 0 41 70v30l-8 9v8q31 0 31 16h-9l-8 -8h-6l-8 23l8 8l-8 8q17 0 39 31h8v8l-8 8v8l8 8h8q62 -71 62 -157q0 -104 -103 -142v-8h25 l-8 -6v-8l-31 14l-16 -22l8 8h30v-8l-61 -25l14 25v8l-22 -17l-8 9v-9l8 -8l-25 -14h-8l-6 6l-33 -6v6h17v16zM625 1528v37l14 14h23v-6q0 -38 -23 -45h-14zM637 1456v8h16l17 -14l-8 -8h-9zM653 840v6q15 0 15 37l8 8h-14v14l22 -8v-20l-8 -9l8 -8v-6l-22 -23zM662 786v23 q22 0 22 22l8 9h6l23 -17v23h8l6 -23l-6 -8l6 -6l-6 -6h-16l-21 12h-8q0 -29 -22 -29zM662 1724h16v15zM678 1378v8l6 9h8v-9l-8 -8h-6zM709 1716h8l8 8v7h-8l-8 -7v-8zM735 815l15 16v-16h-15zM750 698v23h8v-23h-8zM750 741v9h16v-9h-16zM758 721v14h8v-14h-8zM772 1503 l6 -6h17l-9 6v8l17 25v6zM780 815v25h6l17 -17zM819 1606l15 -17v17h-15zM819 1630h15v15l-15 16v-31zM850 1567h22v16l-22 -8v-8zM883 831v15h16v-15h-16zM905 283v8h15v-8h-15zM913 1415v17h15v-17h-15zM1053 1083v7h24l-16 -15zM1077 1171h13v-14zM1090 1126l8 9h8v-23z M1126 993v8l25 9l6 -9v-8l-14 -14zM1151 840v14h6v-14h-6zM1165 750v16h6v-16h-6zM1171 1053v8l17 14h6v-8l-14 -14h-9zM1180 758v8h14v-8h-14zM1194 1180l14 14v-14h-14zM1268 831v23h8v-23h-8zM1335 98v15l29 8v-23h-29zM1350 446l8 23l-8 6l8 8h14l6 -53l-6 -6h-8 q-14 0 -14 22z" />
<glyph unicode="&#xe6;" horiz-adv-x="1892" d="M-96 551v14h14v-14h-14zM-74 840v14h8v-14h-8zM-23 61v29q3 20 60 37v8q-22 0 -43 111h6l-6 8q15 89 110 354l-8 8q31 16 31 97l6 -8h8q205 690 275 690q51 51 110 51h37v14q134 0 193 -65l8 6h29v-23l-9 -6v-8q37 -24 142 -303q114 -178 141 -178v-6l-23 -23l-8 6h-8 l-6 -6l-6 6l-8 -6v-8l8 -6h6l-6 -37l20 -25l8 8v-14l-16 -22l8 8h8l9 -8h6l-6 -45h6q0 17 31 36h6q28 -29 90 -198l37 -15l6 7h31v-15h-23v-8h14v-14l-8 8h-6l-23 -8l52 -156h-15q0 31 -125 156l74 -125q66 -53 74 -97q0 -96 -119 -178l-82 -30l-57 16l-8 -8v8l-9 -8h-8 q-97 54 -153 215l6 8h-15v6l9 8q-18 43 -54 43l-36 -6l-29 6l-76 -14l-6 8l-82 -14l-59 14h-37q-65 -311 -238 -311q-77 0 -139 45v-8l14 -15q-41 0 -65 -30h-23zM-23 528v15h17v-15h-17zM-23 766h17v-16zM-14 854v14l22 -8v-6h-22zM8 860v8h15v-8h-15zM23 727l14 14v-14 h-14zM31 772h6l14 -14v-8h-14zM31 1030v8h14v-8h-14zM45 571v23l14 -14l-8 -9h-6zM59 682v8l15 15l8 -7v-16h-23zM74 815v8h14v-8h-14zM104 928h23l-8 -23h-8zM119 -102l8 8h6v-23zM141 772v6h15v-6h-15zM156 1047v6h14v-6h-14zM170 16v15h23v-6l-15 -17zM184 965h17v-15z M342 840l117 -82l8 8q0 -31 37 -31q-14 -88 -45 -155l8 -9v-6l-14 -22h6l147 119l164 -105h8v8l-73 176l28 25l-28 29v14q23 0 59 -31l94 90l-147 -8q-23 0 -60 -29v9l8 20l-22 8l14 15l-37 73h9l-29 82h-8l-54 -192h-14l8 -23l37 8v-16l-45 -6l-6 37h-39l-6 -6l-8 6z M422 823h14v-14zM467 8v17h14zM473 305v14l16 -14h-16zM489 172v14l29 9l14 -23v-6l-28 -16zM504 291v14h14zM504 766v6h22v-6h-22zM518 291h14v-15zM526 1528v37l15 14h22v-6q0 -39 -22 -45h-15zM555 840v6q14 0 14 37l9 8h-15v14l23 -8v-20l-8 -9l8 -8v-6l-23 -23z M563 786v23q23 0 23 22l8 9h6l23 -17v23h8l6 -23l-6 -8l6 -6l-6 -6h-17l-20 12h-8q0 -29 -23 -29zM637 815l14 16v-16h-14zM651 698v23h8v-23h-8zM651 741v9h17v-9h-17zM659 721v14h9v-14h-9zM682 815v25h6l17 -17zM784 831v15h17v-15h-17zM807 283v8h14v-8h-14zM815 1415 v17h14v-17h-14zM854 260h16v16h-16v-16zM862 221l31 8l8 -8l8 8v9l-8 8v6q0 33 39 33v14l25 -8l39 8h38v16h17v-16h16v16l15 17h8l63 -41v8l-71 55h-9l9 -8v-14l-48 -8l-47 8q-22 0 -22 -25l-72 8l17 56l-17 14v47l8 25l-8 39v77l8 72l-16 164l8 47v78q-22 83 -22 211v49 l-9 6q0 166 236 166l627 16q94 -27 94 -94v-33q0 -62 -94 -86l-400 -8h-180l8 -280h203v-17h39l110 8l78 -16l47 8q172 0 172 -78q0 -94 -53 -94l-16 -47l8 -33l-8 -6h8l8 6l-8 -30q-37 0 -80 30v-6l8 -8v-8l-8 -8h17v-17h-48l9 8v25l-9 8l9 31h22v-16h33l-8 47l8 -9h8l6 9 h8l9 -9v9l-9 8v8l-55 -8h-78l8 -8v-9h-38l6 9v8l-414 8v-322l16 -63l54 8h432v64l-8 6l8 33h22q0 -44 25 -72l-8 -6l8 -25q46 0 55 39h15v-8l-9 -23h9l24 -8v25l8 -8h15v22l-9 8v-16l-30 -6q3 39 24 39v6h-16l16 16h6v-16l9 8h16v-8l-8 -6l8 -33l8 8h15v-14l-15 -25v-16 l23 16v-16l-8 -6v-9q17 0 32 -71q0 -68 -127 -109l-6 -8l-110 16q-33 -3 -33 -24l-62 8l-211 -16l-8 8v8l-47 -8l-117 8l-110 -16l-39 16v-8q-50 0 -102 102v23l-9 -6h-8q-39 9 -39 22zM879 238h22v8l-8 6zM885 260h16v16zM893 1036l8 23q36 -16 39 -31zM948 1020l72 -31h14 q0 24 -78 39h-8v-8zM954 1083l9 -8l16 15h-25v-7zM979 1171l12 -14v14h-12zM991 1126l17 -14v23h-9zM1028 993l16 -14l15 14v8l-6 9l-25 -9v-8zM1053 840h6v14h-6v-14zM1067 750h6v16h-6v-16zM1073 1053h8l15 14v8h-6l-17 -14v-8zM1081 758h15v8h-15v-8zM1096 1180h14v14z M1161 332h31l-16 14h-15v-14zM1169 831h9v23h-9v-23zM1237 98h29v23l-29 -8v-15zM1251 446l9 23l-9 6l9 8h14l6 -53l-6 -6h-8q-15 0 -15 22zM1294 238q0 -16 62 -25h8v8zM1372 205l70 -15h24v15l-39 8h-55v-8zM1622 637v16h25v-8l-17 -16zM1622 659v9h33v-9h-33zM1630 510 l17 16v-16h-17zM1638 449h9l-9 8v6l17 16h8q47 -30 47 -61h-63zM1663 535v16h14v-16h-14zM1702 668v8h14v-8h-14zM1710 449h6l8 -9h9l-17 31l17 47l-9 25h9q0 22 -23 22l6 8v9l33 -17l-8 -8v-6l16 -41l-16 -14h16l6 -119l-6 -6h-8q-6 39 -25 39l-8 -9zM1716 362l8 9h9v-33 h-9zM1772 612v17h16zM1780 418v14l16 -14h-16zM1788 449l22 22h9l-23 86l8 33v39l39 8v-39h-16v-16l8 -31l-8 -8v-8l8 -9v-8l-8 -31h8l-8 -8v-8l8 -22h-16v-17q24 0 24 -14l-47 -17v9l8 8zM1804 645v23l15 16h8l16 -31l-16 -16zM1819 393v8l24 9v-17h-24zM1835 -289h8 l15 -16v-6h-23v22zM1835 526v9h16v-9h-16zM1843 598q22 0 31 47h8v-16l-8 -23l31 -8q-9 -33 -23 -33h-16zM1866 307l8 25h16q0 -33 15 -33v-31h-15q-16 0 -16 39h-8zM1913 315v17h8v-17h-8z" />
</font>
</defs>
</svg>
