<?xml version="1.0" standalone="no"?>
<!DOCTYPE svg PUBLIC "-//W3C//DTD SVG 1.1//EN" "http://www.w3.org/Graphics/SVG/1.1/DTD/svg11.dtd" >
<svg xmlns="http://www.w3.org/2000/svg">
<metadata></metadata>
<defs>
<font id="handwritten_wheelieregular" horiz-adv-x="1337" >
<font-face units-per-em="2048" ascent="1638" descent="-410" />
<missing-glyph horiz-adv-x="933" />
<glyph horiz-adv-x="2048" />
<glyph horiz-adv-x="2048" />
<glyph unicode="&#xd;" horiz-adv-x="550" />
<glyph unicode=" "  horiz-adv-x="933" />
<glyph unicode="&#x09;" horiz-adv-x="933" />
<glyph unicode="&#xa0;" horiz-adv-x="933" />
<glyph unicode="!" horiz-adv-x="730" d="M198 23v24q0 127 140 186h70l47 -163v-70q-38 -93 -164 -93zM198 746l93 840v70q0 36 94 93q139 -34 139 -187v-140q0 -62 -69 -699v-94q-55 -101 -117 -116q-117 0 -140 233z" />
<glyph unicode="&#x22;" horiz-adv-x="1013" d="M284 1189v397q29 233 93 233q164 0 164 -187v-70q0 -151 23 -466q-57 -47 -93 -47q-123 47 -187 140zM680 1446q0 303 117 303q140 -48 140 -187v-140q0 -23 -23 -23l23 -47q0 -29 -70 -186q-187 0 -187 280z" />
<glyph unicode="#" horiz-adv-x="1546" d="M36 396l70 140h303q61 0 93 187v23q-58 -23 -349 -70q-117 33 -117 163q0 187 443 187q187 0 187 210q69 93 93 93h47q69 -18 116 -163q-23 -45 -23 -70h116q56 0 164 280h46q70 0 117 -187q-23 -45 -23 -70q116 0 186 -116v-24q0 -140 -210 -140q-107 0 -163 -256h23 q53 0 94 23q116 -30 116 -70v-46q-19 -88 -373 -234q-82 -140 -117 -140h-46q-64 0 -70 117h-163q-38 -163 -117 -163q-140 54 -140 163h-186q-56 14 -117 163zM736 560h93q0 40 93 233h-70q-70 0 -116 -233z" />
<glyph unicode="$" horiz-adv-x="1402" d="M42 326v47h70l163 -23q70 140 117 489q-235 70 -327 187q0 252 350 303q114 0 233 396l47 24h70q35 0 70 -93q-47 -197 -47 -280q62 0 163 303h70q94 -32 94 -210q0 -23 -24 -23q0 -24 24 -24l-24 -116v-24q94 -124 94 -209v-24q0 -33 -70 -70h-24l-46 24v-164 q131 -93 186 -93q70 -217 70 -303q0 -123 -443 -303q0 -69 -93 -117h-23q-79 0 -210 117q-24 0 -24 -24q0 -233 -186 -233l-70 94q0 23 23 23q-1 127 -233 326zM578 396h24q62 0 116 350h-23q-39 0 -117 -326v-24zM951 466q46 24 70 24v70q0 46 -46 46l-24 -116v-24z" />
<glyph unicode="%" horiz-adv-x="1990" d="M26 1003v46q0 285 536 513q25 0 70 24q77 -47 140 -47q53 0 93 23q46 -23 70 -23q210 47 304 47q233 -22 233 -280q0 -443 -723 -1259l-47 -24q-116 33 -116 163q0 109 513 747q140 289 140 373q-47 0 -47 23q-88 0 -303 -233q-536 -210 -746 -210q-62 15 -117 117z M446 1212h23q140 24 140 70l-47 24q-106 -45 -116 -94zM1215 186v187q0 146 280 420h163q303 0 303 -257v-23q-240 -420 -559 -420q0 -23 -24 -23q-145 47 -163 116zM1472 373q160 65 210 163v24h-47q-122 -82 -163 -187z" />
<glyph unicode="&#x26;" horiz-adv-x="1108" d="M7 629q28 72 280 374q-47 0 -47 46v24q0 23 24 23l-24 46q232 374 676 374h24q0 17 -24 140q101 256 187 256q93 -23 93 -163q-116 -198 -116 -233h23q163 -53 163 -210q-46 0 -46 -70q-64 0 -140 46l-303 -46v-24q46 0 93 -116v-23q-29 -88 -420 -304 q-140 -113 -140 -140v-23q490 -91 490 -163l-47 -163h-186q-305 -420 -327 -420h-46q-47 0 -47 47v116q0 48 117 327h-24q-153 0 -233 279z" />
<glyph unicode="'" horiz-adv-x="740" d="M280 1166q47 225 47 629v24q0 125 93 163h47q31 0 116 -117v-256q-29 -606 -116 -606q-129 0 -187 163z" />
<glyph unicode="(" horiz-adv-x="939" d="M138 536q0 618 466 1003h47q93 -38 93 -163v-47q-349 -389 -349 -769q0 -292 396 -467l23 -116v-24l-23 -46q-653 127 -653 629z" />
<glyph unicode=")" horiz-adv-x="983" d="M70 1282v70q15 140 70 140h93q560 -526 560 -956q0 -296 -327 -583h-163l-23 117v46q233 239 233 444q0 282 -420 722h-23z" />
<glyph unicode="*" horiz-adv-x="1416" d="M-38 629v70q0 126 117 140l46 -23q45 23 70 23v-23q257 23 257 70q-117 256 -117 326v70q0 34 70 70h70q93 0 233 -396h47q0 81 140 373h23q140 0 140 -140v-47q0 -58 -47 -209h24q303 -24 303 -117v-117q-443 -55 -443 -116q116 -347 116 -420l-70 -47h-70 q-27 0 -163 140q-128 -186 -233 -186l-93 140q0 51 140 350h-24l-326 -47v23l-47 -23q-145 47 -163 116z" />
<glyph unicode="+" horiz-adv-x="1151" d="M-19 653v93q0 99 490 187v163q0 326 93 326h70q35 0 117 -140v-279h23q201 0 326 -94q0 -210 -396 -210q-47 -354 -140 -559h-47q-108 0 -163 93l70 373h-23q-99 0 -257 -70q-145 47 -163 117z" />
<glyph unicode="," horiz-adv-x="693" d="M-24 -373q218 511 257 536h93q93 -38 93 -163q-225 -536 -420 -536l-23 46v24q0 23 23 23l-23 46v24z" />
<glyph unicode="-" d="M108 606v47q0 33 70 70q57 0 396 -47l47 23q23 0 23 -23l117 23h186q140 -14 140 -70v-93q0 -93 -629 -116q-350 0 -350 186z" />
<glyph unicode="." horiz-adv-x="663" d="M70 -117q0 187 163 187q94 0 140 -93v-117q-1 -32 -116 -93h-70q-32 0 -117 116z" />
<glyph unicode="/" horiz-adv-x="1200" d="M-29 47q0 174 606 792l303 420q77 257 164 257q79 -19 140 -140q-8 -287 -747 -1096q-257 -350 -303 -350q-126 0 -163 117z" />
<glyph unicode="0" horiz-adv-x="1570" d="M157 350v46q0 273 280 770q0 83 280 280h163q52 0 93 23q202 -50 350 -280q90 -152 140 -490q0 -303 -420 -559q-367 -163 -560 -163q-279 0 -326 373zM390 303q24 -70 140 -70q700 186 700 490q0 489 -280 489h-93q-467 -441 -467 -886v-23z" />
<glyph unicode="1" horiz-adv-x="1095" d="M-27 70v93q0 93 396 140q234 603 234 863h-24q-288 -280 -373 -280h-23q-52 0 -93 187q629 556 629 583q93 134 93 163h94q58 -70 93 -70v-24q0 -80 -303 -1352h23l163 47q41 -24 94 -24v-163q-37 -79 -373 -210q-46 -106 -94 -116h-70l-93 70h-280q-36 0 -93 93z" />
<glyph unicode="2" horiz-adv-x="1232" d="M95 1212q0 327 746 490q201 0 233 -326q0 -309 -419 -933l419 93h24q36 0 93 -93v-70q0 -163 -303 -163q-163 -94 -653 -140l-93 93v117q653 754 653 1072v47h-24q-148 0 -536 -303h-47q-32 1 -93 116z" />
<glyph unicode="3" horiz-adv-x="1449" d="M108 490v139h93q0 -194 280 -233h210q312 0 420 187v116q-202 327 -560 327l-70 93v93q67 117 140 117v23h-70q-117 -13 -256 -140h-94q0 79 -70 187q0 150 560 280q23 0 23 -23l117 23q350 0 350 -163v-24q-70 -132 -210 -280q420 -338 420 -629q0 -334 -560 -467h-257 q-343 0 -466 374z" />
<glyph unicode="4" horiz-adv-x="1037" d="M34 863q0 85 396 583q131 266 234 349h70q32 0 139 -163l-23 -116v-443q70 -86 70 -164v-46q-93 0 -163 -490l23 -47q-27 -256 -140 -256q-105 38 -163 140q47 414 47 489h-303q-187 0 -187 164z" />
<glyph unicode="5" horiz-adv-x="1501" d="M18 909q0 320 700 630q285 70 629 93v-23q23 0 23 23q164 -23 164 -70q0 -173 -303 -210q-239 0 -677 -210v-23q816 -114 816 -466v-47q0 -320 -652 -420q-345 0 -467 280v117h70q0 -83 257 -140q351 0 559 210q-201 186 -606 186q-36 0 -373 -23q0 47 -140 93z" />
<glyph unicode="6" horiz-adv-x="1350" d="M138 350q23 320 560 909q70 117 163 117q62 -16 116 -117v-93q-178 -156 -443 -537v-23l234 47q384 0 513 -350v-70q0 -242 -747 -350q-370 0 -396 467zM395 186l116 -23q536 52 536 163l-163 47h-70q-419 -38 -419 -140v-47z" />
<glyph unicode="7" horiz-adv-x="1149" d="M-38 1376q0 23 23 23l-23 47v23q38 93 163 93h210q262 0 676 24q117 -33 117 -164q0 -235 -490 -1212q-43 -85 -140 -117q-79 19 -140 140q36 124 443 979v70h-116q-53 0 -93 -23q-24 0 -24 23l-280 -23h-139q-127 0 -187 117z" />
<glyph unicode="8" horiz-adv-x="1509" d="M154 303v140q0 192 303 420v23q-70 23 -70 140v47q0 282 350 489q70 0 70 -23l117 23q325 0 373 -326v-117q-175 -233 -257 -233v-23q420 0 420 -443q-170 -350 -490 -350q-170 -93 -303 -93h-163q-350 102 -350 326zM387 326q24 -70 140 -70h163q537 111 537 234v23 q-54 116 -210 116q-21 0 -187 -23q0 70 -140 70q-189 0 -303 -303v-47zM620 1073h47q285 0 420 163v23q0 35 -94 70q-276 0 -373 -256z" />
<glyph unicode="9" horiz-adv-x="1206" d="M102 956v70q0 229 513 513q39 23 117 23h23q265 0 326 -466q70 0 70 -93q-218 -611 -443 -700q-254 -238 -489 -280h-70l-24 163v24q409 245 537 350q116 123 186 256h-23q-328 -70 -420 -70h-23q-280 0 -280 210zM382 1049q23 0 23 -23q490 60 490 116q0 126 -93 164 h-24q-182 0 -396 -257z" />
<glyph unicode=":" horiz-adv-x="660" d="M152 1003v70q0 33 70 69h70q140 -91 140 -163q-45 -106 -93 -116h-117q-70 23 -70 140zM222 256v140q36 0 93 47h70q70 0 93 -210l-93 -70h-70q-36 0 -93 93z" />
<glyph unicode=";" horiz-adv-x="722" d="M93 -93q122 0 187 163q-70 210 -70 280q0 140 140 140h23q163 -226 163 -350v-70q-64 -350 -326 -350h-24q-32 2 -93 117v70zM140 1003q60 149 116 163q111 0 187 -140v-70q0 -34 -70 -70h-187q0 58 -46 117z" />
<glyph unicode="&#x3c;" horiz-adv-x="1039" d="M-104 629q42 141 956 700q70 -15 117 -140q0 -163 -630 -513v-23q76 -111 466 -257q0 -58 47 -116q-47 -140 -93 -140h-47q-212 63 -606 280q-210 56 -210 209z" />
<glyph unicode="=" horiz-adv-x="1369" d="M104 536q0 163 630 163h209q24 0 24 -23l46 23q34 0 70 -70v-69q0 -117 -792 -187q0 -23 -24 -23q-122 0 -163 186zM127 956v47q35 0 94 70h513q188 0 443 23q93 0 140 -117q0 -186 -443 -186h-327l-47 -24q-40 24 -93 24h-46q-53 0 -94 -24q-140 35 -140 187z" />
<glyph unicode="&#x3e;" horiz-adv-x="1130" d="M43 1352q29 187 140 187q29 0 186 -163q394 -231 700 -537h23v-116q0 -117 -303 -303q0 -87 -583 -304q-84 44 -116 140q0 159 373 257q278 192 280 233v23q-106 116 -350 257q-235 131 -350 326z" />
<glyph unicode="?" horiz-adv-x="921" d="M-121 1492h23l-23 47v47q0 76 303 93h140q602 0 676 -233v-24q0 -150 -536 -676v-233h-93q-164 79 -164 326q0 78 467 513l23 47q-14 0 -303 23q-395 -46 -466 -46q-47 75 -47 116zM182 -70q0 163 187 163l93 -163q-36 -140 -163 -140q-117 67 -117 140z" />
<glyph unicode="@" horiz-adv-x="1626" d="M82 676q0 480 513 793q233 57 233 70q723 0 723 -700q-133 -370 -373 -466h-23q-23 0 -164 117l-233 -70h-46q-210 0 -234 256v23q0 285 374 420h69q250 0 280 -396q140 103 140 303v70q-140 186 -373 186q-443 0 -629 -466q0 -187 -47 -187l23 -46v-163q0 -187 327 -257 q81 0 419 117l94 -24v-23q0 -227 -397 -326q-653 57 -653 583q0 58 -23 186zM688 676h24q153 0 256 140v70q-280 -71 -280 -210z" />
<glyph unicode="A" horiz-adv-x="1362" d="M-229 -443q713 969 979 1772q107 253 140 257h94q123 0 163 -677q0 -23 -24 -23l24 -117v-536q0 -1096 -93 -1096q-187 23 -187 163q0 119 23 747q-461 -117 -559 -117q-350 -513 -350 -560h-93q-117 60 -117 187zM541 256h46q191 0 327 70l-24 117v490h-46 q-125 -335 -303 -677z" />
<glyph unicode="B" horiz-adv-x="2050" d="M17 1189v23q69 140 513 164h47q821 0 1026 -373q0 -25 23 -70q-5 -122 -117 -257v-47q420 -264 420 -559v-93q0 -398 -863 -467h-116q-502 0 -816 560v93q116 23 116 47q47 542 47 676v93l23 47l-46 23l-94 -46q-140 0 -163 186zM507 -70q135 -163 466 -163 q700 62 700 280q0 351 -443 419h-164q-116 55 -116 117q0 163 350 280l46 70v23q0 75 -420 163q-23 0 -23 -23l-116 23h-234q0 -312 -46 -886l46 -163q-46 -77 -46 -140z" />
<glyph unicode="C" horiz-adv-x="1716" d="M48 186v117q0 520 630 1189l163 47h46q301 0 374 -420q-24 -45 -24 -70h-23q-13 0 -187 233h-93q-310 0 -629 -909v-93q0 -182 559 -210l840 70v-140q0 -165 -817 -210v23l-46 -23q-685 51 -793 396z" />
<glyph unicode="D" horiz-adv-x="2045" d="M9 1212q54 39 373 94q604 0 1306 -583q233 -338 233 -490h-23l23 -47q-99 -299 -326 -419q-212 -94 -560 -117q-769 78 -769 187q-24 38 -24 116v24l47 70v69q0 274 116 887q-118 0 -279 -47q-117 59 -117 256zM545 210q25 0 70 -24l-23 -116v-23q0 -94 443 -94 q23 0 23 -23q607 54 607 373v23q-104 320 -700 583q-247 70 -303 70q-23 -66 -117 -769z" />
<glyph unicode="E" horiz-adv-x="1456" d="M63 -280q0 474 233 1376q280 256 840 256q187 0 419 -46v-94q0 -53 -839 -186q-257 -93 -257 -327q-23 -128 -23 -186l47 -23h23q160 0 513 116q47 -76 47 -140v-70q-288 -186 -560 -186h-140q0 -14 -23 -303h23q532 163 583 163h93q127 0 187 -117q0 -186 -373 -186 q-554 -233 -653 -233q-140 75 -140 186z" />
<glyph unicode="F" horiz-adv-x="1387" d="M74 1049v117q0 162 1096 280h70q256 -47 256 -234q-46 0 -46 -70h-24l-69 47h-47q-758 -54 -770 -186q0 -120 -46 -280v-47h350q23 0 23 -23q45 23 70 23q140 -55 140 -93q0 -187 -443 -187q-210 0 -210 -140v-140q0 -77 23 -116q-23 -288 -93 -397h-23q-147 0 -187 234 l23 46q0 47 -23 47l47 466q-47 0 -47 47v117q140 128 140 396v23l-47 -23q-125 0 -163 93z" />
<glyph unicode="G" horiz-adv-x="1429" d="M31 140v140q0 445 816 956l233 23q152 0 210 -140v-46q0 -140 -140 -140q0 35 -93 70q-271 -27 -653 -443q-116 -233 -140 -327q0 -133 257 -163q218 0 373 233q-257 0 -257 93v140q0 47 187 70q420 0 420 -420q-133 -652 -304 -652l-139 93q0 86 93 326 q-181 -140 -420 -140q-275 0 -443 327z" />
<glyph unicode="H" horiz-adv-x="1445" d="M65 -117q47 349 47 583q49 0 163 676q45 24 70 24q93 0 140 -187q-47 -441 -47 -466h23q513 82 513 256q170 613 210 630q117 -32 117 -163q-153 -1446 -210 -1446h-23q-187 23 -187 187l23 373h-23q-248 -117 -513 -140q-36 -537 -140 -537h-23q-70 6 -140 210z" />
<glyph unicode="I" horiz-adv-x="1650" d="M-67 -70q47 70 606 117l117 489l70 420q-71 0 -163 23q-111 -41 -280 -70q-107 45 -117 94v70q0 163 280 163q245 23 653 23q606 -26 606 -233v-23q-23 -41 -23 -94h-70l-210 94l-47 -24l-139 24q-123 -24 -234 -24h-46v-163q0 -401 -140 -676v-70l116 -23q47 0 47 23 q346 -23 490 -70v-23q0 -164 -303 -164q-513 -41 -513 -140h-47q-37 0 -93 94q-186 -47 -443 -47q-87 0 -117 210z" />
<glyph unicode="J" horiz-adv-x="1690" d="M-72 839q0 234 210 234q373 86 373 116h23q615 23 1026 23q117 0 117 -139q0 -100 -606 -164q-24 0 -24 -23q260 -201 373 -723v-116q-124 -444 -513 -444q0 37 -209 94q-155 90 -257 280v46h47q185 -140 466 -140q143 0 210 187q0 490 -513 816h-23q-280 -47 -607 -140 q-76 93 -93 93z" />
<glyph unicode="K" horiz-adv-x="1464" d="M110 1142q45 107 93 117h47q145 0 163 -466h-23l23 -47v-420h23q0 47 327 397q242 289 420 816l46 23h47q84 -43 117 -140q-73 -460 -537 -1002q-238 -248 -280 -327q67 -46 700 -140v-23q45 23 70 23q62 -15 116 -116v-94q-23 -70 -139 -70h-94q-23 0 -23 24 q-23 0 -23 -24l-770 140q0 -23 23 -23q0 -303 -186 -303h-23q-37 0 -94 93v956q0 53 24 93q-24 24 -47 513z" />
<glyph unicode="L" horiz-adv-x="1384" d="M113 -257q0 585 117 1423q-24 41 -24 93l47 23q186 0 186 -209v-187q0 -583 -46 -583q0 -23 23 -23l-23 -117v-140h23q816 101 816 163h24q59 0 116 -186q0 -163 -513 -187q-147 -46 -606 -140q-108 70 -140 70z" />
<glyph unicode="M" horiz-adv-x="1816" d="M31 -280q70 530 303 1376h93l47 -23q35 93 70 93h70q117 -60 117 -187v-350l23 -116q238 192 606 793h140q93 -155 93 -210v-93q0 -164 24 -513h-24l24 -47v-443q0 -53 23 -93l-23 -47q23 -45 23 -70q0 -163 -187 -163q-48 93 -116 93v653q0 122 23 396h-23l-490 -583 q-121 -116 -163 -116q-99 0 -140 210h-23q-233 -723 -303 -723h-94q-93 38 -93 163z" />
<glyph unicode="N" horiz-adv-x="1458" d="M37 0q0 73 210 839q-47 0 -47 47v163q0 32 140 70q0 117 93 117q89 -21 140 -163q-16 -164 -46 -164q51 -182 419 -513q0 76 117 956h93q70 0 117 -233q-47 -807 -70 -816l47 -93q-83 -397 -210 -397h-47q-35 0 -117 140l24 140q-30 0 -443 443h-24q-154 -676 -233 -676 h-116q0 36 -47 93v47z" />
<glyph unicode="O" horiz-adv-x="1868" d="M46 116q0 670 793 1260h70q606 -97 606 -234q257 -339 257 -559q0 -470 -1260 -840q-466 47 -466 373zM279 93l70 -46h187q1002 283 1002 582v24q-89 420 -373 420q-427 0 -629 -350q-257 -295 -257 -630z" />
<glyph unicode="P" horiz-adv-x="1458" d="M74 1166v70q6 233 560 233h46q600 0 723 -606v-24q0 -464 -886 -536q0 23 -23 23v-233q0 -52 23 -93q-109 -397 -233 -397q-140 0 -140 327q29 630 70 630q0 23 -23 23l70 443h139l47 -163v-280h23q611 0 700 326q-157 303 -490 303q-202 0 -489 -139q-107 45 -117 93z " />
<glyph unicode="Q" horiz-adv-x="1679" d="M25 233v117q0 253 630 1002q109 117 349 117q388 0 537 -746q23 -91 23 -187q0 -210 -443 -513h-23v-23l116 -163q-45 -107 -93 -117h-70l-210 163h-23l-397 -70q-373 112 -373 327q-23 0 -23 93zM258 256q0 -163 210 -163l233 47v23l-70 93v94q0 23 24 23l-24 47v70 q0 36 94 93q116 0 209 -350h24q373 173 373 490q-80 489 -327 489h-70q0 -167 -209 -209q-467 -448 -467 -747z" />
<glyph unicode="R" horiz-adv-x="1574" d="M77 1142q0 210 560 304h116q471 0 653 -513v-117q0 -389 -699 -606v-24q886 -224 886 -373v-70q-47 0 -47 -70h-140q-315 140 -956 280q-55 -373 -140 -373q-31 0 -116 117v233q0 128 -24 326q24 140 47 140l-23 47v93q0 108 -47 373q23 41 23 94q-93 23 -93 139z M310 1026q117 -228 117 -583h46q700 145 700 443v70q-184 233 -373 233q-490 -57 -490 -163z" />
<glyph unicode="S" horiz-adv-x="1614" d="M-44 746q0 426 956 513q373 -41 373 -163v-70l-23 -117l-280 94q-769 -117 -769 -234q3 -68 909 -326l350 -233q46 -86 46 -187v-70q-92 -249 -676 -303h-326q-303 0 -303 117q0 23 -47 23v93l23 47l163 -23q783 46 910 116v47q-3 59 -280 140q-362 163 -816 256 q-210 150 -210 280z" />
<glyph unicode="T" horiz-adv-x="1798" d="M-24 1003q23 186 117 186q123 0 209 -23l1073 46q85 -23 257 -23q52 0 93 23q163 -45 163 -209q0 -94 -863 -94q-163 -7 -163 -46q0 -617 -233 -1213l-70 -47h-47q-33 0 -70 70v140q210 767 210 980q-23 41 -23 93l-327 -23q-326 0 -326 140z" />
<glyph unicode="U" horiz-adv-x="1724" d="M82 280q70 564 187 1026h139q12 -94 70 -94q-139 -620 -139 -862v-210h23q605 621 816 1142q0 94 93 140h70q93 -38 93 -163v-163q0 -269 140 -1189v-24q-56 -46 -93 -46q-186 16 -186 256h23q-117 544 -117 653l-489 -653q-293 -350 -467 -350q-111 34 -163 537z" />
<glyph unicode="V" horiz-adv-x="1427" d="M61 1189q30 117 70 117h70q135 0 233 -910q33 0 70 -210h23q273 225 630 1236l47 24h93q93 -38 93 -164q-358 -1033 -769 -1422q-83 -92 -117 -93q-242 0 -326 839z" />
<glyph unicode="W" horiz-adv-x="1909" d="M106 1049l23 47l-23 46q23 41 23 94h117q140 0 140 -630v-303q48 0 350 560h116q99 0 187 -560q243 217 350 490q124 111 233 536q23 0 46 70q210 0 210 -163q-167 -651 -816 -1329h-23q-159 0 -210 303q-31 0 -47 163q-43 -3 -210 -326l-233 -234h-70q-93 0 -140 303 v304q0 23 24 23l-24 47l24 46q-24 45 -24 70h24l-24 47q0 23 24 23l-24 47v116q0 84 -23 210z" />
<glyph unicode="X" horiz-adv-x="1397" d="M16 70q288 296 443 536q-373 534 -373 676v24l47 23h93q55 -16 420 -536q142 132 536 699q140 0 140 -163q0 -119 -513 -793q251 -326 350 -326q93 -216 93 -257v-23q0 -37 -93 -93h-24q-36 0 -513 513q-424 -513 -489 -513q-117 0 -117 233z" />
<glyph unicode="Y" horiz-adv-x="1438" d="M-49 1446q15 140 70 140q131 0 210 -234q216 -313 420 -443h116q559 545 583 677h117q70 -15 70 -187q-86 -184 -653 -746v-350q-84 -443 -163 -443h-70q0 43 -47 187q23 238 23 373v116q0 136 -303 303q-373 405 -373 607z" />
<glyph unicode="Z" horiz-adv-x="1733" d="M-186 1399v117q0 93 420 93q1049 0 1049 -163v-140q0 -106 -186 -397v-23h46q172 0 187 -70q0 -210 -443 -210q-76 -57 -280 -373q581 47 956 163q106 -45 116 -93v-47q-28 -209 -373 -209q-358 -86 -839 -117v23l-47 -23q-186 0 -186 140v46q0 93 280 467q-24 70 -47 70 q0 210 210 210q126 0 326 443h-23q-160 23 -257 23h-443q-209 0 -396 -47q0 40 -70 117z" />
<glyph unicode="[" horiz-adv-x="1003" d="M60 47q117 745 117 839q0 78 -24 396q0 130 630 187q106 -45 116 -93v-24q0 -147 -279 -186q-97 0 -187 -24v-303q0 -114 -70 -629v-24l490 70q45 -23 70 -23v-163q0 -31 -117 -117h-163l-326 -70v24l-47 -24q-210 24 -210 164z" />
<glyph unicode="\" horiz-adv-x="1376" d="M60 1166v46q0 164 140 164q47 -1 233 -234q235 -251 816 -769l47 -280q-77 -46 -140 -46h-23q-305 342 -1073 1119z" />
<glyph unicode="]" horiz-adv-x="1143" d="M60 1212q0 113 466 140q467 0 467 -140q23 0 23 -23v-350q0 -52 -23 -93q0 -23 23 -23l-23 -94q0 -480 70 -676q-47 -76 -47 -116q-386 -24 -583 -24h-93q-110 52 -163 164q46 75 46 116h47q52 0 93 -23q23 0 23 23l164 -23h163l47 23q-24 233 -24 350v233l24 140 q-24 41 -24 93h24q-24 45 -24 70v70q-41 24 -93 24h-117l-140 -24l-46 24q-77 -47 -140 -47h-23q-117 60 -117 186z" />
<glyph unicode="^" horiz-adv-x="11100" d="M60 1399q0 158 1329 420l1096 70v-24q23 0 23 24q537 0 537 -257v-23q-27 0 -257 47h-116q-1143 -27 -1143 -140q0 -47 -23 -47q0 -23 23 -23q-93 -722 -280 -1260h-46q-140 63 -140 94v163q210 603 256 1096h-23q-104 0 -1073 -303q-163 57 -163 163zM1856 979v24 q0 142 792 303h350q986 -150 1236 -443q149 -172 163 -327q0 -234 -419 -326q-87 -24 -210 -24h-94q-443 0 -443 210q57 47 94 47v443q7 47 46 47h47q140 -191 140 -513h46q428 0 583 186q0 163 -746 373q-20 0 -186 24l-164 -47q-139 42 -139 140h-140q-616 -109 -723 -257 v-23h23q125 0 373 70v-23q117 70 187 70h23l47 -210q-426 -163 -607 -187v-70q0 -38 140 -93q149 23 537 140q46 -77 46 -140v-47q-82 -105 -489 -186h-47q-397 70 -397 396v47q24 132 24 233q-93 38 -93 163zM5820 653v93q140 141 140 233v70q0 226 -94 583q24 93 94 93 q146 0 233 -629q816 705 816 909h47q116 -29 116 -233q-60 -184 -443 -560q-201 -201 -513 -466l-23 -47l629 -116l47 -163q0 -94 -47 -94q-315 47 -699 47q-30 -280 -93 -280q-127 47 -164 117q24 198 24 303q-70 23 -70 140zM7172 909v24q0 279 93 279q117 -102 117 -163 q0 -58 -23 -186q0 -164 93 -164q126 0 280 327q-37 0 -93 93q64 140 186 140q140 -80 140 -256q-34 -265 -326 -537q-37 0 -94 -46h-70q-265 0 -303 489zM8128 536v24l24 116q274 -23 396 -23h93v46q-419 181 -419 350v70q0 117 513 257h139l70 -210q-346 -117 -396 -117 v-23q373 -234 373 -443v-23q0 -145 -466 -164q-195 0 -327 140zM9224 606q100 583 257 583q93 -23 93 -140l-187 -606q-163 0 -163 163zM9994 1003v23q76 373 629 373h117q174 0 280 -396q0 -411 -373 -583l-234 -70h-46q-261 0 -350 396q23 49 47 257h-70zM10250 676 q0 -33 70 -70h24q489 81 489 397v23q0 140 -140 140q-373 0 -373 -187q-70 -119 -70 -233v-70z" />
<glyph unicode="_" horiz-adv-x="2262" d="M60 -233q0 163 280 163h116q77 0 1003 47h47q97 0 256 -24q93 24 163 70h140q60 0 117 -186q0 -117 -373 -140l-327 23q-550 -47 -606 -70q-41 23 -93 23q-82 -23 -93 -23q-24 0 -24 23l-513 -46q-41 23 -93 23v117z" />
<glyph unicode="`" horiz-adv-x="601" d="M60 1363q0 31 20.5 51t53.5 20q20 0 40.5 -12t55.5 -47l291 -296h-69l-330 202q-31 20 -46.5 40t-15.5 42z" />
<glyph unicode="a" horiz-adv-x="1288" d="M-54 -117q396 836 396 863q245 668 327 770q116 31 116 116h94q133 0 186 -863q17 0 70 -792q-39 -117 -116 -117q-137 0 -164 466q24 0 24 24h-47q-326 -85 -326 -117h-47l-47 23q-123 -428 -303 -583q-163 0 -163 210zM529 536h23q133 0 280 47l-47 629h-23 q-23 -118 -233 -676z" />
<glyph unicode="b" horiz-adv-x="1624" d="M75 1119v47q0 233 536 233q637 0 723 -396v-24q0 -147 -233 -373q420 -203 420 -466q23 0 23 -24q-133 -373 -746 -373q-111 0 -233 -23q-467 71 -467 280v140q123 -93 164 -93v23q-24 41 -24 93v93q94 566 94 723v70h-24l-116 -23zM448 0h23q793 39 793 163v23 q0 110 -559 280q-94 0 -94 140v47q0 44 420 256q0 41 47 117q-141 93 -397 93h-93v-93q0 -159 -140 -1026z" />
<glyph unicode="c" horiz-adv-x="1823" d="M80 326v94q0 504 630 979q83 0 209 23q280 -102 280 -210q-23 -45 -23 -70h-23q-97 0 -257 24q-243 0 -559 -606l-24 -234q77 -186 303 -186h257q330 0 909 210h24q0 -25 23 -70q0 -243 -490 -327q-300 -93 -513 -93h-186q-560 108 -560 466z" />
<glyph unicode="d" horiz-adv-x="1637" d="M50 1446q45 106 93 116q503 0 1096 -350q350 -314 350 -559q0 -238 -466 -467q-289 -93 -537 -93q-40 0 -140 47q0 -53 -93 -93h-23q-88 21 -140 163q47 583 117 932v117h-70q-187 23 -187 187zM470 560q23 -91 23 -187h93q747 76 747 350q-139 277 -467 396l-233 70h-70 q-93 -530 -93 -629z" />
<glyph unicode="e" horiz-adv-x="1446" d="M102 93v140q210 945 210 1049l-23 47q0 140 536 140q398 70 723 70h163q23 0 23 -23l47 23q93 -47 93 -70q0 -129 -583 -187q-746 -116 -746 -163q0 -98 -47 -233q46 -23 70 -23q373 93 443 93l24 -47v-140q-16 -66 -607 -233l-69 -326v-24h23l723 280q116 0 116 -163 q0 -93 -606 -326q0 -49 -326 -117q-187 89 -187 233z" />
<glyph unicode="f" horiz-adv-x="1297" d="M111 93v23q102 1003 187 1003q45 23 70 23l-24 47q59 172 816 210q257 -70 257 -163q0 -121 -70 -140q-163 0 -163 46q-41 -23 -210 -46v23q-16 0 -373 -93v-70l-24 -280q53 23 304 47q209 -58 209 -117q0 -135 -419 -186q-170 0 -350 -467l-47 -23h-46q-117 47 -117 163 z" />
<glyph unicode="g" horiz-adv-x="1344" d="M30 420v140q0 462 793 816h140q156 0 256 -234q-23 -93 -140 -93q-23 70 -140 70q-260 -22 -559 -350q-108 -123 -140 -303q58 -140 210 -140h210q303 47 303 140v24q-443 32 -443 116v117q0 33 70 70h279q350 0 350 -373q0 -147 -303 -700v-47h-70q-36 0 -93 94v186 l23 117q-629 0 -629 163q-117 18 -117 187z" />
<glyph unicode="h" horiz-adv-x="1358" d="M63 70v46q117 514 303 1143l47 23h70q25 0 93 -116l-93 -443h70q116 0 373 163q0 211 93 350l-23 46q56 199 116 210q117 -39 117 -116q-129 -1376 -187 -1376l-46 -23h-47q-102 0 -116 396l23 163h-23q-208 -116 -350 -116h-94q-108 -443 -186 -443h-47q-36 0 -93 93z " />
<glyph unicode="i" horiz-adv-x="1478" d="M-15 140v116q0 37 93 94h397q78 0 186 746l-46 23h-117l-140 -23q-93 23 -93 140q0 23 23 23l-23 47q0 116 466 116q220 24 606 24q280 -94 280 -210q-23 -94 -93 -94q-76 47 -140 47h-256q-59 0 -210 -47v24q-45 -24 -70 -24v-23q0 -96 23 -186q-28 -231 -93 -537h23 q222 0 373 70q94 -35 94 -70q0 -214 -397 -280q-210 0 -210 -163q-76 -46 -140 -46q-70 77 -70 140h-373q-36 0 -93 93z" />
<glyph unicode="j" horiz-adv-x="1445" d="M-38 1329q0 84 443 140q8 60 536 93h490q37 0 93 -93v-23q-81 -140 -233 -140l-46 23q-217 -47 -537 -70v-47q74 0 373 -419q187 -286 187 -467q-121 -349 -443 -349h-70q-305 0 -443 256v70l233 -70h210q181 0 233 117v23q0 241 -513 769v47q-133 0 -163 23 q-126 -23 -210 -23h-70q-47 0 -70 140z" />
<glyph unicode="k" horiz-adv-x="1283" d="M123 140q93 273 93 559v187q0 32 -46 373v47q7 46 46 46h47q140 0 210 -676h23q0 43 420 630q140 278 140 303q163 -32 163 -93v-70q0 -219 -536 -956q513 -85 513 -280q0 -117 -94 -117q-326 93 -676 140q-83 -296 -140 -303h-70q-70 0 -93 210z" />
<glyph unicode="l" horiz-adv-x="1069" d="M97 -23q140 609 210 1352l47 23q163 -46 163 -186q0 -226 -94 -933h24q186 47 303 47q326 0 326 -257v-46q-35 0 -373 23q-120 0 -419 -163q-122 0 -187 116v24z" />
<glyph unicode="m" horiz-adv-x="1617" d="M72 140q163 565 257 1119q46 0 46 70h23q64 0 140 -47q0 140 70 140h70q70 0 117 -210v-349q7 -47 47 -47q416 517 466 536h70q46 0 93 -163q-93 -1306 -140 -1306l-116 -23h-24q-38 0 -93 140l93 793h-46q0 -95 -397 -397q-140 47 -140 233h-46q-195 -601 -327 -676 q-116 53 -163 187z" />
<glyph unicode="n" horiz-adv-x="1479" d="M69 93v47q140 377 257 956v186h93q89 -29 210 -349q308 -367 326 -420h70q47 447 117 909h46q164 0 164 -326v-23q-42 -980 -210 -980h-24q-107 0 -629 583q-156 -723 -280 -723q-140 0 -140 140z" />
<glyph unicode="o" horiz-adv-x="1302" d="M73 210v46q0 297 350 793q-24 45 -24 70q0 221 444 327q319 0 373 -607v-23q0 -425 -653 -769l-303 -70q-187 88 -187 233zM330 280q423 100 652 466q0 140 24 140q-24 326 -163 326q-24 -178 -187 -279q-293 -394 -326 -607v-46z" />
<glyph unicode="p" horiz-adv-x="1521" d="M44 1306v93q0 117 420 117h116q877 0 980 -537v-23q-210 -420 -700 -420h-46q-210 0 -210 210l513 117q167 102 186 186q-212 187 -559 187h-164q-151 0 -466 -24zM207 116q107 1050 233 1050q117 -47 117 -187q0 -68 -47 -373q24 -259 24 -466q-76 -303 -140 -303h-70 q-64 0 -117 279z" />
<glyph unicode="q" horiz-adv-x="1418" d="M38 606q0 222 187 536q286 374 419 374q439 0 583 -234q117 -335 117 -419q0 -232 -327 -560v-23q164 -312 164 -373v-24q0 -53 -117 -70q-79 66 -256 327q-47 0 -47 46q-215 -93 -373 -93q-350 99 -350 513zM271 466q24 -93 140 -93q114 0 233 70q-70 119 -70 233v23 q0 37 94 94q58 0 209 -233q234 158 234 373v23q0 303 -280 303q-294 -88 -397 -256q-163 -238 -163 -537z" />
<glyph unicode="r" horiz-adv-x="1503" d="M62 1306q0 210 443 210q840 -69 840 -513q0 -169 -444 -443h-23v-47q583 -142 583 -210q-42 -163 -256 -163q-561 132 -700 280h-23q-52 -537 -140 -537q-163 0 -163 233q70 419 93 863l93 70q140 -48 140 -186v-187q488 209 583 373q-103 187 -583 187 q-329 -70 -350 -70q-93 23 -93 140z" />
<glyph unicode="s" horiz-adv-x="1513" d="M-19 956q0 307 793 443h256q280 -61 280 -210v-93l-116 -23q-175 69 -280 69q-282 0 -537 -163q1050 -274 1050 -769q-188 -350 -700 -350q-559 0 -559 303h23l280 -47q590 0 699 187v23q0 156 -653 350q-407 81 -513 280h-23z" />
<glyph unicode="t" horiz-adv-x="1399" d="M-12 1166q0 210 466 210q621 23 980 23l70 -93q0 -187 -397 -187q-151 0 -233 -23l23 -163v-94q0 -478 -233 -839h-46q-117 52 -117 233q47 70 163 583l-23 47q23 45 23 70l-23 116q23 0 23 24l-46 23q-423 -47 -513 -47q-62 117 -117 117z" />
<glyph unicode="u" horiz-adv-x="1380" d="M94 163q0 243 303 1143l47 46q163 0 163 -163l-256 -839q23 -46 23 -70q162 108 443 513q93 129 186 466l47 23h23q164 0 164 -186v-163q-47 -513 -47 -537l23 -210q-32 -96 -116 -139q-146 47 -164 116v140l-23 163q-320 -461 -629 -583q-133 0 -187 280z" />
<glyph unicode="v" horiz-adv-x="1259" d="M105 1003q0 23 23 23l-23 116q0 140 93 140q178 0 233 -699q33 0 47 -233q155 0 536 1072l94 70h46q117 -67 117 -140q0 -75 -257 -653q0 -229 -559 -792q-257 0 -257 513z" />
<glyph unicode="w" horiz-adv-x="1692" d="M152 186q0 24 23 24l-23 163v466q0 258 47 443h70q140 -83 140 -279v-210q0 -24 -24 -24l24 -46v-210q7 -47 46 -47q159 253 257 607h116q59 -70 94 -70v-630q7 -47 46 -47q282 300 397 747q23 279 93 279q138 0 186 -140q0 -481 -536 -1165q-122 -164 -186 -164 q-146 0 -234 443l-279 -373q-41 -23 -94 -23q-108 70 -140 70v47z" />
<glyph unicode="x" horiz-adv-x="1245" d="M-17 93l443 513q-186 387 -186 490q14 140 69 140h70q97 -51 234 -397h23q288 467 420 560h23q93 -38 93 -163q0 -146 -419 -676q163 -280 163 -304l46 24h70l24 -94l-24 -93q24 -92 24 -163l-70 -47h-94q-67 0 -326 443q-36 0 -420 -443h-46q-99 0 -117 210z" />
<glyph unicode="y" horiz-adv-x="1395" d="M16 1259q15 140 70 140h23q117 0 210 -210q185 -233 443 -303q24 0 24 -47q224 239 513 747h93q46 0 93 -164q-56 -219 -536 -839l-24 -140l24 -163q0 -57 -117 -210q-29 -233 -93 -233h-70q-37 0 -117 163q0 24 117 490v186h-117q-536 360 -536 583z" />
<glyph unicode="z" horiz-adv-x="1658" d="M66 1329v47q220 280 746 280h117q225 0 326 -164v-116q0 -94 -163 -327q208 0 233 -93v-140l-606 -163q-233 -324 -233 -373q812 186 1096 186q0 -40 70 -116v-24q0 -163 -327 -163q-821 -186 -1026 -186h-46q-94 46 -140 139v47q0 96 256 490q0 70 -70 70v46 q0 182 350 210q35 6 326 397l-46 23h-24q-415 0 -699 -210q-140 0 -140 140z" />
<glyph unicode="{" horiz-adv-x="933" d="M60 -140q0 91 210 443v47q-187 0 -187 163v23q0 173 397 350q-163 188 -163 210q-24 38 -24 116v117q213 303 373 303h94q32 -1 93 -116v-94q-170 0 -327 -186v-24q187 -188 187 -303v-140q0 -43 -280 -233q93 -38 93 -163q0 -136 -209 -490q0 -24 -24 -70q24 0 24 -23 l163 23h186l24 -116v-47q0 -77 -304 -116h-46q-280 0 -280 256v70z" />
<glyph unicode="|" horiz-adv-x="466" d="M60 1352q41 164 93 164h47q140 -103 140 -280h-23l23 -47q0 -96 46 -1049h-23l23 -47q0 -23 -23 -23l23 -117q-23 -122 -23 -140h-186q-70 0 -70 327q0 117 23 350z" />
<glyph unicode="}" horiz-adv-x="886" d="M60 1469q30 117 70 117h233q210 0 210 -280q-140 -295 -140 -397q373 0 373 -210v-70q-233 -46 -233 -116v-23q0 -56 140 -304l23 -279q-76 -280 -443 -280q0 -30 -140 -47q0 47 -46 47q0 198 256 280q102 0 140 93v70q0 35 -163 373v210q-140 105 -140 233 q0 225 117 373v93h-234z" />
<glyph unicode="~" horiz-adv-x="1399" d="M60 746v70q0 174 396 373h47q102 0 140 -303q-23 -45 -23 -70l46 -23q397 210 467 210h93q36 0 93 -94v-140q-100 0 -676 -303h-140q-33 0 -140 140v187h-23q-134 -117 -233 -117z" />
<glyph unicode="&#xa2;" horiz-adv-x="1189" d="M60 536q0 262 326 560q397 194 397 350q185 210 210 210h23q36 0 93 -94v-116l-116 -140v-24q93 -98 93 -186v-23q0 -47 -256 -70q-257 -452 -257 -560h23q75 0 443 140l24 -47v-93q-121 -280 -560 -280l-47 23q-85 -303 -163 -303q-116 44 -116 187q0 29 23 233z" />
<glyph unicode="&#xa8;" horiz-adv-x="721" d="M60 1263q0 13 14 26l71 72q13 12 25 12q11 0 27 -14l69 -73q10 -14 10 -25q0 -13 -12 -27l-69 -75q-17 -17 -25 -17q-14 0 -25 12l-76 86q-9 12 -9 23zM425 1263q0 13 14 26l71 72q13 12 25 12q11 0 27 -13l69 -74q10 -14 10 -25q0 -13 -12 -26l-69 -76q-17 -17 -25 -17 q-14 0 -25 12l-76 87q-9 11 -9 22z" />
<glyph unicode="&#xa9;" horiz-adv-x="2059" d="M110 373q170 724 490 933q241 186 466 186q578 0 653 -210q163 -405 163 -653v-93q0 -272 -396 -559q-260 -164 -653 -164q-723 0 -723 560zM343 350q0 -280 537 -280q792 102 792 606q0 165 -70 397h-163q0 163 -163 163q-117 0 -117 23q-470 -115 -629 -396 q-116 -180 -187 -513zM646 396v164q220 582 467 582h93q210 -98 210 -349q-47 0 -47 -70h-93q-51 0 -93 186h-47q-259 -213 -280 -419q85 -47 187 -47l233 93q56 -75 70 -210q-140 -140 -350 -140q-242 0 -350 210z" />
<glyph unicode="&#xad;" d="M108 606v47q0 33 70 70q57 0 396 -47l47 23q23 0 23 -23l117 23h186q140 -14 140 -70v-93q0 -93 -629 -116q-350 0 -350 186z" />
<glyph unicode="&#xae;" horiz-adv-x="1889" d="M60 233v70q0 287 280 746q390 443 816 443h93q171 0 280 -280q280 -467 280 -722v-94q0 -422 -723 -676h-187q-839 86 -839 513zM293 280q0 -241 676 -327q168 0 374 187h-257q-23 0 -23 23q0 -23 -350 -23q-23 41 -23 93v280q0 97 23 256l-47 117q0 45 47 163h-23 q-397 -418 -397 -746v-23zM736 1049l47 24h280l46 -24l24 47l-24 46q24 41 24 94q-229 0 -397 -187zM923 536h23q182 91 233 187v46l-116 24h-117q0 -47 -23 -47q0 -23 23 -23l-23 -117v-70zM1179 1049q217 -131 233 -233q24 -93 24 -163q0 -39 -187 -233q157 0 257 -164 q93 38 93 164v70q-167 583 -256 583h-164v-24z" />
<glyph unicode="&#xb0;" horiz-adv-x="816" d="M60 1259v93q0 263 303 443q373 -75 373 -349q0 -171 -256 -350l-163 -23q-151 0 -257 186zM270 1306h70q186 80 186 210v23q-256 -56 -256 -163v-70z" />
<glyph unicode="&#xb1;" horiz-adv-x="1353" d="M60 560v23q97 186 886 186h233q94 -37 94 -163q0 -116 -467 -116q-581 -94 -676 -94q-70 86 -70 164zM223 1212q0 149 350 210q17 164 93 164h47q117 -164 186 -164q105 0 210 -46v-94q0 -63 -303 -116q-62 -373 -116 -373q-164 0 -164 163q-23 0 -23 23l23 117h-70 q-52 0 -93 -23q-70 0 -140 139z" />
<glyph unicode="&#xb4;" horiz-adv-x="601" d="M60 1078l291 297q35 35 55.5 47t40.5 12q33 0 53.5 -20t20.5 -51q0 -22 -15.5 -42t-46.5 -40l-330 -203h-69z" />
<glyph unicode="&#xb8;" horiz-adv-x="548" d="M60 -290q85 -52 152 -52q66 0 94.5 21.5t28.5 66.5t-49 64q-40 16 -102 16q-16 0 -34 -2l48 176h63l-37 -104q32 4 62 5q86 0 134 -40.5t48 -113.5q0 -76 -58.5 -120.5t-160.5 -44.5q-109 0 -189 32v96z" />
<glyph unicode="&#x2c6;" horiz-adv-x="722" d="M60 1079l232 355h118l232 -355h-58l-233 216l-233 -216h-58z" />
<glyph unicode="&#x2dc;" horiz-adv-x="714" d="M60 1132q19 106 68 158.5t129 52.5q46 -1 113 -24q64 -23 112 -23h4q36 0 58 20t36 66h54q-20 -103 -68.5 -154t-126.5 -51h-4q-50 0 -113 23q-66 24 -114 24q-39 0 -60.5 -20.5t-33.5 -71.5h-54z" />
<glyph unicode="&#x2000;" horiz-adv-x="1026" />
<glyph unicode="&#x2001;" horiz-adv-x="2052" />
<glyph unicode="&#x2002;" horiz-adv-x="1026" />
<glyph unicode="&#x2003;" horiz-adv-x="2052" />
<glyph unicode="&#x2004;" horiz-adv-x="684" />
<glyph unicode="&#x2005;" horiz-adv-x="513" />
<glyph unicode="&#x2006;" horiz-adv-x="342" />
<glyph unicode="&#x2007;" horiz-adv-x="342" />
<glyph unicode="&#x2008;" horiz-adv-x="256" />
<glyph unicode="&#x2009;" horiz-adv-x="410" />
<glyph unicode="&#x200a;" horiz-adv-x="114" />
<glyph unicode="&#x2010;" d="M108 606v47q0 33 70 70q57 0 396 -47l47 23q23 0 23 -23l117 23h186q140 -14 140 -70v-93q0 -93 -629 -116q-350 0 -350 186z" />
<glyph unicode="&#x2011;" d="M108 606v47q0 33 70 70q57 0 396 -47l47 23q23 0 23 -23l117 23h186q140 -14 140 -70v-93q0 -93 -629 -116q-350 0 -350 186z" />
<glyph unicode="&#x2012;" d="M108 606v47q0 33 70 70q57 0 396 -47l47 23q23 0 23 -23l117 23h186q140 -14 140 -70v-93q0 -93 -629 -116q-350 0 -350 186z" />
<glyph unicode="&#x2013;" horiz-adv-x="1382" d="M108 606v47q0 33 73 70q60 0 414 -47l50 23q24 0 24 -23l122 23h195q146 -14 146 -70v-93q0 -93 -658 -116q-366 0 -366 186z" />
<glyph unicode="&#x2014;" horiz-adv-x="2406" d="M108 606v47q0 33 146 70q120 0 829 -47l98 23q48 0 48 -23l245 23h389q293 -14 293 -70v-93q0 -93 -1316 -116q-732 0 -732 186z" />
<glyph unicode="&#x2018;" horiz-adv-x="583" d="M60 1003q225 536 420 536l23 -46v-24q0 -23 -23 -23l23 -46v-24q-218 -511 -257 -536h-93q-93 38 -93 163z" />
<glyph unicode="&#x2019;" horiz-adv-x="583" d="M60 886v24q0 23 23 23l-23 46v24q218 511 257 536h93q93 -38 93 -163q-225 -536 -420 -536z" />
<glyph unicode="&#x201c;" horiz-adv-x="1203" d="M60 1003q225 536 420 536l23 -46v-24q0 -23 -23 -23l23 -46v-24q-218 -511 -257 -536h-93q-93 38 -93 163zM680 1003q225 536 420 536l23 -46v-24q0 -23 -23 -23l23 -46v-24q-218 -511 -257 -536h-93q-93 38 -93 163z" />
<glyph unicode="&#x201d;" horiz-adv-x="1203" d="M60 886v24q0 23 23 23l-23 46v24q218 511 257 536h93q93 -38 93 -163q-225 -536 -420 -536zM680 886v24q0 23 23 23l-23 46v24q218 511 257 536h93q93 -38 93 -163q-225 -536 -420 -536z" />
<glyph unicode="&#x2022;" horiz-adv-x="1049" d="M60 676v23q0 444 443 537h117q314 0 349 -373q0 -117 -209 -257q-35 -80 -257 -140q-45 24 -70 24l-47 -24q-326 0 -326 210z" />
<glyph unicode="&#x2026;" horiz-adv-x="1335" d="M60 -36q62 107 145 107q42 0 89 -27q76 -43 76 -135q0 -8 -1 -16l-59 -101q-13 -23 -109 -23q-18 0 -38 1l-60 35q-28 16 -43 159zM502 -36q63 107 146 107q42 0 89 -27q75 -43 75 -135q0 -8 -1 -16l-58 -101q-14 -23 -109 -23q-18 0 -38 1l-61 35q-27 16 -43 159z M945 -36q62 107 145 107q42 0 89 -27q76 -43 76 -135q0 -8 -1 -16l-59 -101q-13 -23 -109 -23q-18 0 -38 1l-60 35q-28 16 -43 159z" />
<glyph unicode="&#x202f;" horiz-adv-x="410" />
<glyph unicode="&#x205f;" horiz-adv-x="513" />
<glyph unicode="&#x2122;" horiz-adv-x="1772" d="M60 1842q89 210 700 210q56 -47 93 -47q0 -210 -210 -210q-126 0 -187 -396l-70 -47h-46q-117 55 -117 117l70 233h-93q-140 0 -140 140zM760 1282v117q67 490 139 490h47q125 -125 303 -187q83 162 233 280h70q0 -36 47 -93v-24q0 -23 -23 -23q116 -254 116 -513 l-23 -117h-93q-117 27 -117 280h-47q0 -93 -69 -93q-53 0 -94 23l-46 -23q-117 31 -117 117h-70q-17 -280 -117 -280h-46q-57 46 -93 46z" />
<glyph unicode="&#xe000;" horiz-adv-x="1400" d="M0 0v1400h1400v-1400h-1400z" />
</font>
</defs>
</svg>
